<?xml version="1.0" encoding="utf-8" standalone="no"?>
<!DOCTYPE svg PUBLIC "-//W3C//DTD SVG 1.1//EN"
  "http://www.w3.org/Graphics/SVG/1.1/DTD/svg11.dtd">
<svg xmlns:xlink="http://www.w3.org/1999/xlink" width="593.03952pt" height="477.83952pt" viewBox="0 0 593.03952 477.83952" xmlns="http://www.w3.org/2000/svg" version="1.1">
 <title>Учебник ИИ, урок 64, рисунок 2</title>
 <metadata>
  <rdf:RDF xmlns:dc="http://purl.org/dc/elements/1.1/" xmlns:cc="http://creativecommons.org/ns#" xmlns:rdf="http://www.w3.org/1999/02/22-rdf-syntax-ns#">
   <cc:Work>
    <dc:type rdf:resource="http://purl.org/dc/dcmitype/StillImage"/>
    <dc:title>Учебник ИИ, урок 64, рисунок 2</dc:title>
    <dc:date>2026-07-18T10:13:57.746662</dc:date>
    <dc:format>image/svg+xml</dc:format>
    <dc:creator>
     <cc:Agent>
      <dc:title>Matplotlib v3.9.4, https://matplotlib.org/</dc:title>
     </cc:Agent>
    </dc:creator>
   </cc:Work>
  </rdf:RDF>
 </metadata>
 <defs>
  <style type="text/css">*{stroke-linejoin: round; stroke-linecap: butt}</style>
 </defs>
 <g id="figure_1">
  <g id="patch_1">
   <path d="M 0 477.83952 
L 593.03952 477.83952 
L 593.03952 0 
L 0 0 
z
" style="fill: #fffef9"/>
  </g>
  <g id="axes_1">
   <g id="patch_2">
    <path d="M 44.418437 431.347082 
L 578.46952 431.347082 
L 578.46952 15.95775 
L 44.418437 15.95775 
z
" style="fill: #fffef9"/>
   </g>
   <g id="PathCollection_1">
    <defs>
     <path id="mfc3f4f69f7" d="M 0 3.082207 
C 0.817411 3.082207 1.601453 2.757446 2.179449 2.179449 
C 2.757446 1.601453 3.082207 0.817411 3.082207 0 
C 3.082207 -0.817411 2.757446 -1.601453 2.179449 -2.179449 
C 1.601453 -2.757446 0.817411 -3.082207 0 -3.082207 
C -0.817411 -3.082207 -1.601453 -2.757446 -2.179449 -2.179449 
C -2.757446 -1.601453 -3.082207 -0.817411 -3.082207 0 
C -3.082207 0.817411 -2.757446 1.601453 -2.179449 2.179449 
C -1.601453 2.757446 -0.817411 3.082207 0 3.082207 
z
" style="stroke: #171915"/>
    </defs>
    <g clip-path="url(#p11051c2a17)">
     <use xlink:href="#mfc3f4f69f7" x="271.390148" y="99.035617" style="fill: #171915; stroke: #171915"/>
    </g>
   </g>
   <g id="matplotlib.axis_1">
    <g id="xtick_1">
     <g id="line2d_1">
      <defs>
       <path id="m5a18db3eea" d="M 0 0 
L 0 3 
" style="stroke: #696d65; stroke-width: 0.7"/>
      </defs>
      <g>
       <use xlink:href="#m5a18db3eea" x="44.418437" y="431.347082" style="fill: #696d65; stroke: #696d65; stroke-width: 0.7"/>
      </g>
     </g>
     <g id="text_1">
      <!-- -3 -->
      <g style="fill: #696d65" transform="translate(39.337328 446.722582) scale(0.122 -0.122)">
       <defs>
        <path id="Palatino-Roman-2d" d="M 141 1369 
L 141 1413 
L 281 1831 
L 1953 1831 
L 1953 1784 
L 1803 1369 
L 141 1369 
z
" transform="scale(0.015625)"/>
        <path id="Palatino-Roman-33" d="M 325 97 
Q 281 363 247 506 
Q 225 597 106 1022 
L 278 1088 
Q 475 563 729 377 
Q 984 191 1394 191 
Q 1694 191 1898 309 
Q 2103 428 2231 687 
Q 2359 947 2359 1272 
Q 2359 1706 2137 1939 
Q 1916 2172 1541 2172 
Q 1416 2172 1308 2147 
Q 1200 2122 988 2034 
L 950 2066 
L 1019 2406 
Q 1269 2391 1353 2391 
Q 1734 2391 1942 2658 
Q 2150 2925 2150 3263 
Q 2150 3566 1929 3778 
Q 1709 3991 1372 3991 
Q 1169 3991 981 3909 
Q 794 3828 650 3691 
Q 594 3572 472 3244 
L 278 3244 
L 472 3994 
Q 681 4213 866 4300 
Q 1169 4438 1528 4438 
Q 2056 4438 2364 4159 
Q 2672 3881 2672 3484 
Q 2672 3216 2512 2955 
Q 2353 2694 1972 2422 
Q 2325 2375 2529 2261 
Q 2734 2147 2843 1939 
Q 2953 1731 2953 1475 
Q 2953 1103 2718 743 
Q 2484 384 2059 150 
Q 1634 -84 1138 -84 
Q 919 -84 737 -43 
Q 556 -3 325 97 
z
" transform="scale(0.015625)"/>
       </defs>
       <use xlink:href="#Palatino-Roman-2d"/>
       <use xlink:href="#Palatino-Roman-33" x="33.300781"/>
      </g>
     </g>
    </g>
    <g id="xtick_2">
     <g id="line2d_2">
      <g>
       <use xlink:href="#m5a18db3eea" x="111.174823" y="431.347082" style="fill: #696d65; stroke: #696d65; stroke-width: 0.7"/>
      </g>
     </g>
     <g id="text_2">
      <!-- -2 -->
      <g style="fill: #696d65" transform="translate(106.093713 446.722582) scale(0.122 -0.122)">
       <defs>
        <path id="Palatino-Roman-32" d="M 106 0 
L 106 175 
Q 203 297 456 556 
L 1153 1281 
Q 1234 1366 1550 1722 
Q 1788 1994 1922 2217 
Q 2056 2441 2118 2652 
Q 2181 2863 2181 3053 
Q 2181 3378 2000 3616 
Q 1766 3931 1319 3931 
Q 1069 3931 881 3850 
Q 694 3769 630 3670 
Q 566 3572 441 3106 
L 253 3106 
Q 328 3525 359 3969 
Q 556 4156 689 4237 
Q 822 4319 1015 4367 
Q 1209 4416 1438 4416 
Q 1847 4416 2128 4277 
Q 2409 4138 2578 3863 
Q 2747 3588 2747 3241 
Q 2747 2866 2555 2502 
Q 2363 2138 1756 1534 
L 1222 1003 
Q 931 713 781 541 
L 2153 541 
Q 2566 541 2963 581 
L 2984 556 
Q 2966 438 2966 278 
Q 2966 134 2984 34 
L 2963 0 
Q 2741 13 2456 19 
Q 1819 31 1603 31 
Q 1331 31 688 19 
Q 334 13 106 0 
z
" transform="scale(0.015625)"/>
       </defs>
       <use xlink:href="#Palatino-Roman-2d"/>
       <use xlink:href="#Palatino-Roman-32" x="33.300781"/>
      </g>
     </g>
    </g>
    <g id="xtick_3">
     <g id="line2d_3">
      <g>
       <use xlink:href="#m5a18db3eea" x="177.931208" y="431.347082" style="fill: #696d65; stroke: #696d65; stroke-width: 0.7"/>
      </g>
     </g>
     <g id="text_3">
      <!-- -1 -->
      <g style="fill: #696d65" transform="translate(172.850099 446.722582) scale(0.122 -0.122)">
       <defs>
        <path id="Palatino-Roman-31" d="M 478 3559 
L 422 3575 
L 391 3831 
L 422 3863 
Q 756 3959 1150 4128 
Q 1731 4375 1897 4459 
L 1978 4428 
Q 1928 2997 1928 2784 
L 1928 1625 
Q 1928 931 1944 575 
Q 1953 366 1995 311 
Q 2038 256 2120 232 
Q 2203 209 2663 191 
L 2663 0 
Q 1872 25 1672 25 
Q 1522 25 613 0 
L 613 191 
Q 1088 219 1161 236 
Q 1234 253 1270 287 
Q 1306 322 1322 384 
Q 1347 481 1365 942 
Q 1384 1403 1384 1641 
L 1384 2872 
Q 1384 3625 1381 3816 
Q 1381 3900 1359 3922 
Q 1347 3934 1325 3934 
Q 1297 3934 1181 3884 
Q 650 3647 478 3559 
z
" transform="scale(0.015625)"/>
       </defs>
       <use xlink:href="#Palatino-Roman-2d"/>
       <use xlink:href="#Palatino-Roman-31" x="33.300781"/>
      </g>
     </g>
    </g>
    <g id="xtick_4">
     <g id="line2d_4">
      <g>
       <use xlink:href="#m5a18db3eea" x="244.687593" y="431.347082" style="fill: #696d65; stroke: #696d65; stroke-width: 0.7"/>
      </g>
     </g>
     <g id="text_4">
      <!-- 0 -->
      <g style="fill: #696d65" transform="translate(241.637593 446.722582) scale(0.122 -0.122)">
       <defs>
        <path id="Palatino-Roman-30" d="M 194 1934 
Q 194 2825 322 3309 
Q 450 3794 787 4109 
Q 1125 4425 1644 4425 
Q 1906 4425 2129 4336 
Q 2353 4247 2495 4111 
Q 2638 3975 2736 3776 
Q 2834 3578 2875 3378 
Q 2969 2922 2969 2384 
Q 2969 1684 2859 1184 
Q 2797 900 2681 664 
Q 2566 428 2406 262 
Q 2247 97 2022 -1 
Q 1797 -100 1516 -100 
Q 1175 -100 931 44 
Q 688 188 544 413 
Q 344 734 269 1148 
Q 194 1563 194 1934 
z
M 731 2116 
Q 731 1666 790 1233 
Q 850 800 978 531 
Q 1066 350 1234 234 
Q 1403 119 1613 119 
Q 1969 119 2159 416 
Q 2434 841 2434 2106 
Q 2434 2650 2376 3083 
Q 2319 3516 2184 3794 
Q 2097 3972 1939 4086 
Q 1781 4200 1559 4200 
Q 1316 4200 1123 4044 
Q 931 3888 831 3477 
Q 731 3066 731 2116 
z
" transform="scale(0.015625)"/>
       </defs>
       <use xlink:href="#Palatino-Roman-30"/>
      </g>
     </g>
    </g>
    <g id="xtick_5">
     <g id="line2d_5">
      <g>
       <use xlink:href="#m5a18db3eea" x="311.443979" y="431.347082" style="fill: #696d65; stroke: #696d65; stroke-width: 0.7"/>
      </g>
     </g>
     <g id="text_5">
      <!-- 1 -->
      <g style="fill: #696d65" transform="translate(308.393979 446.722582) scale(0.122 -0.122)">
       <use xlink:href="#Palatino-Roman-31"/>
      </g>
     </g>
    </g>
    <g id="xtick_6">
     <g id="line2d_6">
      <g>
       <use xlink:href="#m5a18db3eea" x="378.200364" y="431.347082" style="fill: #696d65; stroke: #696d65; stroke-width: 0.7"/>
      </g>
     </g>
     <g id="text_6">
      <!-- 2 -->
      <g style="fill: #696d65" transform="translate(375.150364 446.722582) scale(0.122 -0.122)">
       <use xlink:href="#Palatino-Roman-32"/>
      </g>
     </g>
    </g>
    <g id="xtick_7">
     <g id="line2d_7">
      <g>
       <use xlink:href="#m5a18db3eea" x="444.956749" y="431.347082" style="fill: #696d65; stroke: #696d65; stroke-width: 0.7"/>
      </g>
     </g>
     <g id="text_7">
      <!-- 3 -->
      <g style="fill: #696d65" transform="translate(441.906749 446.722582) scale(0.122 -0.122)">
       <use xlink:href="#Palatino-Roman-33"/>
      </g>
     </g>
    </g>
    <g id="xtick_8">
     <g id="line2d_8">
      <g>
       <use xlink:href="#m5a18db3eea" x="511.713135" y="431.347082" style="fill: #696d65; stroke: #696d65; stroke-width: 0.7"/>
      </g>
     </g>
     <g id="text_8">
      <!-- 4 -->
      <g style="fill: #696d65" transform="translate(508.663135 446.722582) scale(0.122 -0.122)">
       <defs>
        <path id="Palatino-Roman-34" d="M 1003 0 
L 1003 184 
Q 1491 194 1575 211 
Q 1659 228 1694 266 
Q 1738 319 1756 456 
Q 1784 688 1784 934 
L 1784 1166 
L 1100 1166 
Q 534 1166 91 1147 
L 38 1316 
Q 278 1769 681 2425 
Q 1269 3381 1853 4266 
Q 1888 4281 2022 4338 
Q 2259 4431 2294 4444 
L 2372 4406 
Q 2350 4031 2344 3481 
Q 2328 2322 2328 2209 
L 2328 1563 
Q 2753 1566 3025 1584 
Q 3016 1428 3016 1378 
L 3025 1147 
Q 2706 1166 2488 1166 
L 2328 1166 
L 2328 956 
Q 2328 431 2375 316 
Q 2394 269 2450 241 
Q 2569 188 3025 184 
L 3025 0 
Q 2350 25 1988 25 
Q 1597 25 1003 0 
z
M 450 1563 
L 1784 1563 
L 1813 3784 
Q 1472 3294 1042 2584 
Q 613 1875 450 1563 
z
" transform="scale(0.015625)"/>
       </defs>
       <use xlink:href="#Palatino-Roman-34"/>
      </g>
     </g>
    </g>
    <g id="xtick_9">
     <g id="line2d_9">
      <g>
       <use xlink:href="#m5a18db3eea" x="578.46952" y="431.347082" style="fill: #696d65; stroke: #696d65; stroke-width: 0.7"/>
      </g>
     </g>
     <g id="text_9">
      <!-- 5 -->
      <g style="fill: #696d65" transform="translate(575.41952 446.722582) scale(0.122 -0.122)">
       <defs>
        <path id="Palatino-Roman-35" d="M 413 69 
Q 341 281 297 394 
L 91 903 
L 244 994 
Q 525 481 590 420 
Q 656 359 884 278 
Q 1113 197 1350 197 
Q 1663 197 1898 328 
Q 2134 459 2264 720 
Q 2394 981 2394 1350 
Q 2394 1894 2098 2156 
Q 1803 2419 1400 2419 
Q 1163 2419 969 2328 
Q 822 2256 619 2034 
L 491 2072 
L 528 2844 
Q 534 3019 534 3128 
L 534 3684 
Q 534 3934 519 4184 
Q 513 4281 509 4341 
L 550 4372 
Q 1059 4334 1619 4334 
Q 2094 4334 2756 4372 
L 2772 4341 
Q 2750 4181 2750 4053 
Q 2750 3991 2756 3838 
L 2725 3819 
Q 2291 3847 1425 3847 
Q 1106 3847 822 3838 
Q 775 3406 759 2538 
Q 1009 2719 1209 2789 
Q 1409 2859 1653 2859 
Q 2016 2859 2317 2704 
Q 2619 2550 2781 2259 
Q 2944 1969 2944 1622 
Q 2944 1081 2575 616 
Q 2019 -91 1081 -91 
Q 875 -91 729 -55 
Q 584 -19 413 69 
z
" transform="scale(0.015625)"/>
       </defs>
       <use xlink:href="#Palatino-Roman-35"/>
      </g>
     </g>
    </g>
    <g id="text_10">
     <!-- $w_1$ -->
     <g style="fill: #696d65" transform="translate(304.916979 462.958801) scale(0.122 -0.122)">
      <defs>
       <path id="STIXGeneral-Italic-77" d="M 2579 2726 
L 2784 474 
Q 3418 1261 3629 1597 
Q 3840 1933 3840 2138 
Q 3840 2227 3699 2362 
Q 3565 2490 3565 2624 
Q 3565 2701 3638 2761 
Q 3712 2822 3814 2822 
Q 3955 2822 4051 2720 
Q 4147 2618 4147 2464 
Q 4147 1882 2790 230 
L 2733 160 
Q 2509 -115 2445 -115 
Q 2394 -115 2374 109 
L 2189 2093 
L 1619 1120 
Q 1472 877 1267 486 
Q 954 -115 858 -115 
Q 813 -115 800 -57 
Q 787 0 774 186 
L 749 768 
Q 698 1818 576 2317 
Q 531 2490 476 2538 
Q 422 2586 275 2586 
L 96 2586 
L 96 2669 
Q 602 2752 704 2778 
Q 736 2784 777 2797 
Q 819 2810 844 2816 
Q 870 2822 890 2822 
Q 941 2822 960 2790 
Q 979 2758 1011 2605 
Q 1171 1837 1216 806 
L 2445 2752 
Q 2483 2816 2528 2816 
Q 2579 2816 2579 2726 
z
" transform="scale(0.015625)"/>
       <path id="STIXGeneral-Regular-31" d="M 2522 0 
L 755 0 
L 755 96 
Q 1107 115 1235 227 
Q 1363 339 1363 608 
L 1363 3482 
Q 1363 3795 1171 3795 
Q 1082 3795 883 3718 
L 710 3654 
L 710 3744 
L 1856 4326 
L 1914 4307 
L 1914 486 
Q 1914 275 2042 185 
Q 2170 96 2522 96 
L 2522 0 
z
" transform="scale(0.015625)"/>
      </defs>
      <use xlink:href="#STIXGeneral-Italic-77" transform="translate(0 0.90625)"/>
      <use xlink:href="#STIXGeneral-Regular-31" transform="translate(66.699997 -12.321875) scale(0.7)"/>
     </g>
    </g>
   </g>
   <g id="matplotlib.axis_2">
    <g id="ytick_1">
     <g id="line2d_10">
      <defs>
       <path id="m63dbdf6ecf" d="M 0 0 
L -3 0 
" style="stroke: #696d65; stroke-width: 0.7"/>
      </defs>
      <g>
       <use xlink:href="#m63dbdf6ecf" x="44.418437" y="431.347082" style="fill: #696d65; stroke: #696d65; stroke-width: 0.7"/>
      </g>
     </g>
     <g id="text_11">
      <!-- -3 -->
      <g style="fill: #696d65" transform="translate(27.756219 435.784832) scale(0.122 -0.122)">
       <use xlink:href="#Palatino-Roman-2d"/>
       <use xlink:href="#Palatino-Roman-33" x="33.300781"/>
      </g>
     </g>
    </g>
    <g id="ytick_2">
     <g id="line2d_11">
      <g>
       <use xlink:href="#m63dbdf6ecf" x="44.418437" y="372.005749" style="fill: #696d65; stroke: #696d65; stroke-width: 0.7"/>
      </g>
     </g>
     <g id="text_12">
      <!-- -2 -->
      <g style="fill: #696d65" transform="translate(27.756219 376.443499) scale(0.122 -0.122)">
       <use xlink:href="#Palatino-Roman-2d"/>
       <use xlink:href="#Palatino-Roman-32" x="33.300781"/>
      </g>
     </g>
    </g>
    <g id="ytick_3">
     <g id="line2d_12">
      <g>
       <use xlink:href="#m63dbdf6ecf" x="44.418437" y="312.664416" style="fill: #696d65; stroke: #696d65; stroke-width: 0.7"/>
      </g>
     </g>
     <g id="text_13">
      <!-- -1 -->
      <g style="fill: #696d65" transform="translate(27.756219 317.102166) scale(0.122 -0.122)">
       <use xlink:href="#Palatino-Roman-2d"/>
       <use xlink:href="#Palatino-Roman-31" x="33.300781"/>
      </g>
     </g>
    </g>
    <g id="ytick_4">
     <g id="line2d_13">
      <g>
       <use xlink:href="#m63dbdf6ecf" x="44.418437" y="253.323083" style="fill: #696d65; stroke: #696d65; stroke-width: 0.7"/>
      </g>
     </g>
     <g id="text_14">
      <!-- 0 -->
      <g style="fill: #696d65" transform="translate(31.818437 257.760833) scale(0.122 -0.122)">
       <use xlink:href="#Palatino-Roman-30"/>
      </g>
     </g>
    </g>
    <g id="ytick_5">
     <g id="line2d_14">
      <g>
       <use xlink:href="#m63dbdf6ecf" x="44.418437" y="193.98175" style="fill: #696d65; stroke: #696d65; stroke-width: 0.7"/>
      </g>
     </g>
     <g id="text_15">
      <!-- 1 -->
      <g style="fill: #696d65" transform="translate(31.818437 198.4195) scale(0.122 -0.122)">
       <use xlink:href="#Palatino-Roman-31"/>
      </g>
     </g>
    </g>
    <g id="ytick_6">
     <g id="line2d_15">
      <g>
       <use xlink:href="#m63dbdf6ecf" x="44.418437" y="134.640416" style="fill: #696d65; stroke: #696d65; stroke-width: 0.7"/>
      </g>
     </g>
     <g id="text_16">
      <!-- 2 -->
      <g style="fill: #696d65" transform="translate(31.818437 139.078166) scale(0.122 -0.122)">
       <use xlink:href="#Palatino-Roman-32"/>
      </g>
     </g>
    </g>
    <g id="ytick_7">
     <g id="line2d_16">
      <g>
       <use xlink:href="#m63dbdf6ecf" x="44.418437" y="75.299083" style="fill: #696d65; stroke: #696d65; stroke-width: 0.7"/>
      </g>
     </g>
     <g id="text_17">
      <!-- 3 -->
      <g style="fill: #696d65" transform="translate(31.818437 79.736833) scale(0.122 -0.122)">
       <use xlink:href="#Palatino-Roman-33"/>
      </g>
     </g>
    </g>
    <g id="ytick_8">
     <g id="line2d_17">
      <g>
       <use xlink:href="#m63dbdf6ecf" x="44.418437" y="15.95775" style="fill: #696d65; stroke: #696d65; stroke-width: 0.7"/>
      </g>
     </g>
     <g id="text_18">
      <!-- 4 -->
      <g style="fill: #696d65" transform="translate(31.818437 20.3955) scale(0.122 -0.122)">
       <use xlink:href="#Palatino-Roman-34"/>
      </g>
     </g>
    </g>
    <g id="text_19">
     <!-- $w_2$ -->
     <g style="fill: #696d65" transform="translate(20.3955 230.179416) rotate(-90) scale(0.122 -0.122)">
      <defs>
       <path id="STIXGeneral-Regular-32" d="M 3034 877 
L 2688 0 
L 186 0 
L 186 77 
L 1325 1286 
Q 1773 1754 1965 2144 
Q 2157 2534 2157 2950 
Q 2157 3379 1920 3616 
Q 1683 3853 1267 3853 
Q 922 3853 720 3673 
Q 518 3494 326 3021 
L 192 3053 
Q 301 3648 630 3987 
Q 960 4326 1523 4326 
Q 2054 4326 2380 4006 
Q 2707 3686 2707 3200 
Q 2707 2477 1888 1613 
L 832 486 
L 2330 486 
Q 2541 486 2665 569 
Q 2790 653 2944 915 
L 3034 877 
z
" transform="scale(0.015625)"/>
      </defs>
      <use xlink:href="#STIXGeneral-Italic-77" transform="translate(0 0.90625)"/>
      <use xlink:href="#STIXGeneral-Regular-32" transform="translate(66.699997 -12.321875) scale(0.7)"/>
     </g>
    </g>
   </g>
   <g id="QuadContourSet_1">
    <path d="M 154.911765 250.821655 
L 151.563482 250.38881 
L 146.541058 249.494099 
L 143.192776 248.713608 
L 139.844493 247.787704 
L 136.164878 246.575239 
L 132.594813 245.185977 
L 129.504646 243.796715 
L 126.451362 242.224956 
L 123.10308 240.233736 
L 120.192219 238.239667 
L 118.080656 236.595317 
L 115.254721 234.071881 
L 113.058232 231.767456 
L 111.38409 229.745517 
L 109.545864 227.125571 
L 107.96284 224.347047 
L 106.730352 221.568523 
L 105.820144 218.789999 
L 105.218179 216.011475 
L 104.914006 213.232951 
L 104.907624 210.454427 
L 105.199035 207.675903 
L 105.788237 204.897379 
L 106.68438 202.118856 
L 108.035808 199.087109 
L 109.709949 196.195378 
L 111.410745 193.783284 
L 113.777703 191.00476 
L 116.406514 188.415845 
L 118.242245 186.836974 
L 121.428938 184.447945 
L 124.163238 182.669188 
L 126.562681 181.279926 
L 129.799645 179.632365 
L 133.147928 178.153943 
L 136.49621 176.876256 
L 140.032508 175.722878 
L 144.866917 174.443422 
L 148.2152 173.744321 
L 153.237624 172.94361 
L 158.260048 172.451107 
L 163.282472 172.238701 
L 168.304896 172.306391 
L 173.327319 172.654177 
L 178.349743 173.29436 
L 183.372167 174.235408 
L 186.72045 175.050147 
L 190.068733 176.013479 
L 193.417015 177.143632 
L 196.854005 178.501402 
L 200.113581 179.993541 
L 203.461863 181.768253 
L 207.165991 184.05845 
L 210.158429 186.237545 
L 212.540788 188.226236 
L 215.180853 190.789087 
L 216.854994 192.675864 
L 218.766663 195.172546 
L 220.515717 197.95107 
L 221.909736 200.729594 
L 222.962033 203.508118 
L 223.707336 206.286641 
L 224.142096 209.065165 
L 224.282816 211.843689 
L 224.129494 214.622213 
L 223.682132 217.400737 
L 222.923139 220.179261 
L 221.857298 222.957785 
L 220.448971 225.736309 
L 218.684121 228.514833 
L 216.854994 230.890199 
L 215.180853 232.782182 
L 212.40757 235.461143 
L 210.158429 237.33147 
L 206.810146 239.748729 
L 203.461863 241.799462 
L 200.113581 243.572734 
L 196.570232 245.185977 
L 192.993493 246.575239 
L 188.394591 248.060462 
L 183.280753 249.353763 
L 178.349743 250.273052 
L 173.327319 250.915515 
L 168.304896 251.262258 
L 163.282472 251.329744 
L 158.260048 251.117976 
L 154.911765 250.821655 
L 154.911765 250.821655 
" clip-path="url(#p11051c2a17)" style="fill: none; stroke: #315f8c; stroke-opacity: 0.45; stroke-width: 1.5"/>
    <path d="M 146.541058 273.180925 
L 144.974979 272.971217 
L 144.866917 272.956414 
L 143.192776 272.706747 
L 141.518634 272.436741 
L 139.844493 272.146395 
L 138.170352 271.835709 
L 136.887 271.581955 
L 136.49621 271.502868 
L 134.822069 271.143245 
L 133.147928 270.762804 
L 131.473786 270.361545 
L 130.804042 270.192693 
L 129.799645 269.933374 
L 128.125504 269.479819 
L 126.451362 269.004945 
L 125.771456 268.803431 
L 124.777221 268.501485 
L 123.10308 267.97121 
L 121.428938 267.41909 
L 121.414585 267.414169 
L 119.754797 266.830735 
L 118.080656 266.219859 
L 117.565275 266.024907 
L 116.406514 265.575213 
L 114.732373 264.902531 
L 114.090096 264.635645 
L 113.058232 264.195451 
L 111.38409 263.457672 
L 110.919497 263.246383 
L 109.709949 262.681249 
L 108.035808 261.874809 
L 108.000159 261.857121 
L 106.361667 261.02126 
L 105.307618 260.467859 
L 104.687525 260.13287 
L 103.013384 259.202822 
L 102.795771 259.078597 
L 101.339243 258.222346 
L 100.45625 257.689335 
L 99.665101 257.197089 
L 98.260105 256.300073 
L 97.99096 256.12279 
L 96.316819 254.991976 
L 96.199566 254.910811 
L 94.642677 253.7978 
L 94.265396 253.521549 
L 92.968536 252.539827 
L 92.442614 252.132287 
L 91.294395 251.211352 
L 90.723674 250.743025 
L 89.620253 249.804696 
L 89.101695 249.353763 
L 87.946112 248.311022 
L 87.57039 247.964501 
L 86.271971 246.720112 
L 86.124005 246.575239 
L 84.760637 245.185977 
L 84.597829 245.013031 
L 83.476537 243.796715 
L 82.923688 243.170412 
L 82.263877 242.407453 
L 81.249547 241.180106 
L 81.118395 241.018191 
L 80.045324 239.628929 
L 79.575405 238.989413 
L 79.035233 238.239667 
L 78.085524 236.850405 
L 77.901264 236.5655 
L 77.200694 235.461143 
L 76.369627 234.071881 
L 76.227123 233.818336 
L 75.600779 232.682619 
L 74.883899 231.293357 
L 74.552981 230.604708 
L 74.222517 229.904095 
L 73.615619 228.514833 
L 73.057106 227.125571 
L 72.87884 226.640089 
L 72.552983 225.736309 
L 72.099595 224.347047 
L 71.693719 222.957785 
L 71.335352 221.568523 
L 71.204699 220.984611 
L 71.027699 220.179261 
L 70.769034 218.789999 
L 70.557035 217.400737 
L 70.391703 216.011475 
L 70.273037 214.622213 
L 70.201037 213.232951 
L 70.175704 211.843689 
L 70.197037 210.454427 
L 70.265037 209.065165 
L 70.379703 207.675903 
L 70.541035 206.286641 
L 70.749034 204.897379 
L 71.003699 203.508118 
L 71.204699 202.581428 
L 71.306846 202.118856 
L 71.66114 200.729594 
L 72.062944 199.340332 
L 72.512259 197.95107 
L 72.87884 196.926008 
L 73.011485 196.561808 
L 73.56585 195.172546 
L 74.168602 193.783284 
L 74.552981 192.963174 
L 74.824746 192.394022 
L 75.5374 191.00476 
L 76.227123 189.747187 
L 76.30073 189.615498 
L 77.127491 188.226236 
L 77.901264 187.000495 
L 78.006503 186.836974 
L 78.951822 185.447712 
L 79.575405 184.578381 
L 79.955777 184.05845 
L 81.024371 182.669188 
L 81.249547 182.390083 
L 82.163377 181.279926 
L 82.923688 180.397399 
L 83.369292 179.890664 
L 84.597829 178.553145 
L 84.646361 178.501402 
L 86.004968 177.11214 
L 86.271971 176.849838 
L 87.443916 175.722878 
L 87.946112 175.258212 
L 88.967456 174.333616 
L 89.620253 173.764178 
L 90.581319 172.944354 
L 91.294395 172.35745 
L 92.291768 171.555092 
L 92.968536 171.029135 
L 94.105657 170.16583 
L 94.642677 169.771509 
L 96.030504 168.776568 
L 96.316819 168.577832 
L 97.99096 167.443937 
L 98.076702 167.387306 
L 99.665101 166.370519 
L 100.262174 165.998044 
L 101.339243 165.346215 
L 102.590449 164.608782 
L 103.013384 164.366748 
L 104.687525 163.434386 
L 105.084274 163.21952 
L 106.361667 162.547237 
L 107.763732 161.830258 
L 108.035808 161.694942 
L 109.709949 160.886606 
L 110.661444 160.440996 
L 111.38409 160.111598 
L 113.058232 159.37213 
L 113.807561 159.051734 
L 114.732373 158.666588 
L 116.406514 157.992408 
L 117.254794 157.662472 
L 118.080656 157.349397 
L 119.754797 156.737193 
L 121.071903 156.27321 
L 121.428938 156.150545 
L 123.10308 155.597255 
L 124.777221 155.065856 
L 125.374934 154.883948 
L 126.451362 154.56425 
L 128.125504 154.088395 
L 129.799645 153.633902 
L 130.337746 153.494686 
L 131.473786 153.207695 
L 133.147928 152.805627 
L 134.822069 152.424418 
L 136.304075 152.105424 
L 136.49621 152.06502 
L 138.170352 151.733342 
L 139.844493 151.422044 
L 141.518634 151.131125 
L 143.192776 150.860586 
L 144.159304 150.716162 
L 144.866917 150.612805 
L 146.541058 150.388194 
L 148.2152 150.183504 
L 149.889341 149.998735 
L 151.563482 149.833887 
L 153.237624 149.688961 
L 154.911765 149.563955 
L 156.585906 149.458871 
L 158.260048 149.373708 
L 159.461159 149.3269 
L 159.934189 149.308872 
L 161.60833 149.264548 
L 163.282472 149.239707 
L 164.956613 149.234349 
L 166.630754 149.248475 
L 168.304896 149.282083 
L 169.71815 149.3269 
L 169.979037 149.33536 
L 171.653178 149.409566 
L 173.327319 149.503694 
L 175.001461 149.617742 
L 176.675602 149.751712 
L 178.349743 149.905603 
L 180.023885 150.079416 
L 181.698026 150.273149 
L 183.372167 150.486804 
L 185.016081 150.716162 
L 185.046309 150.720477 
L 186.72045 150.979807 
L 188.394591 151.259517 
L 190.068733 151.559606 
L 191.742874 151.880075 
L 192.849718 152.105424 
L 193.417015 152.223644 
L 195.091157 152.59338 
L 196.765298 152.983976 
L 198.439439 153.395432 
L 198.823803 153.494686 
L 200.113581 153.83578 
L 201.787722 154.299886 
L 203.461863 154.785355 
L 203.787533 154.883948 
L 205.136005 155.302277 
L 206.810146 155.843526 
L 208.087539 156.27321 
L 208.484287 156.410049 
L 210.158429 157.009907 
L 211.83257 157.632211 
L 211.911145 157.662472 
L 213.506711 158.292939 
L 215.180853 158.977483 
L 215.356533 159.051734 
L 216.854994 159.701964 
L 218.504416 160.440996 
L 218.529135 160.452376 
L 220.203277 161.247351 
L 221.394424 161.830258 
L 221.877418 162.073285 
L 223.551559 162.940636 
L 224.074787 163.21952 
L 225.225701 163.850768 
L 226.570105 164.608782 
L 226.899842 164.800254 
L 228.573983 165.798866 
L 228.899276 165.998044 
L 230.248125 166.849395 
L 231.078916 167.387306 
L 231.922266 167.950706 
L 233.128138 168.776568 
L 233.596407 169.1078 
L 235.056319 170.16583 
L 235.270548 170.326358 
L 236.871957 171.555092 
L 236.94469 171.61286 
L 238.582774 172.944354 
L 238.618831 172.97473 
L 240.195802 174.333616 
L 240.292972 174.420513 
L 241.717456 175.722878 
L 241.967114 175.960099 
L 243.153603 177.11214 
L 243.641255 177.604994 
L 244.509617 178.501402 
L 245.315396 179.368666 
L 245.790434 179.890664 
L 246.989538 181.266981 
L 247.000589 181.279926 
L 248.133816 182.669188 
L 248.663679 183.350519 
L 249.203375 184.05845 
L 250.210717 185.447712 
L 250.33782 185.632502 
L 251.150269 186.836974 
L 252.011962 188.187628 
L 252.036126 188.226236 
L 252.855831 189.615498 
L 253.625727 191.00476 
L 253.686103 191.121242 
L 254.333536 192.394022 
L 254.991339 193.783284 
L 255.360244 194.624944 
L 255.595876 195.172546 
L 256.145683 196.561808 
L 256.647501 197.95107 
L 257.034386 199.135396 
L 257.100131 199.340332 
L 257.49869 200.729594 
L 257.850123 202.118856 
L 258.154429 203.508118 
L 258.411607 204.897379 
L 258.621659 206.286641 
L 258.708527 207.027366 
L 258.783243 207.675903 
L 258.896999 209.065165 
L 258.96446 210.454427 
L 258.985624 211.843689 
L 258.960491 213.232951 
L 258.889063 214.622213 
L 258.771338 216.011475 
L 258.708527 216.543489 
L 258.605501 217.400737 
L 258.39141 218.789999 
L 258.130192 220.179261 
L 257.821847 221.568523 
L 257.466375 222.957785 
L 257.063776 224.347047 
L 257.034386 224.437837 
L 256.606369 225.736309 
L 256.100437 227.125571 
L 255.546516 228.514833 
L 255.360244 228.944767 
L 254.936872 229.904095 
L 254.274878 231.293357 
L 253.686103 232.444 
L 253.561688 232.682619 
L 252.787522 234.071881 
L 252.011962 235.379515 
L 251.962612 235.461143 
L 251.071936 236.850405 
L 250.33782 237.933715 
L 250.126402 238.239667 
L 249.114623 239.628929 
L 248.663679 240.217973 
L 248.038751 241.018191 
L 246.989538 242.299341 
L 246.899181 242.407453 
L 245.684179 243.796715 
L 245.315396 244.200479 
L 244.39642 245.185977 
L 243.641255 245.962808 
L 243.033165 246.575239 
L 241.967114 247.606865 
L 241.589461 247.964501 
L 240.292972 249.146016 
L 240.059912 249.353763 
L 238.618831 250.591688 
L 238.438629 250.743025 
L 236.94469 251.953706 
L 236.719169 252.132287 
L 235.270548 253.240565 
L 234.894474 253.521549 
L 233.596407 254.459647 
L 232.956792 254.910811 
L 231.922266 255.617399 
L 230.897591 256.300073 
L 230.248125 256.719474 
L 228.707455 257.689335 
L 228.573983 257.770851 
L 226.899842 258.766912 
L 226.361709 259.078597 
L 225.225701 259.717521 
L 223.854256 260.467859 
L 223.551559 260.628809 
L 221.877418 261.494069 
L 221.154141 261.857121 
L 220.203277 262.32135 
L 218.529135 263.114461 
L 218.241889 263.246383 
L 216.854994 263.866369 
L 215.180853 264.591174 
L 215.07468 264.635645 
L 213.506711 265.27535 
L 211.83257 265.935394 
L 211.597339 266.024907 
L 210.158429 266.558612 
L 208.484287 267.15717 
L 207.737531 267.414169 
L 206.810146 267.725459 
L 205.136005 268.265564 
L 203.461863 268.783825 
L 203.395745 268.803431 
L 201.787722 269.268764 
L 200.113581 269.731912 
L 198.439439 270.173742 
L 198.363992 270.192693 
L 196.765298 270.584814 
L 195.091157 270.974622 
L 193.417015 271.343614 
L 192.270989 271.581955 
L 191.742874 271.689265 
L 190.068733 272.009103 
L 188.394591 272.308602 
L 186.72045 272.587761 
L 185.046309 272.846581 
L 184.171361 272.971217 
L 183.372167 273.082505 
L 181.698026 273.295749 
L 180.023885 273.48911 
L 178.349743 273.662587 
L 176.675602 273.816182 
L 175.001461 273.949894 
L 173.327319 274.063724 
L 171.653178 274.15767 
L 169.979037 274.231734 
L 168.304896 274.285914 
L 166.630754 274.320212 
L 164.956613 274.334627 
L 163.282472 274.32916 
L 161.60833 274.303809 
L 159.934189 274.258576 
L 158.260048 274.193459 
L 156.585906 274.10846 
L 154.911765 274.003578 
L 153.237624 273.878813 
L 151.563482 273.734166 
L 149.889341 273.569635 
L 148.2152 273.385222 
L 146.541058 273.180925 
z
" clip-path="url(#p11051c2a17)" style="fill: none; stroke: #315f8c; stroke-opacity: 0.45; stroke-width: 1.5"/>
    <path d="M 44.418437 153.109166 
L 48.841559 149.3269 
L 52.789144 146.246671 
L 57.811568 142.667925 
L 62.535889 139.602066 
L 67.207364 136.823542 
L 72.303374 134.045018 
L 77.901264 131.264482 
L 84.597829 128.278988 
L 91.294395 125.622603 
L 97.99096 123.26995 
L 104.687525 121.193976 
L 111.38409 119.377898 
L 118.080656 117.805132 
L 124.777221 116.465014 
L 131.473786 115.347498 
L 138.170352 114.443103 
L 144.866917 113.750502 
L 152.532506 113.206089 
L 158.260048 112.971978 
L 164.956613 112.88398 
L 171.653178 112.994287 
L 178.349743 113.304271 
L 185.046309 113.818379 
L 192.234565 114.595351 
L 198.439439 115.462255 
L 205.136005 116.604735 
L 211.83257 117.970556 
L 218.529135 119.569799 
L 225.658639 121.541661 
L 231.922266 123.521167 
L 238.618831 125.906521 
L 245.315396 128.597214 
L 251.258892 131.266494 
L 257.034386 134.136843 
L 262.05681 136.881647 
L 267.079234 139.886725 
L 272.101658 143.183652 
L 276.773244 146.548376 
L 280.472364 149.451432 
L 283.820647 152.288863 
L 288.119301 156.27321 
L 290.8626 159.051734 
L 294.613743 163.21952 
L 297.964216 167.387306 
L 300.943436 171.555092 
L 303.57399 175.722878 
L 305.875923 179.890664 
L 307.864046 184.05845 
L 309.553091 188.226236 
L 310.953287 192.394022 
L 312.072045 196.561808 
L 312.91416 200.729594 
L 313.48753 204.897379 
L 313.794512 209.065165 
L 313.835105 213.232951 
L 313.609308 217.400737 
L 313.117123 221.568523 
L 312.281049 226.081333 
L 311.322785 229.904095 
L 310.009907 234.071881 
L 308.410217 238.239667 
L 306.513559 242.407453 
L 304.309292 246.575239 
L 301.780756 250.743025 
L 298.887919 254.944201 
L 295.539636 259.245086 
L 292.051633 263.246383 
L 287.997172 267.414169 
L 283.820647 271.278526 
L 280.172694 274.360479 
L 275.44994 278.003771 
L 270.746882 281.306788 
L 266.430505 284.085312 
L 261.74452 286.863836 
L 256.628143 289.64236 
L 251.006486 292.420884 
L 245.315396 294.970328 
L 240.292972 297.017549 
L 233.596407 299.479461 
L 226.899842 301.652183 
L 220.203277 303.563174 
L 213.506711 305.221045 
L 206.810146 306.644075 
L 200.113581 307.842394 
L 193.417015 308.821727 
L 186.72045 309.590135 
L 180.023885 310.153837 
L 173.327319 310.516171 
L 166.630754 310.675862 
L 159.934189 310.637486 
L 153.237624 310.399907 
L 146.541058 309.95924 
L 139.844493 309.317699 
L 133.147928 308.466416 
L 126.451362 307.403826 
L 119.754797 306.120545 
L 113.058232 304.606623 
L 106.361667 302.851503 
L 99.393229 300.756456 
L 92.968536 298.559407 
L 87.773265 296.58867 
L 81.181256 293.810146 
L 75.274196 291.031622 
L 69.915865 288.253098 
L 65.022946 285.474574 
L 60.528178 282.69605 
L 56.137427 279.747344 
L 51.115003 276.046246 
L 47.305854 272.971217 
L 44.418437 270.459876 
L 44.418437 270.459876 
" clip-path="url(#p11051c2a17)" style="fill: none; stroke: #315f8c; stroke-opacity: 0.45; stroke-width: 1.5"/>
    <path d="M 44.418437 96.786306 
L 51.306681 93.756421 
L 58.189308 90.977897 
L 65.726162 88.199373 
L 72.87884 85.802435 
L 79.575405 83.757047 
L 87.946112 81.45775 
L 94.642677 79.814353 
L 103.013384 77.99741 
L 111.38409 76.430686 
L 119.754797 75.106556 
L 128.125504 74.017704 
L 136.49621 73.159511 
L 144.866917 72.527853 
L 153.237624 72.119008 
L 161.60833 71.930564 
L 169.979037 71.962522 
L 178.349743 72.214882 
L 186.72045 72.687645 
L 195.091157 73.385468 
L 203.461863 74.308235 
L 211.83257 75.465239 
L 220.203277 76.858933 
L 228.573983 78.496896 
L 236.94469 80.391631 
L 245.315396 82.548959 
L 252.011962 84.477171 
L 259.371005 86.810111 
L 267.079234 89.509459 
L 273.775799 92.082184 
L 280.472364 94.878738 
L 287.187527 97.924207 
L 293.865495 101.216492 
L 300.689548 104.870517 
L 307.258625 108.700231 
L 312.281049 111.852317 
L 318.390009 115.984613 
L 322.325897 118.835657 
L 327.612523 122.930923 
L 332.589619 127.098709 
L 337.393169 131.454592 
L 341.454533 135.43428 
L 345.763876 140.007822 
L 349.112159 143.853477 
L 352.460441 148.009603 
L 355.808724 152.542014 
L 358.342772 156.27321 
L 360.944474 160.440996 
L 363.310515 164.608782 
L 365.853572 169.608308 
L 367.527713 173.289622 
L 369.201854 177.399039 
L 370.875996 182.116122 
L 371.904517 185.447712 
L 373.012402 189.615498 
L 373.92561 193.783284 
L 374.645938 197.95107 
L 375.175898 202.118856 
L 375.517865 206.286641 
L 375.67184 210.454427 
L 375.637822 214.622213 
L 375.415812 218.789999 
L 375.005809 222.957785 
L 374.224278 228.183103 
L 373.616996 231.293357 
L 372.550137 235.7811 
L 371.455138 239.628929 
L 370.076892 243.796715 
L 368.495584 247.964501 
L 366.706168 252.132287 
L 364.70343 256.300073 
L 362.48178 260.467859 
L 360.02943 264.635645 
L 357.343724 268.803431 
L 354.134583 273.343219 
L 350.7863 277.676176 
L 347.438017 281.672054 
L 344.007169 285.474574 
L 339.950295 289.64236 
L 335.569098 293.810146 
L 330.696604 298.093371 
L 325.67418 302.176751 
L 320.170108 306.313504 
L 314.159629 310.48129 
L 308.932767 313.839189 
L 302.928619 317.4276 
L 297.213777 320.597197 
L 290.517212 324.035856 
L 283.820647 327.202919 
L 277.124082 330.117249 
L 270.427516 332.80003 
L 263.093298 335.488006 
L 255.360244 338.058823 
L 248.663679 340.077504 
L 240.292972 342.347085 
L 233.596407 343.966156 
L 225.225701 345.755294 
L 216.854994 347.295003 
L 208.484287 348.592877 
L 200.113581 349.656204 
L 191.742874 350.489191 
L 183.372167 351.096471 
L 175.001461 351.480745 
L 166.630754 351.644804 
L 158.260048 351.58865 
L 149.889341 351.312281 
L 140.908716 350.769888 
L 133.147928 350.09216 
L 124.777221 349.143351 
L 116.406514 347.962345 
L 108.035808 346.541924 
L 99.665101 344.874571 
L 91.294395 342.952452 
L 82.923688 340.764394 
L 74.458435 338.26653 
L 66.182275 335.529375 
L 59.485709 333.086837 
L 52.789144 330.429397 
L 46.092579 327.541621 
L 44.418437 326.781595 
L 44.418437 326.781595 
" clip-path="url(#p11051c2a17)" style="fill: none; stroke: #315f8c; stroke-opacity: 0.45; stroke-width: 1.5"/>
   </g>
   <g id="QuadContourSet_2">
    <path d="M 406.032964 353.596615 
L 402.684681 353.157581 
L 399.336398 352.513053 
L 395.988116 351.650751 
L 392.639833 350.563275 
L 389.29155 349.231028 
L 385.943268 347.632071 
L 382.594985 345.741763 
L 379.246702 343.522774 
L 375.89842 340.918458 
L 372.550137 337.841476 
L 370.334325 335.488006 
L 368.032266 332.709482 
L 365.853572 329.68059 
L 364.17943 326.998735 
L 362.505289 323.886842 
L 360.847933 320.206124 
L 359.823726 317.4276 
L 358.964156 314.649076 
L 357.992872 310.48129 
L 357.482865 307.267227 
L 357.148923 303.53498 
L 357.09652 299.367194 
L 357.377595 295.199408 
L 357.75865 292.420884 
L 358.295886 289.64236 
L 359.157006 286.2734 
L 359.850783 284.085312 
L 360.880559 281.306788 
L 362.505289 277.706038 
L 364.17943 274.59511 
L 365.853572 271.912835 
L 367.527713 269.545051 
L 369.202427 267.414169 
L 371.687946 264.635645 
L 374.545241 261.857121 
L 377.886868 259.078597 
L 380.920844 256.916669 
L 384.269126 254.862917 
L 387.617409 253.127359 
L 390.965692 251.66577 
L 394.313974 250.455652 
L 398.179916 249.353763 
L 401.01054 248.731406 
L 404.358822 248.189808 
L 407.707105 247.855023 
L 411.055388 247.724689 
L 414.40367 247.792959 
L 417.751953 248.062373 
L 421.100236 248.540254 
L 424.976945 249.353763 
L 427.796801 250.128343 
L 431.145083 251.261945 
L 434.493366 252.642584 
L 437.841649 254.292365 
L 441.290047 256.300073 
L 444.538214 258.528403 
L 447.005464 260.467859 
L 449.560638 262.734047 
L 451.473644 264.635645 
L 453.946906 267.414169 
L 456.257203 270.397992 
L 457.993423 272.971217 
L 459.633931 275.749741 
L 461.279627 279.015888 
L 462.815537 282.69605 
L 463.757811 285.474574 
L 464.62791 288.621617 
L 465.395581 292.420884 
L 465.775467 295.199408 
L 466.004262 297.977932 
L 466.081966 300.756456 
L 466.008579 303.53498 
L 465.784101 306.313504 
L 465.408532 309.092028 
L 464.62791 312.97315 
L 464.190532 314.649076 
L 462.953769 318.517284 
L 462.30289 320.206124 
L 461.090673 322.984648 
L 459.605486 325.891892 
L 457.931345 328.716925 
L 456.167865 331.32022 
L 454.013106 334.098744 
L 451.234779 337.204633 
L 448.69613 339.655792 
L 446.212355 341.774692 
L 443.482126 343.823578 
L 441.189931 345.355149 
L 437.841649 347.299871 
L 434.493366 348.950086 
L 431.145083 350.330701 
L 427.796801 351.463893 
L 424.448518 352.36947 
L 421.100236 353.052287 
L 417.571753 353.548412 
L 414.40367 353.798621 
L 411.055388 353.866993 
L 407.707105 353.736466 
L 406.032964 353.596615 
L 406.032964 353.596615 
" clip-path="url(#p11051c2a17)" style="fill: none; stroke: #b94a3b; stroke-opacity: 0.45; stroke-width: 1.5"/>
    <path d="M 402.684681 384.26824 
L 401.26375 384.112175 
L 401.01054 384.083897 
L 399.336398 383.864763 
L 397.662257 383.613464 
L 395.988116 383.329998 
L 394.313974 383.014365 
L 392.911059 382.722913 
L 392.639833 382.665603 
L 390.965692 382.279139 
L 389.29155 381.859959 
L 387.617409 381.408063 
L 387.360346 381.333651 
L 385.943268 380.916313 
L 384.269126 380.389982 
L 382.936098 379.944389 
L 382.594985 379.828346 
L 380.920844 379.224945 
L 379.246702 378.587668 
L 379.165532 378.555127 
L 377.572561 377.905004 
L 375.89842 377.187267 
L 375.850789 377.165865 
L 374.224278 376.421628 
L 372.876391 375.776603 
L 372.550137 375.617557 
L 370.875996 374.765647 
L 370.162525 374.387341 
L 369.201854 373.868254 
L 367.653818 372.998079 
L 367.527713 372.925816 
L 365.853572 371.929307 
L 365.334506 371.608817 
L 364.17943 370.881501 
L 363.164657 370.219555 
L 362.505289 369.780749 
L 361.125001 368.830293 
L 360.831148 368.623774 
L 359.202861 367.441031 
L 359.157006 367.407022 
L 357.482865 366.125059 
L 357.390072 366.051769 
L 355.808724 364.775921 
L 355.672311 364.662507 
L 354.134583 363.355926 
L 354.04007 363.273245 
L 352.486926 361.883983 
L 352.460441 361.859748 
L 351.01036 360.494721 
L 350.7863 360.278837 
L 349.601565 359.105459 
L 349.112159 358.609057 
L 348.255163 357.716197 
L 347.438017 356.84382 
L 346.966332 356.326935 
L 345.763876 354.97587 
L 345.730734 354.937674 
L 344.555878 353.548412 
L 344.089735 352.982489 
L 343.428177 352.15915 
L 342.415593 350.864389 
L 342.343455 350.769888 
L 341.312028 349.380626 
L 340.741452 348.589805 
L 340.319763 347.991364 
L 339.369225 346.602102 
L 339.067311 346.147248 
L 338.461242 345.21284 
L 337.5879 343.823578 
L 337.393169 343.503646 
L 336.756832 342.434316 
L 335.957241 341.045054 
L 335.719028 340.61663 
L 335.196442 339.655792 
L 334.467382 338.26653 
L 334.044887 337.431028 
L 333.770843 336.877268 
L 333.109301 335.488006 
L 332.473731 334.098744 
L 332.370745 333.864041 
L 331.874729 332.709482 
L 331.303309 331.32022 
L 330.757318 329.930958 
L 330.696604 329.768926 
L 330.246176 328.541696 
L 329.761187 327.152434 
L 329.301104 325.763172 
L 329.022463 324.873629 
L 328.869072 324.37391 
L 328.467042 322.984648 
L 328.089419 321.595386 
L 327.736204 320.206124 
L 327.407397 318.816862 
L 327.348321 318.547243 
L 327.107826 317.4276 
L 326.833344 316.038338 
L 326.58279 314.649076 
L 326.356164 313.259814 
L 326.153465 311.870552 
L 325.974693 310.48129 
L 325.819848 309.092028 
L 325.688931 307.702766 
L 325.67418 307.511219 
L 325.583722 306.313504 
L 325.502263 304.924242 
L 325.444269 303.53498 
L 325.409741 302.145718 
L 325.398679 300.756456 
L 325.411082 299.367194 
L 325.446951 297.977932 
L 325.506286 296.58867 
L 325.589086 295.199408 
L 325.67418 294.086927 
L 325.695768 293.810146 
L 325.828052 292.420884 
L 325.984264 291.031622 
L 326.164403 289.64236 
L 326.368469 288.253098 
L 326.596463 286.863836 
L 326.848385 285.474574 
L 327.124233 284.085312 
L 327.348321 283.046814 
L 327.425529 282.69605 
L 327.755731 281.306788 
L 328.11034 279.917527 
L 328.489358 278.528265 
L 328.892783 277.139003 
L 329.022463 276.717905 
L 329.326724 275.749741 
L 329.788229 274.360479 
L 330.274642 272.971217 
L 330.696604 271.824745 
L 330.787832 271.581955 
L 331.335277 270.192693 
L 331.908149 268.803431 
L 332.370745 267.729278 
L 332.50935 267.414169 
L 333.146404 266.024907 
L 333.80943 264.635645 
L 334.044887 264.160881 
L 334.508328 263.246383 
L 335.238904 261.857121 
L 335.719028 260.976122 
L 336.002201 260.467859 
L 336.803342 259.078597 
L 337.393169 258.08928 
L 337.637057 257.689335 
L 338.511985 256.300073 
L 339.067311 255.445402 
L 339.422777 254.910811 
L 340.374938 253.521549 
L 340.741452 253.002269 
L 341.370183 252.132287 
L 342.403272 250.743025 
L 342.415593 250.726909 
L 343.491161 249.353763 
L 344.089735 248.609945 
L 344.62219 247.964501 
L 345.763876 246.616465 
L 345.799691 246.575239 
L 347.037933 245.185977 
L 347.438017 244.748172 
L 348.330494 243.796715 
L 349.112159 242.98346 
L 349.68083 242.407453 
L 350.7863 241.314051 
L 351.093778 241.018191 
L 352.460441 239.733378 
L 352.574736 239.628929 
L 354.129876 238.239667 
L 354.134583 238.235555 
L 355.766827 236.850405 
L 355.808724 236.815615 
L 357.482865 235.466559 
L 357.489798 235.461143 
L 359.157006 234.186023 
L 359.311089 234.071881 
L 360.831148 232.969053 
L 361.23919 232.682619 
L 362.505289 231.811799 
L 363.285221 231.293357 
L 364.17943 230.710716 
L 365.461903 229.904095 
L 365.853572 229.662533 
L 367.527713 228.667129 
L 367.793777 228.514833 
L 369.201854 227.724193 
L 370.310925 227.125571 
L 370.875996 226.826272 
L 372.550137 225.975272 
L 373.040846 225.736309 
L 374.224278 225.170578 
L 375.89842 224.405348 
L 376.032097 224.347047 
L 377.572561 223.6873 
L 379.246702 223.004752 
L 379.368026 222.957785 
L 380.920844 222.367289 
L 382.594985 221.764498 
L 383.171641 221.568523 
L 384.269126 221.20203 
L 385.943268 220.676222 
L 387.617409 220.183667 
L 387.633467 220.179261 
L 389.29155 219.732136 
L 390.965692 219.313366 
L 392.639833 218.927279 
L 393.29016 218.789999 
L 394.313974 218.577508 
L 395.988116 218.262179 
L 397.662257 217.978985 
L 399.336398 217.727927 
L 401.01054 217.509004 
L 401.98091 217.400737 
L 402.684681 217.323513 
L 404.358822 217.171416 
L 406.032964 217.050924 
L 407.707105 216.962036 
L 409.381246 216.904753 
L 411.055388 216.879074 
L 412.729529 216.885 
L 414.40367 216.92253 
L 416.077812 216.991665 
L 417.751953 217.092405 
L 419.426094 217.224749 
L 421.100236 217.388698 
L 421.203306 217.400737 
L 422.774377 217.587334 
L 424.448518 217.818308 
L 426.122659 218.081417 
L 427.796801 218.376662 
L 429.470942 218.704042 
L 429.871216 218.789999 
L 431.145083 219.068232 
L 432.819225 219.466574 
L 434.493366 219.897602 
L 435.510243 220.179261 
L 436.167507 220.364478 
L 437.841649 220.869503 
L 439.51579 221.407781 
L 439.98664 221.568523 
L 441.189931 221.986579 
L 442.864073 222.602061 
L 443.781233 222.957785 
L 444.538214 223.256671 
L 446.212355 223.952137 
L 447.118122 224.347047 
L 447.886497 224.688198 
L 449.560638 225.466583 
L 450.115742 225.736309 
L 451.234779 226.290209 
L 452.852679 227.125571 
L 452.908921 227.155163 
L 454.583062 228.072439 
L 455.359654 228.514833 
L 456.257203 229.036055 
L 457.696998 229.904095 
L 457.931345 230.048177 
L 459.605486 231.115338 
L 459.875191 231.293357 
L 461.279627 232.239074 
L 461.916493 232.682619 
L 462.953769 233.419915 
L 463.841586 234.071881 
L 464.62791 234.661465 
L 465.661301 235.461143 
L 466.302051 235.967637 
L 467.385163 236.850405 
L 467.976193 237.342691 
L 469.021585 238.239667 
L 469.650334 238.791267 
L 470.57802 239.628929 
L 471.324475 240.318432 
L 472.0611 241.018191 
L 472.998617 241.929729 
L 473.476743 242.407453 
L 474.672758 243.631237 
L 474.830246 243.796715 
L 476.120591 245.185977 
L 476.346899 245.435798 
L 477.352759 246.575239 
L 478.021041 247.351919 
L 478.53501 247.964501 
L 479.670379 249.353763 
L 479.695182 249.384943 
L 480.749266 250.743025 
L 481.369323 251.564393 
L 481.787869 252.132287 
L 482.782955 253.521549 
L 483.043465 253.896099 
L 483.732881 254.910811 
L 484.648622 256.300073 
L 484.717606 256.408047 
L 485.517686 257.689335 
L 486.357674 259.078597 
L 486.391747 259.136859 
L 487.152921 260.467859 
L 487.920508 261.857121 
L 488.065888 262.129804 
L 488.648301 263.246383 
L 489.346622 264.635645 
L 489.74003 265.44896 
L 490.012716 266.024907 
L 490.644708 267.414169 
L 491.250934 268.803431 
L 491.414171 269.19412 
L 491.822736 270.192693 
L 492.36592 271.581955 
L 492.883872 272.971217 
L 493.088312 273.547648 
L 493.370734 274.360479 
L 493.828721 275.749741 
L 494.26199 277.139003 
L 494.670541 278.528265 
L 494.762454 278.860937 
L 495.048558 279.917527 
L 495.400518 281.306788 
L 495.728252 282.69605 
L 496.031762 284.085312 
L 496.311046 285.474574 
L 496.436595 286.158422 
L 496.563574 286.863836 
L 496.789898 288.253098 
L 496.992469 289.64236 
L 497.171289 291.031622 
L 497.326356 292.420884 
L 497.457671 293.810146 
L 497.565234 295.199408 
L 497.649045 296.58867 
L 497.709104 297.977932 
L 497.745411 299.367194 
L 497.757965 300.756456 
L 497.746768 302.145718 
L 497.711819 303.53498 
L 497.653117 304.924242 
L 497.570663 306.313504 
L 497.464457 307.702766 
L 497.334499 309.092028 
L 497.180789 310.48129 
L 497.003327 311.870552 
L 496.802113 313.259814 
L 496.577147 314.649076 
L 496.436595 315.434153 
L 496.326273 316.038338 
L 496.048373 317.4276 
L 495.746248 318.816862 
L 495.419898 320.206124 
L 495.069322 321.595386 
L 494.762454 322.732845 
L 494.69314 322.984648 
L 494.286001 324.37391 
L 493.854145 325.763172 
L 493.39757 327.152434 
L 493.088312 328.045114 
L 492.912708 328.541696 
L 492.396197 329.930958 
L 491.854455 331.32022 
L 491.414171 332.399053 
L 491.284797 332.709482 
L 490.680043 334.098744 
L 490.049524 335.488006 
L 489.74003 336.143161 
L 489.385731 336.877268 
L 488.688914 338.26653 
L 488.065888 339.463455 
L 487.963558 339.655792 
L 487.197508 341.045054 
L 486.404552 342.434316 
L 486.391747 342.456014 
L 485.566427 343.823578 
L 484.717606 345.18539 
L 484.7001 345.21284 
L 483.785967 346.602102 
L 483.043465 347.696814 
L 482.838947 347.991364 
L 481.845507 349.380626 
L 481.369323 350.027766 
L 480.80999 350.769888 
L 479.733393 352.15915 
L 479.695182 352.207142 
L 478.600704 353.548412 
L 478.021041 354.240316 
L 477.421901 354.937674 
L 476.346899 356.157203 
L 476.193364 356.326935 
L 474.904837 357.716197 
L 474.672758 357.960387 
L 473.555208 359.105459 
L 472.998617 359.662331 
L 472.143654 360.494721 
L 471.324475 361.273926 
L 470.664894 361.883983 
L 469.650334 362.801267 
L 469.113033 363.273245 
L 467.976193 364.249912 
L 467.48146 364.662507 
L 466.302051 365.624942 
L 465.762748 366.051769 
L 464.62791 366.931008 
L 463.948513 367.441031 
L 462.953769 368.17238 
L 462.029264 368.830293 
L 461.279627 369.352981 
L 459.994206 370.219555 
L 459.605486 370.476421 
L 457.931345 371.54479 
L 457.827324 371.608817 
L 456.257203 372.556481 
L 455.497609 372.998079 
L 454.583062 373.519629 
L 453.001102 374.387341 
L 452.908921 374.436958 
L 451.234779 375.302283 
L 450.277538 375.776603 
L 449.560638 376.125311 
L 447.886497 376.904513 
L 447.29847 377.165865 
L 446.212355 377.639894 
L 444.538214 378.336077 
L 443.984001 378.555127 
L 442.864073 378.989936 
L 441.189931 379.60604 
L 440.217044 379.944389 
L 439.51579 380.184026 
L 437.841649 380.722839 
L 436.167507 381.228367 
L 435.794264 381.333651 
L 434.493366 381.694332 
L 432.819225 382.125781 
L 431.145083 382.524513 
L 430.237609 382.722913 
L 429.470942 382.88771 
L 427.796801 383.215405 
L 426.122659 383.510933 
L 424.448518 383.774296 
L 422.774377 384.005491 
L 421.877002 384.112175 
L 421.100236 384.202994 
L 419.426094 384.367097 
L 417.751953 384.499566 
L 416.077812 384.600401 
L 414.40367 384.669601 
L 412.729529 384.707167 
L 411.055388 384.713099 
L 409.381246 384.687396 
L 407.707105 384.630058 
L 406.032964 384.541087 
L 404.358822 384.42048 
L 402.684681 384.26824 
z
" clip-path="url(#p11051c2a17)" style="fill: none; stroke: #b94a3b; stroke-opacity: 0.45; stroke-width: 1.5"/>
    <path d="M 387.213104 431.347082 
L 382.594985 430.449441 
L 377.572561 429.287221 
L 372.550137 427.926556 
L 367.527713 426.360867 
L 362.025948 424.400773 
L 357.482865 422.581748 
L 352.215769 420.232987 
L 346.652377 417.454463 
L 341.643276 414.675939 
L 337.077145 411.897415 
L 332.370745 408.766388 
L 327.348321 405.100509 
L 323.660541 402.172581 
L 318.828048 398.004795 
L 314.426436 393.837009 
L 310.606908 389.898986 
L 307.258625 386.161932 
L 303.910343 382.124375 
L 300.56206 377.737559 
L 297.213777 372.940479 
L 293.865495 367.637892 
L 291.365564 363.273245 
L 288.843071 358.436979 
L 286.546619 353.548412 
L 284.225239 347.991364 
L 282.195759 342.434316 
L 280.472364 336.962712 
L 279.314714 332.709482 
L 278.030383 327.152434 
L 276.997839 321.595386 
L 276.217227 316.038338 
L 275.677332 310.48129 
L 275.379033 304.924242 
L 275.321287 299.367194 
L 275.501953 293.810146 
L 275.924927 288.253098 
L 276.58862 282.69605 
L 277.497652 277.139003 
L 278.657126 271.581955 
L 280.076348 266.024907 
L 281.760531 260.467859 
L 283.720024 254.910811 
L 285.494788 250.470585 
L 287.859682 245.185977 
L 290.517212 239.889084 
L 292.978622 235.461143 
L 295.539636 231.232909 
L 298.887919 226.197933 
L 302.269045 221.568523 
L 305.588803 217.400737 
L 309.196737 213.232951 
L 313.122248 209.065165 
L 317.400584 204.897379 
L 322.091315 200.729594 
L 325.67418 197.794644 
L 330.696604 194.008792 
L 335.058224 191.00476 
L 339.43999 188.226236 
L 344.225814 185.447712 
L 349.514481 182.669188 
L 354.134583 180.473478 
L 359.157006 178.317521 
L 364.17943 176.393024 
L 369.201854 174.685879 
L 375.122539 172.944354 
L 379.246702 171.895455 
L 384.269126 170.798836 
L 389.29155 169.892856 
L 394.313974 169.175705 
L 399.336398 168.642111 
L 404.358822 168.292921 
L 409.381246 168.123959 
L 414.40367 168.135223 
L 419.426094 168.326714 
L 425.246359 168.776568 
L 429.470942 169.255389 
L 435.487682 170.16583 
L 439.51579 170.925392 
L 444.538214 172.046637 
L 449.560638 173.365308 
L 454.583062 174.887946 
L 459.605486 176.621387 
L 464.62791 178.573588 
L 469.650334 180.759502 
L 474.672758 183.187648 
L 479.695182 185.874763 
L 484.717606 188.840142 
L 489.74003 192.105047 
L 494.053855 195.172546 
L 498.110736 198.294966 
L 502.677035 202.118856 
L 506.481443 205.579204 
L 510.036881 209.065165 
L 513.958788 213.232951 
L 517.565232 217.400737 
L 520.885247 221.568523 
L 523.944414 225.736309 
L 526.765353 229.904095 
L 529.919422 235.015373 
L 532.499898 239.628929 
L 534.941846 244.440446 
L 537.18487 249.353763 
L 539.43534 254.910811 
L 541.397166 260.467859 
L 543.081421 266.024907 
L 544.498623 271.581955 
L 545.658762 277.139003 
L 546.570221 282.69605 
L 547.231964 288.253098 
L 547.652985 293.810146 
L 547.8344 299.367194 
L 547.77621 304.924242 
L 547.478415 310.48129 
L 546.941014 316.038338 
L 546.157812 321.595386 
L 545.128522 327.152434 
L 543.842368 332.709482 
L 542.295928 338.26653 
L 540.479084 343.823578 
L 538.381191 349.380626 
L 536.613093 353.548412 
L 533.979863 359.105459 
L 531.593563 363.635461 
L 528.568163 368.830293 
L 525.902408 372.998079 
L 523.011402 377.165865 
L 519.874091 381.333651 
L 516.466709 385.501437 
L 512.762335 389.669223 
L 508.730343 393.837009 
L 504.807302 397.569 
L 501.158915 400.783319 
L 496.436595 404.61606 
L 492.254029 407.729629 
L 488.065888 410.611627 
L 483.043465 413.77286 
L 478.021041 416.64292 
L 472.998617 419.242245 
L 467.90044 421.622249 
L 462.953769 423.693411 
L 457.307665 425.790035 
L 452.908921 427.236414 
L 447.886497 428.689877 
L 442.797007 429.957821 
L 437.841649 430.998184 
L 435.947991 431.347082 
L 435.947991 431.347082 
" clip-path="url(#p11051c2a17)" style="fill: none; stroke: #b94a3b; stroke-opacity: 0.45; stroke-width: 1.5"/>
    <path d="M 273.151937 431.347082 
L 268.753375 426.775196 
L 264.13311 421.622249 
L 260.382668 417.144992 
L 256.276944 411.897415 
L 252.24054 406.340367 
L 248.504318 400.783319 
L 245.04792 395.226271 
L 241.852609 389.669223 
L 238.618831 383.544775 
L 236.194767 378.555127 
L 233.596407 372.741923 
L 231.433775 367.441031 
L 229.368242 361.883983 
L 227.502229 356.326935 
L 225.830336 350.769888 
L 224.347354 345.21284 
L 223.048259 339.655792 
L 221.677469 332.709482 
L 220.584031 325.763172 
L 219.761539 318.816862 
L 219.207101 311.870552 
L 218.917402 304.924242 
L 218.892441 297.977932 
L 219.132218 291.031622 
L 219.636734 284.085312 
L 220.407769 277.139003 
L 221.450846 270.192693 
L 222.482914 264.635645 
L 224.024406 257.689335 
L 225.852907 250.743025 
L 227.527536 245.185977 
L 229.396335 239.628929 
L 231.464707 234.071881 
L 233.739597 228.514833 
L 236.231887 222.957785 
L 238.946608 217.400737 
L 241.967114 211.715988 
L 245.315396 205.920255 
L 248.663679 200.562826 
L 252.29623 195.172546 
L 256.336828 189.615498 
L 260.382668 184.447543 
L 264.201942 179.890664 
L 268.753375 174.817261 
L 273.230797 170.16583 
L 277.51304 165.998044 
L 282.146506 161.768768 
L 287.16893 157.487492 
L 292.191354 153.491596 
L 297.82262 149.3269 
L 302.236201 146.274559 
L 308.281415 142.38059 
L 313.955191 139.004306 
L 318.977615 136.228472 
L 324.000039 133.641498 
L 330.696604 130.47205 
L 337.393169 127.605573 
L 344.089735 125.027699 
L 350.7863 122.724955 
L 357.482865 120.688804 
L 364.17943 118.907698 
L 370.885403 117.373875 
L 378.175037 115.984613 
L 384.269126 115.037353 
L 390.965692 114.219979 
L 397.662257 113.633409 
L 404.358822 113.274358 
L 411.055388 113.143291 
L 417.751953 113.238808 
L 424.448518 113.56231 
L 431.145083 114.11333 
L 437.841649 114.894089 
L 444.983549 115.984613 
L 451.234779 117.159289 
L 458.384876 118.763137 
L 464.62791 120.393428 
L 471.324475 122.390072 
L 478.021041 124.649725 
L 484.717606 127.183124 
L 491.414171 130.003675 
L 498.110736 133.125671 
L 503.13316 135.67368 
L 508.155584 138.409212 
L 513.178008 141.342091 
L 519.238002 145.159114 
L 523.359477 147.937638 
L 529.136654 152.105424 
L 534.496572 156.27321 
L 539.488523 160.440996 
L 544.154327 164.608782 
L 548.5297 168.776568 
L 553.3574 173.701646 
L 557.740979 178.501402 
L 561.728107 183.169938 
L 565.760839 188.226236 
L 569.880161 193.783284 
L 573.447096 198.96893 
L 576.795379 204.203141 
L 578.46952 206.971834 
M 578.46952 394.620506 
L 575.121237 400.053908 
L 571.772955 405.104503 
L 567.918612 410.508153 
L 563.644194 416.065201 
L 560.053965 420.421394 
L 555.313763 425.790035 
L 551.373667 429.957821 
L 550.007534 431.347082 
L 550.007534 431.347082 
" clip-path="url(#p11051c2a17)" style="fill: none; stroke: #b94a3b; stroke-opacity: 0.45; stroke-width: 1.5"/>
   </g>
   <g id="line2d_18">
    <path d="M 271.390148 99.035617 
L 211.576426 162.174795 
L 185.258389 189.956034 
L 173.678453 202.179779 
L 168.583281 207.558226 
" clip-path="url(#p11051c2a17)" style="fill: none; stroke: #315f8c; stroke-width: 1.8; stroke-linecap: square"/>
    <defs>
     <path id="mfa749f678a" d="M 0 1.5 
C 0.397805 1.5 0.77937 1.341951 1.06066 1.06066 
C 1.341951 0.77937 1.5 0.397805 1.5 0 
C 1.5 -0.397805 1.341951 -0.77937 1.06066 -1.06066 
C 0.77937 -1.341951 0.397805 -1.5 0 -1.5 
C -0.397805 -1.5 -0.77937 -1.341951 -1.06066 -1.06066 
C -1.341951 -0.77937 -1.5 -0.397805 -1.5 0 
C -1.5 0.397805 -1.341951 0.77937 -1.06066 1.06066 
C -0.77937 1.341951 -0.397805 1.5 0 1.5 
z
" style="stroke: #315f8c"/>
    </defs>
    <g clip-path="url(#p11051c2a17)">
     <use xlink:href="#mfa749f678a" x="271.390148" y="99.035617" style="fill: #315f8c; stroke: #315f8c"/>
     <use xlink:href="#mfa749f678a" x="211.576426" y="162.174795" style="fill: #315f8c; stroke: #315f8c"/>
     <use xlink:href="#mfa749f678a" x="185.258389" y="189.956034" style="fill: #315f8c; stroke: #315f8c"/>
     <use xlink:href="#mfa749f678a" x="173.678453" y="202.179779" style="fill: #315f8c; stroke: #315f8c"/>
     <use xlink:href="#mfa749f678a" x="168.583281" y="207.558226" style="fill: #315f8c; stroke: #315f8c"/>
    </g>
   </g>
   <g id="line2d_19">
    <path d="M 271.390148 99.035617 
L 349.895657 212.021515 
L 384.438081 261.73531 
L 399.636747 283.60938 
L 406.324161 293.233971 
" clip-path="url(#p11051c2a17)" style="fill: none; stroke: #b94a3b; stroke-width: 1.8; stroke-linecap: square"/>
    <defs>
     <path id="mb5a3c5086c" d="M 0 1.5 
C 0.397805 1.5 0.77937 1.341951 1.06066 1.06066 
C 1.341951 0.77937 1.5 0.397805 1.5 0 
C 1.5 -0.397805 1.341951 -0.77937 1.06066 -1.06066 
C 0.77937 -1.341951 0.397805 -1.5 0 -1.5 
C -0.397805 -1.5 -0.77937 -1.341951 -1.06066 -1.06066 
C -1.341951 -0.77937 -1.5 -0.397805 -1.5 0 
C -1.5 0.397805 -1.341951 0.77937 -1.06066 1.06066 
C -0.77937 1.341951 -0.397805 1.5 0 1.5 
z
" style="stroke: #b94a3b"/>
    </defs>
    <g clip-path="url(#p11051c2a17)">
     <use xlink:href="#mb5a3c5086c" x="271.390148" y="99.035617" style="fill: #b94a3b; stroke: #b94a3b"/>
     <use xlink:href="#mb5a3c5086c" x="349.895657" y="212.021515" style="fill: #b94a3b; stroke: #b94a3b"/>
     <use xlink:href="#mb5a3c5086c" x="384.438081" y="261.73531" style="fill: #b94a3b; stroke: #b94a3b"/>
     <use xlink:href="#mb5a3c5086c" x="399.636747" y="283.60938" style="fill: #b94a3b; stroke: #b94a3b"/>
     <use xlink:href="#mb5a3c5086c" x="406.324161" y="293.233971" style="fill: #b94a3b; stroke: #b94a3b"/>
    </g>
   </g>
   <g id="patch_3">
    <path d="M 44.418437 431.347082 
L 44.418437 15.95775 
" style="fill: none; stroke: #969990; stroke-width: 0.8; stroke-linejoin: miter; stroke-linecap: square"/>
   </g>
   <g id="patch_4">
    <path d="M 44.418437 431.347082 
L 578.46952 431.347082 
" style="fill: none; stroke: #969990; stroke-width: 0.8; stroke-linejoin: miter; stroke-linecap: square"/>
   </g>
   <g id="text_20">
    <g id="patch_5">
     <path d="M 268.247033 277.629003 
L 306.660408 277.629003 
L 306.660408 264.702128 
L 268.247033 264.702128 
z
" style="fill: #fffef9; opacity: 0.92"/>
    </g>
    <!-- FedAvg -->
    <g style="fill: #6f5a8f" transform="translate(269.495033 273.506378) scale(0.104 -0.104)">
     <defs>
      <path id="Palatino-Roman-46" d="M 138 4241 
L 138 4441 
Q 613 4422 944 4422 
Q 1178 4422 1784 4434 
Q 2391 4447 2603 4447 
Q 2831 4447 3020 4442 
Q 3209 4438 3363 4425 
Q 3284 4159 3263 3478 
L 3066 3478 
Q 3038 3856 2988 4059 
Q 2825 4116 2586 4142 
Q 2347 4169 2031 4169 
Q 1716 4169 1378 4131 
Q 1359 3963 1353 3816 
Q 1350 3731 1338 3100 
L 1338 2406 
Q 1688 2397 1956 2397 
Q 2353 2397 2591 2438 
Q 2681 2453 2707 2489 
Q 2734 2525 2766 2753 
L 2791 2947 
L 2988 2947 
L 2966 2234 
L 2988 1469 
L 2791 1469 
L 2769 1669 
Q 2734 2009 2719 2034 
Q 2694 2078 2600 2100 
Q 2422 2141 1794 2141 
Q 1572 2141 1338 2128 
L 1338 1497 
Q 1338 1072 1350 669 
Q 1356 372 1392 315 
Q 1428 259 1509 232 
Q 1591 206 1959 200 
L 1959 0 
Q 1563 25 1169 25 
Q 816 25 138 0 
L 138 200 
Q 506 206 587 232 
Q 669 259 700 306 
Q 738 369 747 609 
Q 750 675 759 1497 
L 759 2944 
Q 759 3369 750 3775 
Q 741 4072 705 4126 
Q 669 4181 589 4207 
Q 509 4234 138 4241 
z
" transform="scale(0.015625)"/>
      <path id="Palatino-Roman-65" d="M 2763 484 
L 2663 259 
Q 2447 125 2347 81 
Q 2200 16 2011 -29 
Q 1822 -75 1613 -75 
Q 1200 -75 865 97 
Q 531 269 345 611 
Q 159 953 159 1413 
Q 159 1772 257 2061 
Q 356 2350 481 2488 
Q 572 2588 762 2717 
Q 953 2847 1141 2922 
Q 1388 3025 1675 3025 
Q 2025 3025 2308 2865 
Q 2591 2706 2722 2431 
Q 2853 2156 2853 1809 
Q 2853 1722 2841 1597 
Q 2616 1553 2438 1541 
Q 2100 1516 1763 1516 
L 759 1516 
Q 766 1069 914 792 
Q 1063 516 1323 384 
Q 1584 253 1866 253 
Q 2056 253 2245 314 
Q 2434 375 2713 538 
L 2763 484 
z
M 759 1763 
Q 847 1753 1091 1744 
Q 1556 1728 1731 1728 
Q 2147 1728 2278 1744 
Q 2281 1819 2281 1859 
Q 2281 2353 2081 2584 
Q 1881 2816 1547 2816 
Q 1194 2816 978 2562 
Q 763 2309 759 1763 
z
" transform="scale(0.015625)"/>
      <path id="Palatino-Roman-64" d="M 2122 4244 
L 2122 4422 
Q 2469 4459 2708 4511 
Q 2947 4563 3175 4638 
L 3216 4609 
Q 3203 4344 3188 3584 
L 3175 3084 
L 3175 1128 
Q 3175 809 3186 576 
Q 3197 344 3225 298 
Q 3253 253 3318 225 
Q 3384 197 3709 169 
L 3709 0 
Q 3328 22 3172 22 
Q 3038 22 2622 0 
Q 2631 216 2638 581 
Q 2513 491 2302 309 
Q 2091 128 1972 13 
Q 1722 -50 1531 -50 
Q 1178 -50 881 125 
Q 584 300 423 633 
Q 263 966 263 1381 
Q 263 1694 361 1973 
Q 459 2253 609 2406 
Q 694 2494 994 2672 
Q 1294 2850 1480 2929 
Q 1666 3009 1884 3009 
Q 2081 3009 2270 2961 
Q 2459 2913 2638 2813 
L 2638 3634 
Q 2638 4069 2600 4163 
Q 2588 4197 2553 4213 
Q 2491 4241 2122 4244 
z
M 2638 2278 
Q 2425 2513 2192 2620 
Q 1959 2728 1734 2728 
Q 1478 2728 1262 2597 
Q 1047 2466 933 2200 
Q 819 1934 819 1563 
Q 819 991 1103 669 
Q 1388 347 1788 347 
Q 1997 347 2162 434 
Q 2328 522 2453 690 
Q 2578 859 2613 1066 
Q 2638 1203 2638 1744 
L 2638 2278 
z
" transform="scale(0.015625)"/>
      <path id="Palatino-Roman-41" d="M 109 0 
L 109 213 
Q 356 216 417 233 
Q 478 250 529 298 
Q 581 347 678 550 
Q 734 666 1084 1428 
L 1866 3191 
Q 1994 3481 2413 4484 
L 2616 4484 
L 3950 1350 
Q 4275 588 4381 394 
Q 4441 284 4511 250 
Q 4581 216 4828 213 
L 4828 0 
Q 4341 31 4147 31 
L 3141 0 
L 3141 213 
Q 3491 219 3566 234 
Q 3641 250 3667 279 
Q 3694 309 3694 353 
Q 3694 422 3650 531 
L 3266 1488 
L 1456 1488 
L 1116 684 
Q 1025 469 1025 369 
Q 1025 325 1050 297 
Q 1084 256 1156 241 
Q 1272 216 1563 213 
L 1563 0 
Q 1034 28 772 28 
Q 469 28 109 0 
z
M 1563 1753 
L 3141 1753 
L 2359 3638 
L 1563 1753 
z
" transform="scale(0.015625)"/>
      <path id="Palatino-Roman-76" d="M 1594 -31 
Q 1472 288 1425 397 
L 1169 994 
L 528 2484 
Q 466 2625 422 2672 
Q 378 2719 325 2731 
Q 281 2744 94 2750 
L 94 2938 
Q 613 2916 850 2916 
Q 1113 2916 1569 2938 
L 1569 2750 
Q 1231 2741 1172 2706 
Q 1113 2672 1113 2613 
Q 1113 2519 1238 2209 
L 1619 1259 
L 1709 1047 
Q 1863 675 1919 550 
L 2231 1259 
Q 2259 1322 2516 1963 
Q 2666 2334 2716 2531 
Q 2728 2584 2728 2625 
Q 2728 2678 2688 2700 
Q 2613 2741 2288 2750 
L 2288 2938 
Q 2753 2916 2884 2916 
Q 2994 2916 3481 2938 
L 3481 2750 
Q 3288 2741 3223 2705 
Q 3159 2669 3097 2556 
Q 3053 2481 2759 1881 
L 2459 1241 
Q 2381 1069 1919 -31 
L 1594 -31 
z
" transform="scale(0.015625)"/>
      <path id="Palatino-Roman-67" d="M 3463 2766 
L 3488 2706 
Q 3366 2522 3328 2453 
L 2747 2453 
Q 2819 2269 2819 2106 
Q 2819 1869 2695 1642 
Q 2572 1416 2334 1255 
Q 2097 1094 1828 1038 
Q 1653 1000 1356 1006 
Q 1153 844 1100 763 
Q 1066 706 1066 641 
Q 1066 566 1111 508 
Q 1156 450 1250 428 
Q 1391 391 1750 391 
L 2425 403 
Q 2778 403 2961 311 
Q 3144 219 3231 30 
Q 3319 -159 3319 -397 
Q 3319 -719 3108 -1051 
Q 2897 -1384 2481 -1576 
Q 2066 -1769 1550 -1769 
Q 1119 -1769 816 -1634 
Q 513 -1500 367 -1275 
Q 222 -1050 222 -803 
Q 222 -666 264 -545 
Q 306 -425 406 -288 
Q 788 -113 953 19 
Q 694 103 620 178 
Q 547 253 547 328 
Q 547 391 641 666 
Q 794 794 1122 1028 
Q 841 1106 689 1211 
Q 538 1316 453 1495 
Q 369 1675 369 1891 
Q 369 2209 531 2461 
Q 694 2713 1078 2870 
Q 1463 3028 1791 3028 
Q 2003 3028 2195 2959 
Q 2388 2891 2559 2753 
Q 3147 2756 3463 2766 
z
M 906 2063 
Q 906 1841 989 1631 
Q 1072 1422 1233 1315 
Q 1394 1209 1600 1209 
Q 1869 1209 2075 1382 
Q 2281 1556 2281 1941 
Q 2281 2334 2075 2567 
Q 1869 2800 1578 2800 
Q 1275 2800 1090 2608 
Q 906 2416 906 2063 
z
M 1822 -34 
Q 1356 -34 1238 -47 
Q 1178 -56 1103 -109 
Q 856 -284 841 -303 
Q 809 -334 772 -431 
Q 706 -606 706 -784 
Q 706 -1113 961 -1339 
Q 1216 -1566 1663 -1566 
Q 1994 -1566 2267 -1433 
Q 2541 -1300 2680 -1070 
Q 2819 -841 2819 -609 
Q 2809 -409 2757 -306 
Q 2706 -203 2632 -143 
Q 2559 -84 2431 -47 
Q 2356 -38 1822 -34 
z
" transform="scale(0.015625)"/>
     </defs>
     <use xlink:href="#Palatino-Roman-46"/>
     <use xlink:href="#Palatino-Roman-65" x="55.615234"/>
     <use xlink:href="#Palatino-Roman-64" x="103.515625"/>
     <use xlink:href="#Palatino-Roman-41" x="164.599609"/>
     <use xlink:href="#Palatino-Roman-76" x="233.257812"/>
     <use xlink:href="#Palatino-Roman-67" x="289.751953"/>
    </g>
   </g>
   <g id="PathCollection_2">
    <defs>
     <path id="mef1a67f710" d="M 0 4.031129 
C 1.069068 4.031129 2.094493 3.606384 2.850439 2.850439 
C 3.606384 2.094493 4.031129 1.069068 4.031129 0 
C 4.031129 -1.069068 3.606384 -2.094493 2.850439 -2.850439 
C 2.094493 -3.606384 1.069068 -4.031129 0 -4.031129 
C -1.069068 -4.031129 -2.094493 -3.606384 -2.850439 -2.850439 
C -3.606384 -2.094493 -4.031129 -1.069068 -4.031129 0 
C -4.031129 1.069068 -3.606384 2.094493 -2.850439 2.850439 
C -2.094493 3.606384 -1.069068 4.031129 0 4.031129 
z
" style="stroke: #6f5a8f"/>
    </defs>
    <g clip-path="url(#p11051c2a17)">
     <use xlink:href="#mef1a67f710" x="287.453721" y="250.396099" style="fill: #6f5a8f; stroke: #6f5a8f"/>
    </g>
   </g>
  </g>
 </g>
 <defs>
  <clipPath id="p11051c2a17">
   <rect x="44.418437" y="15.95775" width="534.051083" height="415.389333"/>
  </clipPath>
 </defs>
</svg>
