<?xml version="1.0" encoding="utf-8" standalone="no"?>
<!DOCTYPE svg PUBLIC "-//W3C//DTD SVG 1.1//EN"
  "http://www.w3.org/Graphics/SVG/1.1/DTD/svg11.dtd">
<svg xmlns:xlink="http://www.w3.org/1999/xlink" width="765.83952pt" height="434.63952pt" viewBox="0 0 765.83952 434.63952" xmlns="http://www.w3.org/2000/svg" version="1.1">
 <title>Контур, урок 12, рисунок 1</title>
 <metadata>
  <rdf:RDF xmlns:dc="http://purl.org/dc/elements/1.1/" xmlns:cc="http://creativecommons.org/ns#" xmlns:rdf="http://www.w3.org/1999/02/22-rdf-syntax-ns#">
   <cc:Work>
    <dc:type rdf:resource="http://purl.org/dc/dcmitype/StillImage"/>
    <dc:title>Контур, урок 12, рисунок 1</dc:title>
    <dc:date>2026-07-18T09:13:47.601543</dc:date>
    <dc:format>image/svg+xml</dc:format>
    <dc:creator>
     <cc:Agent>
      <dc:title>Matplotlib v3.9.4, https://matplotlib.org/</dc:title>
     </cc:Agent>
    </dc:creator>
   </cc:Work>
  </rdf:RDF>
 </metadata>
 <defs>
  <style type="text/css">*{stroke-linejoin: round; stroke-linecap: butt}</style>
 </defs>
 <g id="figure_1">
  <g id="patch_1">
   <path d="M 0 434.63952 
L 765.83952 434.63952 
L 765.83952 -0 
L 0 -0 
z
" style="fill: #fffef9"/>
  </g>
  <g id="axes_1">
   <g id="patch_2">
    <path d="M 42.71758 175.336609 
L 136.310319 175.336609 
Q 151.16631 175.336609 151.16631 167.104619 
L 151.16631 119.359074 
Q 151.16631 111.127084 136.310319 111.127084 
L 42.71758 111.127084 
Q 27.861589 111.127084 27.861589 119.359074 
L 27.861589 167.104619 
Q 27.861589 175.336609 42.71758 175.336609 
z
" clip-path="url(#p81ef94dfa6)" style="fill: #fffef9; stroke: #38735d; stroke-width: 1.35; stroke-linejoin: miter"/>
   </g>
   <g id="patch_3">
    <path d="M 198.705479 175.336609 
L 292.298219 175.336609 
Q 307.154209 175.336609 307.154209 167.104619 
L 307.154209 119.359074 
Q 307.154209 111.127084 292.298219 111.127084 
L 198.705479 111.127084 
Q 183.849489 111.127084 183.849489 119.359074 
L 183.849489 167.104619 
Q 183.849489 175.336609 198.705479 175.336609 
z
" clip-path="url(#p81ef94dfa6)" style="fill: #fffef9; stroke: #a57920; stroke-width: 1.35; stroke-linejoin: miter"/>
   </g>
   <g id="patch_4">
    <path d="M 354.693378 175.336609 
L 448.286118 175.336609 
Q 463.142108 175.336609 463.142108 167.104619 
L 463.142108 119.359074 
Q 463.142108 111.127084 448.286118 111.127084 
L 354.693378 111.127084 
Q 339.837388 111.127084 339.837388 119.359074 
L 339.837388 167.104619 
Q 339.837388 175.336609 354.693378 175.336609 
z
" clip-path="url(#p81ef94dfa6)" style="fill: #fffef9; stroke: #315f8c; stroke-width: 1.35; stroke-linejoin: miter"/>
   </g>
   <g id="patch_5">
    <path d="M 510.681277 175.336609 
L 604.274017 175.336609 
Q 619.130007 175.336609 619.130007 167.104619 
L 619.130007 119.359074 
Q 619.130007 111.127084 604.274017 111.127084 
L 510.681277 111.127084 
Q 495.825287 111.127084 495.825287 119.359074 
L 495.825287 167.104619 
Q 495.825287 175.336609 510.681277 175.336609 
z
" clip-path="url(#p81ef94dfa6)" style="fill: #fffef9; stroke: #6f5a8f; stroke-width: 1.35; stroke-linejoin: miter"/>
   </g>
   <g id="patch_6">
    <path d="M 629.529201 175.336609 
L 723.12194 175.336609 
Q 737.977931 175.336609 737.977931 167.104619 
L 737.977931 119.359074 
Q 737.977931 111.127084 723.12194 111.127084 
L 629.529201 111.127084 
Q 614.67321 111.127084 614.67321 119.359074 
L 614.67321 167.104619 
Q 614.67321 175.336609 629.529201 175.336609 
z
" clip-path="url(#p81ef94dfa6)" style="fill: #fffef9; stroke: #b94a3b; stroke-width: 1.35; stroke-linejoin: miter"/>
   </g>
   <g id="patch_7">
    <path d="M 142.797484 143.231846 
Q 167.509118 143.231846 190.82321 143.231846 
" clip-path="url(#p81ef94dfa6)" style="fill: none; stroke: #696d65; stroke-width: 1.25; stroke-linecap: round"/>
    <path d="M 186.42321 141.031846 
L 190.82321 143.231846 
L 186.42321 145.431846 
z
" clip-path="url(#p81ef94dfa6)" style="fill: #696d65; stroke: #696d65; stroke-width: 1.25; stroke-linecap: round"/>
   </g>
   <g id="patch_8">
    <path d="M 298.785383 143.231846 
Q 323.497017 143.231846 346.811109 143.231846 
" clip-path="url(#p81ef94dfa6)" style="fill: none; stroke: #696d65; stroke-width: 1.25; stroke-linecap: round"/>
    <path d="M 342.411109 141.031846 
L 346.811109 143.231846 
L 342.411109 145.431846 
z
" clip-path="url(#p81ef94dfa6)" style="fill: #696d65; stroke: #696d65; stroke-width: 1.25; stroke-linecap: round"/>
   </g>
   <g id="patch_9">
    <path d="M 454.773282 143.231846 
Q 479.484916 143.231846 502.799008 143.231846 
" clip-path="url(#p81ef94dfa6)" style="fill: none; stroke: #696d65; stroke-width: 1.25; stroke-linecap: round"/>
    <path d="M 498.399008 141.031846 
L 502.799008 143.231846 
L 498.399008 145.431846 
z
" clip-path="url(#p81ef94dfa6)" style="fill: #696d65; stroke: #696d65; stroke-width: 1.25; stroke-linecap: round"/>
   </g>
   <g id="patch_10">
    <path d="M 610.762088 143.231846 
Q 616.903016 143.231846 621.646402 143.231846 
" clip-path="url(#p81ef94dfa6)" style="fill: none; stroke: #696d65; stroke-width: 1.25; stroke-linecap: round"/>
    <path d="M 617.246402 141.031846 
L 621.646402 143.231846 
L 617.246402 145.431846 
z
" clip-path="url(#p81ef94dfa6)" style="fill: #696d65; stroke: #696d65; stroke-width: 1.25; stroke-linecap: round"/>
   </g>
   <g id="patch_11">
    <path d="M 119.22593 178.162788 
Q 119.22593 211.145396 119.22593 244.128003 
" clip-path="url(#p81ef94dfa6)" style="fill: none; stroke: #969990; stroke-width: 1.25; stroke-linecap: round"/>
   </g>
   <g id="patch_12">
    <path d="M 275.21383 178.162788 
Q 275.21383 211.145396 275.21383 244.128003 
" clip-path="url(#p81ef94dfa6)" style="fill: none; stroke: #969990; stroke-width: 1.25; stroke-linecap: round"/>
   </g>
   <g id="patch_13">
    <path d="M 431.201729 178.162788 
Q 431.201729 211.145396 431.201729 244.128003 
" clip-path="url(#p81ef94dfa6)" style="fill: none; stroke: #969990; stroke-width: 1.25; stroke-linecap: round"/>
   </g>
   <g id="patch_14">
    <path d="M 568.61964 178.162788 
Q 568.61964 211.145396 568.61964 244.128003 
" clip-path="url(#p81ef94dfa6)" style="fill: none; stroke: #969990; stroke-width: 1.25; stroke-linecap: round"/>
   </g>
   <g id="text_1">
    <!-- источник -->
    <g style="fill: #38735d" transform="translate(66.509106 145.60501) scale(0.105 -0.105)">
     <defs>
      <path id="Palatino-Roman-438" d="M 247 0 
L 247 131 
L 272 153 
Q 459 181 550 215 
Q 641 250 670 295 
Q 700 341 708 406 
Q 716 472 723 745 
Q 731 1019 731 1163 
L 731 1728 
Q 731 2466 682 2578 
Q 634 2691 272 2738 
L 247 2763 
L 247 2894 
L 272 2916 
Q 706 2891 994 2891 
Q 1272 2891 1716 2916 
L 1738 2894 
L 1738 2763 
L 1716 2738 
Q 1516 2709 1436 2676 
Q 1356 2644 1325 2608 
Q 1294 2572 1284 2519 
Q 1275 2466 1264 2180 
Q 1253 1894 1253 1728 
L 1253 438 
L 1303 419 
Q 1600 863 2069 1661 
Q 2538 2459 2784 2916 
Q 3078 2891 3275 2891 
Q 3478 2891 3775 2916 
L 3800 2894 
L 3800 2763 
L 3775 2738 
Q 3409 2691 3362 2573 
Q 3316 2456 3316 1728 
L 3316 1163 
Q 3316 428 3364 315 
Q 3413 203 3775 153 
L 3800 131 
L 3800 0 
L 3775 -25 
Q 3341 0 3053 0 
Q 2775 0 2331 -25 
L 2306 0 
L 2306 131 
L 2331 153 
Q 2697 203 2745 318 
Q 2794 434 2794 1163 
L 2794 2434 
L 2744 2453 
Q 2516 2116 2014 1247 
Q 1513 378 1309 -25 
Q 1016 0 828 0 
Q 625 0 272 -25 
L 247 0 
z
" transform="scale(0.015625)"/>
      <path id="Palatino-Roman-441" d="M 2713 334 
L 2588 125 
Q 2184 -97 1688 -97 
Q 1000 -97 625 312 
Q 250 722 250 1369 
Q 250 1663 314 1892 
Q 378 2122 476 2272 
Q 575 2422 694 2509 
Q 813 2597 1095 2753 
Q 1378 2909 1522 2957 
Q 1666 3006 1919 3006 
Q 2403 3006 2713 2822 
Q 2653 2469 2622 2034 
L 2594 2009 
L 2466 2009 
L 2438 2038 
Q 2425 2300 2403 2390 
Q 2381 2481 2154 2584 
Q 1928 2688 1672 2688 
Q 1416 2688 1216 2580 
Q 1016 2472 914 2226 
Q 813 1981 813 1641 
Q 813 1353 894 1079 
Q 975 806 1108 626 
Q 1241 447 1459 337 
Q 1678 228 1947 228 
Q 2116 228 2277 272 
Q 2438 316 2647 416 
L 2713 334 
z
" transform="scale(0.015625)"/>
      <path id="Palatino-Roman-442" d="M 119 2894 
L 144 2916 
Q 753 2884 1509 2884 
Q 2278 2884 2875 2916 
L 2897 2894 
Q 2878 2481 2878 2197 
L 2859 2178 
L 2734 2178 
L 2716 2197 
Q 2675 2534 2650 2595 
Q 2625 2656 2579 2675 
Q 2534 2694 2403 2694 
L 1769 2694 
L 1756 1894 
L 1756 1181 
Q 1756 950 1762 642 
Q 1769 334 1800 275 
Q 1831 216 1884 195 
Q 1938 175 2169 153 
L 2194 131 
L 2194 0 
L 2169 -25 
Q 1856 0 1509 0 
Q 1147 0 850 -25 
L 825 0 
L 825 131 
L 850 153 
Q 1084 175 1136 195 
Q 1188 216 1219 277 
Q 1250 338 1256 580 
Q 1263 822 1263 1181 
L 1263 1884 
Q 1253 2291 1247 2694 
L 613 2694 
Q 478 2694 433 2673 
Q 388 2653 364 2586 
Q 341 2519 300 2197 
L 281 2178 
L 159 2178 
L 138 2197 
Q 138 2322 119 2894 
z
" transform="scale(0.015625)"/>
      <path id="Palatino-Roman-43e" d="M 3369 1575 
Q 3369 1181 3242 865 
Q 3116 550 2877 323 
Q 2638 97 2383 4 
Q 2128 -88 1784 -88 
Q 1016 -88 614 353 
Q 213 794 213 1453 
Q 213 1906 406 2259 
Q 600 2613 967 2800 
Q 1334 2988 1828 2988 
Q 2309 2988 2650 2808 
Q 2991 2628 3180 2301 
Q 3369 1975 3369 1575 
z
M 2766 1391 
Q 2766 2016 2508 2394 
Q 2250 2772 1753 2772 
Q 1338 2772 1075 2480 
Q 813 2188 813 1597 
Q 813 991 1077 552 
Q 1341 113 1838 113 
Q 2272 113 2519 461 
Q 2766 809 2766 1391 
z
" transform="scale(0.015625)"/>
      <path id="Palatino-Roman-447" d="M 2175 1422 
L 2175 1728 
Q 2175 2466 2126 2578 
Q 2078 2691 1716 2738 
L 1691 2763 
L 1691 2894 
L 1716 2916 
Q 2150 2891 2438 2891 
Q 2725 2891 3159 2916 
L 3181 2894 
L 3181 2763 
L 3159 2738 
Q 2969 2713 2880 2678 
Q 2791 2644 2759 2598 
Q 2728 2553 2722 2487 
Q 2716 2422 2706 2148 
Q 2697 1875 2697 1728 
L 2697 1163 
Q 2697 428 2747 315 
Q 2797 203 3159 153 
L 3181 131 
L 3181 0 
L 3159 -25 
Q 2725 0 2438 0 
Q 2147 0 1716 -25 
L 1691 0 
L 1691 131 
L 1716 153 
Q 1900 184 1981 218 
Q 2063 253 2097 293 
Q 2131 334 2143 395 
Q 2156 456 2165 784 
Q 2175 1113 2175 1222 
Q 1850 1053 1466 1053 
Q 1219 1053 961 1122 
Q 703 1191 564 1305 
Q 425 1419 376 1559 
Q 328 1700 328 1966 
Q 328 2094 334 2253 
Q 344 2516 344 2534 
Q 344 2644 291 2678 
Q 238 2713 25 2738 
L 0 2763 
L 0 2894 
L 25 2916 
Q 372 2891 625 2891 
Q 959 2891 1244 2916 
L 1269 2894 
L 1269 2763 
L 1244 2738 
Q 1003 2709 940 2589 
Q 878 2469 878 2078 
Q 878 1594 1070 1419 
Q 1263 1244 1553 1244 
Q 1828 1244 2175 1422 
z
" transform="scale(0.015625)"/>
      <path id="Palatino-Roman-43d" d="M 1078 1628 
Q 1653 1616 1872 1616 
Q 2125 1616 2656 1628 
L 2656 1713 
Q 2656 1944 2650 2250 
Q 2644 2556 2611 2617 
Q 2578 2678 2526 2698 
Q 2475 2719 2244 2738 
L 2219 2763 
L 2219 2894 
L 2244 2916 
Q 2556 2891 2903 2891 
Q 3266 2891 3563 2916 
L 3588 2894 
L 3588 2763 
L 3563 2738 
Q 3328 2716 3276 2695 
Q 3225 2675 3194 2614 
Q 3163 2553 3156 2311 
Q 3150 2069 3150 1713 
L 3150 1181 
L 3156 634 
Q 3163 331 3195 272 
Q 3228 213 3281 194 
Q 3334 175 3563 153 
L 3588 131 
L 3588 0 
L 3563 -25 
Q 3250 0 2903 0 
Q 2541 0 2244 -25 
L 2219 0 
L 2219 131 
L 2244 153 
Q 2478 175 2529 195 
Q 2581 216 2612 275 
Q 2644 334 2650 564 
Q 2656 794 2656 1181 
L 2656 1431 
Q 2309 1441 1872 1441 
Q 1475 1441 1078 1431 
L 1078 1181 
Q 1078 934 1084 632 
Q 1091 331 1123 272 
Q 1156 213 1209 194 
Q 1263 175 1491 153 
L 1516 131 
L 1516 0 
L 1491 -25 
Q 1178 0 831 0 
Q 466 0 172 -25 
L 147 0 
L 147 131 
L 172 153 
Q 406 175 456 195 
Q 506 216 539 275 
Q 572 334 578 562 
Q 584 791 584 1181 
L 584 1713 
Q 584 1956 578 2257 
Q 572 2559 537 2618 
Q 503 2678 451 2698 
Q 400 2719 172 2738 
L 147 2763 
L 147 2894 
L 172 2916 
Q 481 2891 831 2891 
Q 1194 2891 1491 2916 
L 1516 2894 
L 1516 2763 
L 1491 2738 
Q 1256 2716 1204 2697 
Q 1153 2678 1122 2617 
Q 1091 2556 1084 2329 
Q 1078 2103 1078 1713 
L 1078 1628 
z
" transform="scale(0.015625)"/>
      <path id="Palatino-Roman-43a" d="M 247 0 
L 247 131 
L 272 153 
Q 506 175 556 195 
Q 606 216 639 275 
Q 672 334 678 562 
Q 684 791 684 1181 
L 684 1713 
Q 684 1956 678 2257 
Q 672 2559 637 2618 
Q 603 2678 551 2698 
Q 500 2719 272 2738 
L 247 2763 
L 247 2894 
L 272 2916 
Q 581 2891 944 2891 
Q 1322 2891 1619 2916 
L 1644 2894 
L 1644 2763 
L 1619 2738 
Q 1384 2716 1332 2695 
Q 1281 2675 1251 2615 
Q 1222 2556 1214 2328 
Q 1206 2100 1206 1713 
L 1206 1506 
L 1231 1506 
Q 1634 1856 2000 2226 
Q 2366 2597 2402 2640 
Q 2438 2684 2438 2719 
Q 2438 2756 2381 2772 
L 2381 2894 
L 2406 2919 
Q 2675 2894 2766 2894 
Q 2919 2894 3125 2919 
L 3147 2894 
L 3147 2763 
L 3125 2741 
Q 2922 2722 2775 2636 
Q 2628 2550 1703 1709 
L 2981 366 
Q 3119 219 3167 186 
Q 3216 153 3309 150 
L 3325 134 
L 3325 0 
L 3309 -19 
Q 2822 -3 2719 25 
Q 2616 53 2489 161 
Q 2363 269 2066 588 
Q 1463 1228 1231 1425 
L 1206 1425 
L 1206 1181 
Q 1206 925 1212 628 
Q 1219 331 1251 272 
Q 1284 213 1337 194 
Q 1391 175 1619 153 
L 1644 131 
L 1644 0 
L 1619 -25 
Q 1309 0 944 0 
Q 569 0 272 -25 
L 247 0 
z
" transform="scale(0.015625)"/>
     </defs>
     <use xlink:href="#Palatino-Roman-438"/>
     <use xlink:href="#Palatino-Roman-441" x="63.183594"/>
     <use xlink:href="#Palatino-Roman-442" x="107.568359"/>
     <use xlink:href="#Palatino-Roman-43e" x="154.736328"/>
     <use xlink:href="#Palatino-Roman-447" x="210.693359"/>
     <use xlink:href="#Palatino-Roman-43d" x="264.257812"/>
     <use xlink:href="#Palatino-Roman-438" x="322.607422"/>
     <use xlink:href="#Palatino-Roman-43a" x="385.791016"/>
    </g>
   </g>
   <g id="text_2">
    <!-- сырой журнал -->
    <g style="fill: #a57920" transform="translate(209.701771 145.508214) scale(0.105 -0.105)">
     <defs>
      <path id="Palatino-Roman-44b" d="M 247 0 
L 247 131 
L 272 153 
Q 459 181 550 215 
Q 641 250 670 295 
Q 700 341 708 406 
Q 716 472 723 745 
Q 731 1019 731 1163 
L 731 1728 
Q 731 2466 682 2578 
Q 634 2691 272 2738 
L 247 2763 
L 247 2894 
L 272 2916 
Q 706 2891 994 2891 
Q 1272 2891 1716 2916 
L 1738 2894 
L 1738 2763 
L 1716 2738 
Q 1516 2709 1436 2676 
Q 1356 2644 1325 2608 
Q 1294 2572 1284 2519 
Q 1275 2466 1264 2180 
Q 1253 1894 1253 1728 
L 1253 1675 
Q 1525 1691 1756 1691 
Q 2163 1691 2377 1614 
Q 2591 1538 2716 1344 
Q 2841 1150 2841 894 
Q 2841 600 2684 381 
Q 2528 163 2304 69 
Q 2081 -25 1713 -25 
Q 1616 -25 1344 -13 
Q 1113 0 994 0 
Q 703 0 272 -25 
L 247 0 
z
M 1253 1528 
L 1253 959 
Q 1259 494 1267 362 
Q 1275 231 1320 184 
Q 1366 138 1519 138 
Q 1894 138 2086 359 
Q 2278 581 2278 934 
Q 2278 1128 2211 1262 
Q 2144 1397 2005 1465 
Q 1866 1534 1600 1534 
Q 1475 1534 1253 1528 
z
M 2903 2763 
L 2903 2894 
L 2928 2916 
Q 3363 2891 3650 2891 
Q 3941 2891 4372 2916 
L 4397 2894 
L 4397 2763 
L 4372 2738 
Q 4184 2713 4093 2678 
Q 4003 2644 3973 2598 
Q 3944 2553 3936 2487 
Q 3928 2422 3920 2150 
Q 3913 1878 3913 1728 
L 3913 1163 
Q 3913 425 3961 314 
Q 4009 203 4372 153 
L 4397 131 
L 4397 0 
L 4372 -25 
Q 3938 0 3650 0 
Q 3359 0 2928 -25 
L 2903 0 
L 2903 131 
L 2928 153 
Q 3294 203 3342 318 
Q 3391 434 3391 1163 
L 3391 1728 
Q 3391 2463 3341 2577 
Q 3291 2691 2928 2738 
L 2903 2763 
z
" transform="scale(0.015625)"/>
      <path id="Palatino-Roman-440" d="M 1163 3016 
L 1219 2978 
Q 1188 2609 1184 2347 
Q 1378 2528 1565 2689 
Q 1753 2850 1820 2889 
Q 1888 2928 2022 2956 
Q 2156 2984 2353 2984 
Q 2925 2984 3256 2629 
Q 3588 2275 3588 1719 
Q 3588 1488 3513 1250 
Q 3438 1013 3317 816 
Q 3197 619 3131 564 
Q 3066 509 2766 328 
Q 2644 256 2519 166 
Q 2341 41 2286 8 
Q 2231 -25 2104 -54 
Q 1978 -84 1831 -84 
Q 1506 -84 1184 81 
L 1184 -503 
Q 1184 -741 1198 -1103 
Q 1213 -1466 1239 -1514 
Q 1266 -1563 1314 -1578 
Q 1363 -1594 1616 -1616 
L 1644 -1641 
L 1644 -1772 
L 1616 -1800 
Q 1241 -1775 922 -1775 
Q 603 -1775 228 -1800 
L 203 -1772 
L 203 -1641 
L 228 -1616 
Q 466 -1597 514 -1584 
Q 563 -1572 586 -1545 
Q 609 -1519 623 -1458 
Q 638 -1397 650 -1023 
Q 663 -650 663 -503 
L 663 1894 
Q 663 2034 652 2254 
Q 641 2475 631 2509 
Q 622 2544 586 2567 
Q 550 2591 431 2591 
Q 413 2591 231 2597 
L 203 2622 
L 203 2756 
L 228 2784 
Q 788 2866 1163 3016 
z
M 1184 619 
Q 1544 256 2009 256 
Q 2488 256 2761 615 
Q 3034 975 3034 1494 
Q 3034 1813 2914 2064 
Q 2794 2316 2555 2453 
Q 2316 2591 2059 2591 
Q 1888 2591 1730 2530 
Q 1572 2469 1437 2356 
Q 1303 2244 1250 2150 
Q 1197 2056 1190 2006 
Q 1184 1956 1184 1831 
L 1184 619 
z
" transform="scale(0.015625)"/>
      <path id="Palatino-Roman-439" d="M 247 0 
L 247 131 
L 272 153 
Q 459 181 550 215 
Q 641 250 670 295 
Q 700 341 708 406 
Q 716 472 723 745 
Q 731 1019 731 1163 
L 731 1728 
Q 731 2466 682 2578 
Q 634 2691 272 2738 
L 247 2763 
L 247 2894 
L 272 2916 
Q 706 2891 994 2891 
Q 1272 2891 1716 2916 
L 1738 2894 
L 1738 2763 
L 1716 2738 
Q 1516 2709 1436 2676 
Q 1356 2644 1325 2608 
Q 1294 2572 1284 2519 
Q 1275 2466 1264 2180 
Q 1253 1894 1253 1728 
L 1253 438 
L 1303 419 
Q 1600 863 2069 1661 
Q 2538 2459 2784 2916 
Q 3078 2891 3275 2891 
Q 3478 2891 3775 2916 
L 3800 2894 
L 3800 2763 
L 3775 2738 
Q 3409 2691 3362 2573 
Q 3316 2456 3316 1728 
L 3316 1163 
Q 3316 428 3364 315 
Q 3413 203 3775 153 
L 3800 131 
L 3800 0 
L 3775 -25 
Q 3341 0 3053 0 
Q 2775 0 2331 -25 
L 2306 0 
L 2306 131 
L 2331 153 
Q 2697 203 2745 318 
Q 2794 434 2794 1163 
L 2794 2434 
L 2744 2453 
Q 2516 2116 2014 1247 
Q 1513 378 1309 -25 
Q 1016 0 828 0 
Q 625 0 272 -25 
L 247 0 
z
M 1147 3975 
L 1453 4213 
L 1531 4172 
Q 1653 3625 2144 3625 
Q 2394 3625 2551 3770 
Q 2709 3916 2709 4197 
L 2790 4222 
L 2925 3888 
Q 2540 3438 2028 3438 
Q 1744 3438 1525 3577 
Q 1306 3716 1147 3975 
z
" transform="scale(0.015625)"/>
      <path id="Palatino-Roman-20" transform="scale(0.015625)"/>
      <path id="Palatino-Roman-436" d="M 1903 0 
L 1903 131 
L 1925 153 
Q 2116 181 2205 215 
Q 2294 250 2325 295 
Q 2356 341 2362 406 
Q 2369 472 2378 742 
Q 2388 1013 2388 1163 
L 2388 1413 
L 2300 1413 
Q 1972 1088 1622 700 
Q 1253 284 1123 178 
Q 994 72 837 31 
Q 681 -9 169 -25 
L 144 0 
L 144 131 
L 169 153 
Q 300 172 387 212 
Q 475 253 597 359 
Q 719 466 1150 906 
L 1900 1666 
Q 1534 1997 1184 2276 
Q 834 2556 682 2629 
Q 531 2703 331 2738 
L 309 2763 
L 309 2894 
L 331 2916 
Q 575 2891 750 2891 
Q 859 2891 1178 2916 
L 1200 2894 
L 1200 2769 
Q 1144 2753 1144 2719 
Q 1144 2700 1158 2672 
Q 1172 2644 1383 2417 
Q 1594 2191 1814 1970 
Q 2034 1750 2306 1503 
L 2388 1503 
L 2388 1728 
Q 2388 1834 2380 2107 
Q 2372 2381 2365 2464 
Q 2359 2547 2329 2592 
Q 2300 2638 2209 2675 
Q 2119 2713 1925 2738 
L 1903 2763 
L 1903 2894 
L 1925 2916 
Q 2363 2891 2634 2891 
Q 2909 2891 3341 2916 
L 3366 2894 
L 3366 2763 
L 3341 2738 
Q 3144 2709 3062 2676 
Q 2981 2644 2951 2608 
Q 2922 2572 2911 2519 
Q 2900 2466 2890 2183 
Q 2881 1900 2881 1728 
L 2881 1503 
L 2963 1503 
Q 3228 1747 3448 1965 
Q 3669 2184 3883 2414 
Q 4097 2644 4111 2672 
Q 4125 2700 4125 2716 
Q 4125 2753 4069 2769 
L 4069 2894 
L 4091 2916 
Q 4413 2891 4519 2891 
Q 4697 2891 4934 2916 
L 4959 2894 
L 4959 2763 
L 4934 2738 
Q 4731 2703 4576 2625 
Q 4422 2547 4080 2273 
Q 3738 2000 3369 1669 
Q 3653 1369 4115 905 
Q 4578 441 4687 345 
Q 4797 250 4881 211 
Q 4966 172 5100 153 
L 5125 131 
L 5125 0 
L 5100 -25 
Q 4572 -9 4420 34 
Q 4269 78 4141 183 
Q 4013 288 3644 700 
Q 3297 1088 2969 1413 
L 2881 1413 
L 2881 1163 
Q 2881 1056 2889 782 
Q 2897 509 2903 428 
Q 2909 347 2939 300 
Q 2969 253 3059 217 
Q 3150 181 3341 153 
L 3366 131 
L 3366 0 
L 3341 -25 
Q 2906 0 2634 0 
Q 2359 0 1925 -25 
L 1903 0 
z
" transform="scale(0.015625)"/>
      <path id="Palatino-Roman-443" d="M -41 -1081 
L 56 -1063 
Q 138 -1244 259 -1301 
Q 381 -1359 541 -1359 
Q 834 -1359 1028 -1154 
Q 1222 -950 1559 -150 
L 928 1347 
L 475 2403 
Q 416 2541 337 2619 
Q 259 2697 22 2738 
L 0 2763 
L 0 2894 
L 22 2916 
Q 394 2891 697 2891 
Q 1031 2891 1363 2916 
L 1388 2894 
L 1388 2763 
L 1363 2738 
Q 1122 2697 1072 2656 
Q 1022 2616 1022 2563 
Q 1022 2522 1037 2478 
Q 1053 2434 1175 2138 
L 1809 597 
L 1869 597 
L 2409 1909 
Q 2569 2297 2592 2375 
Q 2616 2453 2616 2506 
Q 2616 2575 2572 2623 
Q 2528 2672 2459 2690 
Q 2391 2709 2203 2738 
L 2181 2763 
L 2181 2894 
L 2203 2916 
Q 2544 2891 2803 2891 
Q 3094 2891 3341 2916 
L 3366 2894 
L 3366 2763 
L 3341 2738 
Q 3188 2716 3097 2650 
Q 2978 2559 2834 2294 
Q 2728 2097 2219 925 
L 1528 -650 
Q 1272 -1225 1098 -1433 
Q 925 -1641 736 -1731 
Q 547 -1822 316 -1822 
Q 156 -1822 22 -1763 
Q 9 -1388 -41 -1081 
z
" transform="scale(0.015625)"/>
      <path id="Palatino-Roman-430" d="M 663 2119 
L 541 2150 
L 516 2181 
Q 519 2231 519 2309 
L 516 2569 
Q 853 2788 1087 2884 
Q 1322 2981 1597 2981 
Q 2081 2981 2362 2728 
Q 2644 2475 2644 2041 
L 2628 1413 
L 2628 481 
Q 2628 313 2656 259 
Q 2684 206 2732 187 
Q 2781 169 2934 156 
L 2959 128 
L 2959 3 
L 2934 -22 
Q 2691 0 2553 0 
Q 2422 0 2147 -22 
L 2100 22 
L 2113 525 
L 1713 213 
Q 1503 47 1431 -6 
Q 1259 -78 1056 -78 
Q 684 -78 470 120 
Q 256 319 256 659 
Q 256 1013 440 1236 
Q 625 1459 998 1586 
Q 1372 1713 2113 1816 
Q 2113 2009 2086 2146 
Q 2059 2284 1957 2407 
Q 1856 2531 1701 2593 
Q 1547 2656 1353 2656 
Q 1250 2656 1153 2639 
Q 1056 2622 972 2584 
Q 888 2547 869 2531 
Q 850 2516 834 2475 
Q 825 2456 766 2325 
Q 719 2225 688 2134 
L 663 2119 
z
M 2113 1634 
Q 1391 1519 1098 1348 
Q 806 1178 806 800 
Q 806 556 936 428 
Q 1066 300 1291 300 
Q 1706 300 2113 781 
L 2113 1634 
z
" transform="scale(0.015625)"/>
      <path id="Palatino-Roman-43b" d="M 0 131 
L 25 153 
Q 188 166 286 220 
Q 384 275 559 487 
Q 734 700 1091 1172 
L 1738 2038 
Q 2028 2428 2064 2492 
Q 2100 2556 2100 2591 
Q 2100 2663 2031 2683 
Q 1963 2703 1563 2738 
L 1541 2763 
L 1541 2894 
L 1563 2916 
Q 1863 2891 2272 2891 
Q 2638 2891 2938 2916 
L 2963 2894 
Q 2941 2363 2941 1769 
L 2941 1163 
Q 2941 428 2989 315 
Q 3038 203 3400 153 
L 3425 131 
L 3425 0 
L 3400 -25 
Q 2966 0 2678 0 
Q 2391 0 1956 -25 
L 1934 0 
L 1934 131 
L 1956 153 
Q 2147 181 2236 215 
Q 2325 250 2356 295 
Q 2388 341 2394 406 
Q 2400 472 2409 742 
Q 2419 1013 2419 1163 
L 2419 2584 
L 2372 2584 
L 1647 1553 
L 1084 747 
Q 869 434 853 389 
Q 838 344 838 316 
Q 838 244 911 211 
Q 984 178 1241 153 
L 1266 131 
L 1266 0 
L 1241 -25 
Q 869 0 631 0 
Q 416 0 25 -25 
L 0 0 
L 0 131 
z
" transform="scale(0.015625)"/>
     </defs>
     <use xlink:href="#Palatino-Roman-441"/>
     <use xlink:href="#Palatino-Roman-44b" x="44.384766"/>
     <use xlink:href="#Palatino-Roman-440" x="116.894531"/>
     <use xlink:href="#Palatino-Roman-43e" x="177.001953"/>
     <use xlink:href="#Palatino-Roman-439" x="232.958984"/>
     <use xlink:href="#Palatino-Roman-20" x="296.142578"/>
     <use xlink:href="#Palatino-Roman-436" x="321.142578"/>
     <use xlink:href="#Palatino-Roman-443" x="403.466797"/>
     <use xlink:href="#Palatino-Roman-440" x="456.054688"/>
     <use xlink:href="#Palatino-Roman-43d" x="516.162109"/>
     <use xlink:href="#Palatino-Roman-430" x="574.511719"/>
     <use xlink:href="#Palatino-Roman-43b" x="624.511719"/>
    </g>
   </g>
   <g id="text_3">
    <!-- очистка -->
    <g style="fill: #315f8c" transform="translate(382.240295 145.60501) scale(0.105 -0.105)">
     <use xlink:href="#Palatino-Roman-43e"/>
     <use xlink:href="#Palatino-Roman-447" x="55.957031"/>
     <use xlink:href="#Palatino-Roman-438" x="109.521484"/>
     <use xlink:href="#Palatino-Roman-441" x="172.705078"/>
     <use xlink:href="#Palatino-Roman-442" x="217.089844"/>
     <use xlink:href="#Palatino-Roman-43a" x="264.257812"/>
     <use xlink:href="#Palatino-Roman-430" x="316.650391"/>
    </g>
   </g>
   <g id="text_4">
    <!-- разметка -->
    <g style="fill: #6f5a8f" transform="translate(535.152022 145.544307) scale(0.105 -0.105)">
     <defs>
      <path id="Palatino-Roman-437" d="M 303 900 
L 434 928 
Q 478 631 543 479 
Q 609 328 798 214 
Q 988 100 1253 100 
Q 1625 100 1819 340 
Q 2013 581 2013 900 
Q 2013 1203 1820 1373 
Q 1628 1544 1278 1544 
Q 1147 1544 1006 1519 
L 966 1559 
L 966 1678 
L 1006 1719 
Q 1094 1713 1141 1713 
Q 1456 1713 1625 1886 
Q 1794 2059 1794 2328 
Q 1794 2566 1641 2705 
Q 1488 2844 1219 2844 
Q 997 2844 842 2759 
Q 688 2675 608 2547 
Q 528 2419 497 2244 
L 378 2244 
Q 397 2563 397 2834 
Q 859 2997 1359 2997 
Q 2328 2997 2328 2416 
Q 2328 2156 2153 1968 
Q 1978 1781 1684 1725 
L 1684 1663 
Q 1838 1663 2081 1597 
Q 2325 1531 2473 1357 
Q 2622 1184 2622 916 
Q 2622 644 2464 405 
Q 2306 166 1993 41 
Q 1681 -84 1309 -84 
Q 797 -84 291 131 
Q 309 447 309 609 
Q 309 709 303 900 
z
" transform="scale(0.015625)"/>
      <path id="Palatino-Roman-43c" d="M 3372 2916 
Q 3628 2897 3822 2897 
Q 4056 2897 4309 2916 
L 4334 2894 
L 4334 2763 
L 4309 2738 
Q 4075 2716 4023 2695 
Q 3972 2675 3940 2614 
Q 3909 2553 3903 2309 
Q 3897 2066 3897 1713 
L 3897 1181 
Q 3897 950 3903 642 
Q 3909 334 3942 275 
Q 3975 216 4026 195 
Q 4078 175 4309 153 
L 4334 131 
L 4334 0 
L 4309 -25 
Q 4000 0 3634 0 
Q 3256 0 2963 -25 
L 2938 0 
L 2938 131 
L 2963 153 
Q 3197 175 3248 195 
Q 3300 216 3331 277 
Q 3363 338 3367 580 
Q 3372 822 3372 1181 
L 3372 2372 
L 3338 2372 
L 2184 0 
L 2081 0 
L 969 2372 
L 934 2372 
L 963 747 
Q 966 566 966 522 
Q 966 331 991 273 
Q 1016 216 1080 194 
Q 1144 172 1375 153 
L 1400 131 
L 1400 0 
L 1375 -25 
Q 1094 0 822 0 
Q 584 0 294 -25 
L 269 0 
L 269 131 
L 294 153 
Q 559 172 621 197 
Q 684 222 706 292 
Q 728 363 728 747 
L 741 2144 
Q 741 2503 722 2579 
Q 703 2656 645 2686 
Q 588 2716 294 2738 
L 269 2763 
L 269 2894 
L 294 2916 
Q 613 2897 797 2897 
Q 991 2897 1278 2916 
L 2272 747 
L 2319 747 
L 3372 2916 
z
" transform="scale(0.015625)"/>
      <path id="Palatino-Roman-435" d="M 2763 459 
L 2663 234 
Q 2338 25 2083 -37 
Q 1828 -100 1628 -100 
Q 1253 -100 917 47 
Q 581 194 370 544 
Q 159 894 159 1388 
Q 159 1716 240 1980 
Q 322 2244 411 2372 
Q 500 2500 712 2656 
Q 925 2813 1162 2906 
Q 1400 3000 1675 3000 
Q 2050 3000 2336 2823 
Q 2622 2647 2737 2372 
Q 2853 2097 2853 1788 
Q 2853 1691 2844 1600 
L 2809 1566 
Q 2597 1519 2237 1503 
Q 1878 1488 1763 1488 
L 759 1488 
Q 766 841 1084 534 
Q 1403 228 1866 228 
Q 2084 228 2286 303 
Q 2488 378 2713 513 
L 2763 459 
z
M 759 1738 
Q 816 1728 1192 1715 
Q 1569 1703 1750 1703 
Q 2184 1703 2278 1719 
Q 2281 1794 2281 1834 
Q 2281 2319 2084 2555 
Q 1888 2791 1547 2791 
Q 1175 2791 967 2525 
Q 759 2259 759 1738 
z
" transform="scale(0.015625)"/>
     </defs>
     <use xlink:href="#Palatino-Roman-440"/>
     <use xlink:href="#Palatino-Roman-430" x="60.107422"/>
     <use xlink:href="#Palatino-Roman-437" x="110.107422"/>
     <use xlink:href="#Palatino-Roman-43c" x="154.394531"/>
     <use xlink:href="#Palatino-Roman-435" x="227.783203"/>
     <use xlink:href="#Palatino-Roman-442" x="275.683594"/>
     <use xlink:href="#Palatino-Roman-43a" x="322.851562"/>
     <use xlink:href="#Palatino-Roman-430" x="375.244141"/>
    </g>
   </g>
   <g id="text_5">
    <!-- релиз -->
    <g style="fill: #b94a3b" transform="translate(662.000453 145.544307) scale(0.105 -0.105)">
     <use xlink:href="#Palatino-Roman-440"/>
     <use xlink:href="#Palatino-Roman-435" x="60.107422"/>
     <use xlink:href="#Palatino-Roman-43b" x="108.007812"/>
     <use xlink:href="#Palatino-Roman-438" x="165.380859"/>
     <use xlink:href="#Palatino-Roman-437" x="228.564453"/>
    </g>
   </g>
   <g id="text_6">
    <!-- кто и когда? -->
    <g style="fill: #696d65" transform="translate(90.326462 277.249052) scale(0.102 -0.102)">
     <defs>
      <path id="Palatino-Roman-433" d="M 247 2894 
L 272 2916 
Q 597 2891 938 2891 
Q 1728 2891 1931 2897 
Q 2134 2903 2541 2934 
L 2566 2909 
Q 2516 2559 2494 2181 
L 2472 2156 
L 2366 2156 
L 2344 2181 
Q 2309 2434 2287 2509 
Q 2266 2584 2223 2625 
Q 2181 2666 2120 2680 
Q 2059 2694 1872 2694 
L 1278 2694 
L 1253 2672 
L 1253 1163 
Q 1253 428 1303 315 
Q 1353 203 1716 153 
L 1738 131 
L 1738 0 
L 1716 -25 
Q 1278 0 994 0 
Q 703 0 272 -25 
L 247 0 
L 247 131 
L 272 153 
Q 459 181 550 215 
Q 641 250 670 295 
Q 700 341 708 406 
Q 716 472 723 745 
Q 731 1019 731 1163 
L 731 1728 
Q 731 2466 682 2578 
Q 634 2691 272 2738 
L 247 2763 
L 247 2894 
z
" transform="scale(0.015625)"/>
      <path id="Palatino-Roman-434" d="M 1481 2763 
L 1481 2894 
L 1503 2916 
Q 1806 2891 2191 2891 
Q 2525 2891 2828 2916 
L 2853 2894 
Q 2841 2659 2841 1553 
Q 2841 1100 2831 222 
L 2853 197 
Q 3134 200 3403 228 
L 3444 188 
Q 3297 -272 3159 -953 
L 3025 -953 
Q 3025 -809 3011 -506 
Q 2997 -203 2967 -143 
Q 2938 -84 2847 -45 
Q 2756 -6 2475 -6 
L 2372 -6 
L 1550 0 
Q 1313 0 984 -11 
Q 656 -22 595 -40 
Q 534 -59 496 -109 
Q 459 -159 445 -271 
Q 431 -384 431 -781 
Q 431 -853 434 -953 
L 300 -953 
Q 163 -213 0 231 
L 41 275 
Q 259 241 406 231 
L 1438 1672 
Q 1972 2416 2008 2491 
Q 2044 2566 2044 2603 
Q 2044 2691 1897 2700 
L 1503 2738 
L 1481 2763 
z
M 2278 2550 
Q 1259 1069 713 197 
L 2341 197 
L 2334 1363 
Q 2331 2219 2322 2550 
L 2278 2550 
z
" transform="scale(0.015625)"/>
      <path id="Palatino-Roman-3f" d="M 1231 1103 
Q 950 1297 950 1597 
Q 950 1759 1033 1921 
Q 1116 2084 1428 2434 
Q 1741 2784 1853 3009 
Q 1931 3172 1931 3344 
Q 1931 3641 1712 3850 
Q 1494 4059 1150 4059 
Q 1050 4059 950 4039 
Q 850 4019 750 3975 
Q 688 3909 647 3841 
Q 578 3725 466 3475 
L 300 3494 
L 278 3525 
L 522 4266 
Q 722 4388 908 4444 
Q 1094 4500 1322 4500 
Q 1672 4500 1950 4370 
Q 2228 4241 2373 4003 
Q 2519 3766 2519 3488 
Q 2519 3275 2439 3079 
Q 2359 2884 2217 2721 
Q 2075 2559 1739 2257 
Q 1403 1956 1294 1769 
Q 1219 1644 1219 1525 
Q 1219 1441 1256 1359 
Q 1278 1303 1363 1203 
L 1231 1103 
z
M 1266 716 
Q 1422 716 1531 606 
Q 1641 497 1641 341 
Q 1641 188 1531 78 
Q 1422 -31 1266 -31 
Q 1113 -31 1002 78 
Q 891 188 891 341 
Q 891 497 1000 606 
Q 1109 716 1266 716 
z
" transform="scale(0.015625)"/>
     </defs>
     <use xlink:href="#Palatino-Roman-43a"/>
     <use xlink:href="#Palatino-Roman-442" x="52.392578"/>
     <use xlink:href="#Palatino-Roman-43e" x="99.560547"/>
     <use xlink:href="#Palatino-Roman-20" x="155.517578"/>
     <use xlink:href="#Palatino-Roman-438" x="180.517578"/>
     <use xlink:href="#Palatino-Roman-20" x="243.701172"/>
     <use xlink:href="#Palatino-Roman-43a" x="268.701172"/>
     <use xlink:href="#Palatino-Roman-43e" x="321.09375"/>
     <use xlink:href="#Palatino-Roman-433" x="377.050781"/>
     <use xlink:href="#Palatino-Roman-434" x="417.089844"/>
     <use xlink:href="#Palatino-Roman-430" x="472.265625"/>
     <use xlink:href="#Palatino-Roman-3f" x="522.265625"/>
    </g>
   </g>
   <g id="text_7">
    <!-- что удалено? -->
    <g style="fill: #696d65" transform="translate(244.439314 277.155021) scale(0.102 -0.102)">
     <use xlink:href="#Palatino-Roman-447"/>
     <use xlink:href="#Palatino-Roman-442" x="53.564453"/>
     <use xlink:href="#Palatino-Roman-43e" x="100.732422"/>
     <use xlink:href="#Palatino-Roman-20" x="156.689453"/>
     <use xlink:href="#Palatino-Roman-443" x="181.689453"/>
     <use xlink:href="#Palatino-Roman-434" x="234.277344"/>
     <use xlink:href="#Palatino-Roman-430" x="289.453125"/>
     <use xlink:href="#Palatino-Roman-43b" x="339.453125"/>
     <use xlink:href="#Palatino-Roman-435" x="396.826172"/>
     <use xlink:href="#Palatino-Roman-43d" x="444.726562"/>
     <use xlink:href="#Palatino-Roman-43e" x="503.076172"/>
     <use xlink:href="#Palatino-Roman-3f" x="559.033203"/>
    </g>
   </g>
   <g id="text_8">
    <!-- по какому правилу? -->
    <g style="fill: #696d65" transform="translate(383.02426 277.155021) scale(0.102 -0.102)">
     <defs>
      <path id="Palatino-Roman-43f" d="M 247 0 
L 247 131 
L 272 153 
Q 459 181 550 215 
Q 641 250 670 295 
Q 700 341 708 406 
Q 716 472 723 745 
Q 731 1019 731 1163 
L 731 1728 
Q 731 2466 682 2578 
Q 634 2691 272 2738 
L 247 2763 
L 247 2894 
L 272 2916 
Q 1213 2891 2034 2891 
Q 2803 2891 3800 2916 
L 3822 2894 
L 3822 2763 
L 3800 2738 
Q 3600 2709 3519 2676 
Q 3438 2644 3408 2608 
Q 3378 2572 3368 2519 
Q 3359 2466 3348 2183 
Q 3338 1900 3338 1728 
L 3338 1163 
Q 3338 425 3388 314 
Q 3438 203 3800 153 
L 3822 131 
L 3822 0 
L 3800 -25 
Q 3363 0 3075 0 
Q 2797 0 2353 -25 
L 2331 0 
L 2331 131 
L 2353 153 
Q 2722 203 2769 318 
Q 2816 434 2816 1163 
L 2816 2672 
L 2791 2694 
L 1278 2694 
L 1253 2672 
L 1253 1163 
Q 1253 428 1303 315 
Q 1353 203 1716 153 
L 1738 131 
L 1738 0 
L 1716 -25 
Q 1278 0 994 0 
Q 703 0 272 -25 
L 247 0 
z
" transform="scale(0.015625)"/>
      <path id="Palatino-Roman-432" d="M 191 0 
L 191 131 
L 216 153 
Q 450 175 500 195 
Q 550 216 583 275 
Q 616 334 622 562 
Q 628 791 628 1181 
L 628 1713 
Q 628 1956 622 2257 
Q 616 2559 581 2618 
Q 547 2678 495 2698 
Q 444 2719 216 2738 
L 191 2763 
L 191 2894 
L 216 2916 
Q 644 2891 866 2891 
Q 972 2891 1163 2897 
Q 1709 2913 1913 2913 
Q 2272 2913 2440 2753 
Q 2609 2594 2609 2353 
Q 2609 1841 1913 1653 
Q 2344 1628 2550 1439 
Q 2756 1250 2756 947 
Q 2756 575 2473 278 
Q 2191 -19 1566 -19 
Q 1522 -19 1381 -13 
Q 1122 0 969 0 
Q 591 -13 216 -25 
L 191 0 
z
M 1122 1691 
Q 1247 1684 1322 1684 
Q 1756 1684 1929 1826 
Q 2103 1969 2103 2219 
Q 2103 2438 1964 2580 
Q 1825 2722 1472 2722 
Q 1316 2722 1144 2706 
L 1122 1691 
z
M 1122 1503 
L 1144 200 
Q 1300 178 1488 178 
Q 1759 178 1920 284 
Q 2081 391 2150 544 
Q 2219 697 2219 875 
Q 2219 1081 2125 1237 
Q 2031 1394 1851 1453 
Q 1672 1513 1356 1513 
Q 1275 1513 1122 1503 
z
" transform="scale(0.015625)"/>
     </defs>
     <use xlink:href="#Palatino-Roman-43f"/>
     <use xlink:href="#Palatino-Roman-43e" x="63.574219"/>
     <use xlink:href="#Palatino-Roman-20" x="119.53125"/>
     <use xlink:href="#Palatino-Roman-43a" x="144.53125"/>
     <use xlink:href="#Palatino-Roman-430" x="196.923828"/>
     <use xlink:href="#Palatino-Roman-43a" x="246.923828"/>
     <use xlink:href="#Palatino-Roman-43e" x="299.316406"/>
     <use xlink:href="#Palatino-Roman-43c" x="355.273438"/>
     <use xlink:href="#Palatino-Roman-443" x="428.662109"/>
     <use xlink:href="#Palatino-Roman-20" x="481.25"/>
     <use xlink:href="#Palatino-Roman-43f" x="506.25"/>
     <use xlink:href="#Palatino-Roman-440" x="569.824219"/>
     <use xlink:href="#Palatino-Roman-430" x="629.931641"/>
     <use xlink:href="#Palatino-Roman-432" x="679.931641"/>
     <use xlink:href="#Palatino-Roman-438" x="727.099609"/>
     <use xlink:href="#Palatino-Roman-43b" x="790.283203"/>
     <use xlink:href="#Palatino-Roman-443" x="847.65625"/>
     <use xlink:href="#Palatino-Roman-3f" x="900.244141"/>
    </g>
   </g>
   <g id="text_9">
    <!-- кто согласовал? -->
    <g style="fill: #696d65" transform="translate(531.513953 277.249052) scale(0.102 -0.102)">
     <use xlink:href="#Palatino-Roman-43a"/>
     <use xlink:href="#Palatino-Roman-442" x="52.392578"/>
     <use xlink:href="#Palatino-Roman-43e" x="99.560547"/>
     <use xlink:href="#Palatino-Roman-20" x="155.517578"/>
     <use xlink:href="#Palatino-Roman-441" x="180.517578"/>
     <use xlink:href="#Palatino-Roman-43e" x="224.902344"/>
     <use xlink:href="#Palatino-Roman-433" x="280.859375"/>
     <use xlink:href="#Palatino-Roman-43b" x="320.898438"/>
     <use xlink:href="#Palatino-Roman-430" x="378.271484"/>
     <use xlink:href="#Palatino-Roman-441" x="428.271484"/>
     <use xlink:href="#Palatino-Roman-43e" x="472.65625"/>
     <use xlink:href="#Palatino-Roman-432" x="528.613281"/>
     <use xlink:href="#Palatino-Roman-430" x="575.78125"/>
     <use xlink:href="#Palatino-Roman-43b" x="625.78125"/>
     <use xlink:href="#Palatino-Roman-3f" x="683.154297"/>
    </g>
   </g>
   <g id="text_10">
    <!-- provenance превращает файл в воспроизводимый объект -->
    <g style="fill: #171915" transform="translate(215.378744 71.908581) scale(0.125 -0.125)">
     <defs>
      <path id="Palatino-Roman-70" d="M 113 2572 
L 113 2753 
Q 169 2753 350 2779 
Q 531 2806 753 2870 
Q 975 2934 1088 2994 
Q 1122 3013 1144 3013 
Q 1166 3013 1180 2997 
Q 1194 2981 1194 2944 
Q 1194 2928 1191 2869 
Q 1184 2778 1184 2703 
L 1184 2372 
Q 1713 2863 1844 2925 
Q 2016 3009 2356 3009 
Q 2753 3009 3040 2829 
Q 3328 2650 3458 2364 
Q 3588 2078 3588 1753 
Q 3588 1556 3542 1381 
Q 3497 1206 3426 1051 
Q 3356 897 3270 767 
Q 3184 638 3109 572 
Q 3066 531 2883 384 
Q 2700 238 2492 130 
Q 2284 22 2203 -3 
Q 2025 -59 1825 -59 
Q 1669 -59 1520 -21 
Q 1372 16 1184 106 
L 1184 -391 
Q 1200 -1181 1203 -1263 
Q 1206 -1416 1241 -1488 
Q 1253 -1522 1279 -1542 
Q 1306 -1563 1356 -1572 
Q 1384 -1578 1728 -1584 
L 1728 -1763 
Q 1338 -1747 694 -1747 
Q 338 -1747 147 -1763 
L 147 -1584 
L 444 -1581 
Q 509 -1578 545 -1558 
Q 581 -1538 600 -1506 
Q 634 -1444 644 -1284 
Q 647 -1244 663 -391 
L 663 719 
Q 663 1259 650 1828 
Q 638 2397 623 2448 
Q 609 2500 578 2526 
Q 547 2553 497 2563 
L 113 2572 
z
M 1184 644 
Q 1350 475 1562 378 
Q 1775 281 2009 281 
Q 2294 281 2526 423 
Q 2759 566 2895 866 
Q 3031 1166 3031 1519 
Q 3031 1859 2901 2111 
Q 2772 2363 2534 2489 
Q 2297 2616 2056 2616 
Q 1878 2616 1704 2545 
Q 1531 2475 1390 2340 
Q 1250 2206 1203 2084 
Q 1184 2025 1184 1856 
L 1184 644 
z
" transform="scale(0.015625)"/>
      <path id="Palatino-Roman-72" d="M 147 0 
L 147 178 
Q 500 184 528 191 
Q 581 200 607 220 
Q 634 241 650 278 
Q 681 350 688 503 
Q 706 1338 706 1375 
L 706 1747 
Q 706 1997 697 2284 
Q 691 2469 670 2503 
Q 650 2538 598 2555 
Q 547 2572 191 2569 
L 191 2747 
Q 822 2834 1113 2975 
Q 1175 3006 1197 3006 
Q 1219 3006 1231 2990 
Q 1244 2975 1244 2944 
Q 1244 2922 1241 2894 
Q 1225 2703 1222 2303 
Q 1363 2466 1481 2625 
Q 1600 2784 1653 2831 
Q 1747 2913 1869 2961 
Q 1991 3009 2122 3009 
Q 2253 3009 2381 2953 
L 2400 2909 
Q 2353 2494 2347 2178 
L 2206 2178 
Q 2134 2328 2039 2397 
Q 1944 2466 1800 2466 
Q 1559 2466 1390 2267 
Q 1222 2069 1222 1672 
L 1222 1350 
Q 1222 1144 1238 597 
Q 1241 403 1253 350 
Q 1266 297 1286 273 
Q 1306 250 1353 234 
Q 1447 206 1859 178 
L 1859 0 
Q 1309 22 922 22 
Q 522 22 147 0 
z
" transform="scale(0.015625)"/>
      <path id="Palatino-Roman-6f" d="M 213 1438 
Q 213 2138 658 2580 
Q 1103 3022 1800 3022 
Q 2456 3022 2868 2609 
Q 3281 2197 3281 1544 
Q 3281 1088 3068 709 
Q 2856 331 2468 117 
Q 2081 -97 1616 -97 
Q 1253 -97 1001 25 
Q 750 147 594 331 
Q 438 516 356 709 
Q 213 1050 213 1438 
z
M 803 1669 
Q 803 1284 931 887 
Q 1059 491 1301 308 
Q 1544 125 1828 125 
Q 2191 125 2434 412 
Q 2678 700 2678 1297 
Q 2678 1794 2533 2155 
Q 2388 2516 2163 2664 
Q 1938 2813 1666 2813 
Q 1281 2813 1042 2534 
Q 803 2256 803 1669 
z
" transform="scale(0.015625)"/>
      <path id="Palatino-Roman-76" d="M 1594 -31 
Q 1472 288 1425 397 
L 1169 994 
L 528 2484 
Q 466 2625 422 2672 
Q 378 2719 325 2731 
Q 281 2744 94 2750 
L 94 2938 
Q 613 2916 850 2916 
Q 1113 2916 1569 2938 
L 1569 2750 
Q 1231 2741 1172 2706 
Q 1113 2672 1113 2613 
Q 1113 2519 1238 2209 
L 1619 1259 
L 1709 1047 
Q 1863 675 1919 550 
L 2231 1259 
Q 2259 1322 2516 1963 
Q 2666 2334 2716 2531 
Q 2728 2584 2728 2625 
Q 2728 2678 2688 2700 
Q 2613 2741 2288 2750 
L 2288 2938 
Q 2753 2916 2884 2916 
Q 2994 2916 3481 2938 
L 3481 2750 
Q 3288 2741 3223 2705 
Q 3159 2669 3097 2556 
Q 3053 2481 2759 1881 
L 2459 1241 
Q 2381 1069 1919 -31 
L 1594 -31 
z
" transform="scale(0.015625)"/>
      <path id="Palatino-Roman-65" d="M 2763 484 
L 2663 259 
Q 2447 125 2347 81 
Q 2200 16 2011 -29 
Q 1822 -75 1613 -75 
Q 1200 -75 865 97 
Q 531 269 345 611 
Q 159 953 159 1413 
Q 159 1772 257 2061 
Q 356 2350 481 2488 
Q 572 2588 762 2717 
Q 953 2847 1141 2922 
Q 1388 3025 1675 3025 
Q 2025 3025 2308 2865 
Q 2591 2706 2722 2431 
Q 2853 2156 2853 1809 
Q 2853 1722 2841 1597 
Q 2616 1553 2438 1541 
Q 2100 1516 1763 1516 
L 759 1516 
Q 766 1069 914 792 
Q 1063 516 1323 384 
Q 1584 253 1866 253 
Q 2056 253 2245 314 
Q 2434 375 2713 538 
L 2763 484 
z
M 759 1763 
Q 847 1753 1091 1744 
Q 1556 1728 1731 1728 
Q 2147 1728 2278 1744 
Q 2281 1819 2281 1859 
Q 2281 2353 2081 2584 
Q 1881 2816 1547 2816 
Q 1194 2816 978 2562 
Q 763 2309 759 1763 
z
" transform="scale(0.015625)"/>
      <path id="Palatino-Roman-6e" d="M 88 0 
L 88 178 
L 384 181 
Q 450 184 486 204 
Q 522 225 541 256 
Q 575 319 584 478 
Q 584 519 603 1375 
L 603 1747 
Q 603 1997 594 2284 
Q 584 2469 564 2503 
Q 544 2538 494 2555 
Q 444 2572 88 2569 
L 88 2747 
Q 719 2834 1009 2975 
Q 1072 3006 1094 3006 
Q 1116 3006 1128 2990 
Q 1141 2975 1141 2944 
Q 1141 2922 1138 2894 
Q 1128 2781 1119 2419 
L 1700 2916 
Q 1956 3009 2184 3009 
Q 2438 3009 2664 2906 
Q 2891 2803 3005 2647 
Q 3119 2491 3156 2253 
Q 3178 2113 3178 1469 
L 3178 916 
Q 3178 509 3200 363 
Q 3216 269 3248 233 
Q 3281 197 3350 188 
L 3684 178 
L 3684 0 
Q 3378 22 3175 22 
Q 3000 22 2594 0 
Q 2638 772 2638 975 
L 2638 1500 
Q 2638 1991 2600 2144 
Q 2547 2353 2359 2481 
Q 2172 2609 1906 2609 
Q 1672 2609 1478 2498 
Q 1284 2388 1201 2242 
Q 1119 2097 1119 1753 
L 1119 1375 
Q 1138 563 1138 497 
Q 1144 341 1175 269 
Q 1188 241 1213 220 
Q 1238 200 1291 188 
Q 1309 184 1634 178 
L 1634 0 
Q 1253 22 944 22 
Q 681 22 88 0 
z
" transform="scale(0.015625)"/>
      <path id="Palatino-Roman-61" d="M 678 2141 
L 513 2184 
Q 516 2256 516 2381 
Q 516 2513 513 2591 
Q 909 2850 1163 2941 
Q 1356 3006 1597 3006 
Q 1953 3006 2197 2872 
Q 2441 2738 2559 2488 
Q 2641 2313 2641 2009 
L 2628 1438 
L 2628 506 
Q 2628 356 2653 291 
Q 2672 244 2713 222 
Q 2744 203 2844 197 
L 3047 178 
L 3047 0 
Q 2791 22 2597 22 
Q 2409 22 2097 0 
L 2113 550 
Q 1475 69 1356 8 
Q 1238 -53 1056 -53 
Q 678 -53 467 148 
Q 256 350 256 684 
Q 256 900 329 1078 
Q 403 1256 506 1361 
Q 609 1466 716 1516 
Q 897 1600 1305 1697 
Q 1713 1794 2113 1841 
Q 2116 2138 2041 2303 
Q 1966 2469 1787 2575 
Q 1609 2681 1353 2681 
Q 1169 2681 1030 2631 
Q 891 2581 859 2547 
L 803 2434 
Q 719 2247 678 2141 
z
M 2113 1650 
Q 1706 1581 1418 1497 
Q 1131 1413 1013 1322 
Q 941 1269 888 1163 
Q 806 1006 806 816 
Q 806 584 934 454 
Q 1063 325 1291 325 
Q 1500 325 1704 445 
Q 1909 566 2113 806 
L 2113 1650 
z
" transform="scale(0.015625)"/>
      <path id="Palatino-Roman-63" d="M 2713 359 
L 2588 150 
Q 2372 34 2161 -19 
Q 1950 -72 1684 -72 
Q 1028 -72 639 323 
Q 250 719 250 1409 
Q 250 1775 354 2045 
Q 459 2316 613 2463 
Q 716 2566 1005 2730 
Q 1294 2894 1409 2941 
Q 1622 3031 1919 3031 
Q 2200 3031 2425 2972 
Q 2569 2934 2713 2847 
Q 2675 2606 2659 2482 
Q 2644 2359 2619 2034 
L 2441 2034 
Q 2422 2338 2403 2413 
Q 2391 2459 2347 2497 
Q 2234 2584 2057 2648 
Q 1881 2713 1672 2713 
Q 1409 2713 1217 2605 
Q 1025 2497 919 2262 
Q 813 2028 813 1681 
Q 813 1256 963 912 
Q 1113 569 1370 411 
Q 1628 253 1947 253 
Q 2106 253 2257 292 
Q 2409 331 2647 441 
L 2713 359 
z
" transform="scale(0.015625)"/>
      <path id="Palatino-Roman-449" d="M 247 0 
L 247 131 
L 272 153 
Q 459 181 550 215 
Q 641 250 670 295 
Q 700 341 708 406 
Q 716 472 723 745 
Q 731 1019 731 1163 
L 731 1728 
Q 731 2466 682 2578 
Q 634 2691 272 2738 
L 247 2763 
L 247 2894 
L 272 2916 
Q 706 2891 994 2891 
Q 1281 2891 1716 2916 
L 1738 2894 
L 1738 2763 
L 1716 2738 
Q 1516 2709 1436 2676 
Q 1356 2644 1325 2608 
Q 1294 2572 1284 2519 
Q 1275 2466 1264 2180 
Q 1253 1894 1253 1728 
L 1253 222 
L 1278 197 
L 2594 197 
L 2619 222 
L 2619 1728 
Q 2619 1834 2611 2107 
Q 2603 2381 2597 2464 
Q 2591 2547 2561 2592 
Q 2531 2638 2440 2675 
Q 2350 2713 2156 2738 
L 2134 2763 
L 2134 2894 
L 2156 2916 
Q 2594 2891 2878 2891 
Q 3169 2891 3600 2916 
L 3625 2894 
L 3625 2763 
L 3600 2738 
Q 3234 2691 3187 2573 
Q 3141 2456 3141 1728 
L 3141 222 
L 3163 197 
L 4481 197 
L 4503 222 
L 4503 1728 
Q 4503 2466 4454 2578 
Q 4406 2691 4044 2738 
L 4019 2763 
L 4019 2894 
L 4044 2916 
Q 4478 2891 4766 2891 
Q 5056 2891 5488 2916 
L 5513 2894 
L 5513 2763 
L 5488 2738 
Q 5122 2691 5073 2573 
Q 5025 2456 5025 1728 
L 5025 222 
L 5050 197 
Q 5306 203 5541 228 
L 5581 188 
Q 5400 -366 5297 -1013 
L 5163 -1013 
L 5147 -488 
Q 5138 -225 5108 -161 
Q 5078 -97 4987 -56 
Q 4897 -16 4666 -16 
L 2978 0 
L 1613 -9 
L 725 -16 
Q 450 -16 272 -25 
L 247 0 
z
" transform="scale(0.015625)"/>
      <path id="Palatino-Roman-444" d="M 1600 4241 
L 1600 4372 
L 1625 4394 
Q 2216 4488 2694 4631 
L 2734 4591 
Q 2722 4334 2716 3931 
L 2700 3041 
Q 3663 3009 4164 2589 
Q 4666 2169 4666 1488 
Q 4666 759 4128 326 
Q 3591 -106 2700 -119 
L 2700 -609 
Q 2700 -1350 2750 -1459 
Q 2800 -1569 3163 -1619 
L 3184 -1644 
L 3184 -1775 
L 3163 -1797 
Q 2744 -1772 2441 -1772 
Q 2131 -1772 1719 -1797 
L 1694 -1775 
L 1694 -1644 
L 1719 -1619 
Q 1909 -1591 1998 -1558 
Q 2088 -1525 2117 -1479 
Q 2147 -1434 2155 -1368 
Q 2163 -1303 2170 -1031 
Q 2178 -759 2178 -609 
L 2178 -119 
Q 1288 -106 750 326 
Q 213 759 213 1488 
Q 213 2169 716 2589 
Q 1219 3009 2178 3041 
Q 2166 3863 2153 3977 
Q 2141 4091 2058 4147 
Q 1975 4203 1625 4216 
L 1600 4241 
z
M 2178 2878 
Q 1519 2875 1178 2526 
Q 838 2178 838 1506 
Q 838 831 1175 437 
Q 1513 44 2178 28 
L 2178 2878 
z
M 2700 2878 
L 2700 28 
Q 3363 41 3702 433 
Q 4041 825 4041 1506 
Q 4041 2178 3698 2528 
Q 3356 2878 2700 2878 
z
" transform="scale(0.015625)"/>
      <path id="Palatino-Roman-431" d="M 2975 4616 
L 3053 4531 
Q 2906 4200 2820 4054 
Q 2734 3909 2632 3853 
Q 2531 3797 2291 3797 
L 1588 3775 
Q 1209 3766 1021 3700 
Q 834 3634 707 3493 
Q 581 3353 507 3093 
Q 434 2834 428 2269 
L 475 2269 
Q 744 2675 1072 2836 
Q 1400 2997 1838 2997 
Q 2563 2997 2964 2658 
Q 3366 2319 3366 1591 
Q 3366 800 2934 358 
Q 2503 -84 1781 -84 
Q 1231 -84 901 125 
Q 572 334 392 789 
Q 213 1244 213 1988 
Q 213 2509 313 2953 
Q 413 3397 583 3676 
Q 753 3956 975 4087 
Q 1197 4219 1472 4248 
Q 1747 4278 2266 4291 
Q 2572 4297 2690 4340 
Q 2809 4384 2975 4616 
z
M 794 1531 
Q 794 1166 842 936 
Q 891 706 1017 506 
Q 1144 306 1334 200 
Q 1525 94 1775 94 
Q 2300 94 2539 531 
Q 2778 969 2778 1588 
Q 2778 2116 2540 2469 
Q 2303 2822 1809 2822 
Q 1341 2822 1067 2476 
Q 794 2131 794 1531 
z
" transform="scale(0.015625)"/>
      <path id="Palatino-Roman-44a" d="M 794 0 
L 794 131 
L 819 153 
Q 1016 184 1097 215 
Q 1178 247 1208 283 
Q 1238 319 1248 372 
Q 1259 425 1268 706 
Q 1278 988 1278 1163 
L 1278 1678 
Q 1278 2216 1259 2672 
L 1222 2713 
L 684 2713 
Q 466 2713 398 2677 
Q 331 2641 287 2562 
Q 244 2484 138 2128 
L 113 2103 
L 25 2103 
L 0 2128 
Q 28 2531 28 2809 
Q 28 2831 25 2894 
L 50 2916 
L 781 2900 
Q 1094 2891 1541 2891 
Q 1822 2891 2263 2916 
L 2284 2894 
L 2284 2763 
L 2263 2738 
Q 1894 2691 1847 2573 
Q 1800 2456 1800 1728 
L 1800 1675 
Q 2072 1691 2297 1691 
Q 2709 1691 2937 1622 
Q 3166 1553 3319 1358 
Q 3472 1163 3472 878 
Q 3472 594 3305 375 
Q 3138 156 2894 65 
Q 2650 -25 2291 -25 
Q 2181 -25 1891 -13 
Q 1650 0 1541 0 
Q 1250 0 819 -25 
L 794 0 
z
M 1800 1528 
L 1800 959 
Q 1806 488 1814 358 
Q 1822 228 1869 183 
Q 1916 138 2078 138 
Q 2369 138 2558 253 
Q 2747 369 2828 553 
Q 2909 738 2909 944 
Q 2909 1153 2826 1286 
Q 2744 1419 2584 1476 
Q 2425 1534 2131 1534 
Q 2016 1534 1800 1528 
z
" transform="scale(0.015625)"/>
     </defs>
     <use xlink:href="#Palatino-Roman-70"/>
     <use xlink:href="#Palatino-Roman-72" x="60.107422"/>
     <use xlink:href="#Palatino-Roman-6f" x="97.859375"/>
     <use xlink:href="#Palatino-Roman-76" x="152.449219"/>
     <use xlink:href="#Palatino-Roman-65" x="208.943359"/>
     <use xlink:href="#Palatino-Roman-6e" x="256.84375"/>
     <use xlink:href="#Palatino-Roman-61" x="315.046875"/>
     <use xlink:href="#Palatino-Roman-6e" x="365.046875"/>
     <use xlink:href="#Palatino-Roman-63" x="423.25"/>
     <use xlink:href="#Palatino-Roman-65" x="467.634766"/>
     <use xlink:href="#Palatino-Roman-20" x="515.535156"/>
     <use xlink:href="#Palatino-Roman-43f" x="540.535156"/>
     <use xlink:href="#Palatino-Roman-440" x="604.109375"/>
     <use xlink:href="#Palatino-Roman-435" x="664.216797"/>
     <use xlink:href="#Palatino-Roman-432" x="712.117188"/>
     <use xlink:href="#Palatino-Roman-440" x="759.285156"/>
     <use xlink:href="#Palatino-Roman-430" x="819.392578"/>
     <use xlink:href="#Palatino-Roman-449" x="869.392578"/>
     <use xlink:href="#Palatino-Roman-430" x="959.333984"/>
     <use xlink:href="#Palatino-Roman-435" x="1009.333984"/>
     <use xlink:href="#Palatino-Roman-442" x="1057.234375"/>
     <use xlink:href="#Palatino-Roman-20" x="1104.402344"/>
     <use xlink:href="#Palatino-Roman-444" x="1129.402344"/>
     <use xlink:href="#Palatino-Roman-430" x="1205.671875"/>
     <use xlink:href="#Palatino-Roman-439" x="1255.671875"/>
     <use xlink:href="#Palatino-Roman-43b" x="1318.855469"/>
     <use xlink:href="#Palatino-Roman-20" x="1376.228516"/>
     <use xlink:href="#Palatino-Roman-432" x="1401.228516"/>
     <use xlink:href="#Palatino-Roman-20" x="1448.396484"/>
     <use xlink:href="#Palatino-Roman-432" x="1473.396484"/>
     <use xlink:href="#Palatino-Roman-43e" x="1520.564453"/>
     <use xlink:href="#Palatino-Roman-441" x="1576.521484"/>
     <use xlink:href="#Palatino-Roman-43f" x="1620.90625"/>
     <use xlink:href="#Palatino-Roman-440" x="1684.480469"/>
     <use xlink:href="#Palatino-Roman-43e" x="1744.587891"/>
     <use xlink:href="#Palatino-Roman-438" x="1800.544922"/>
     <use xlink:href="#Palatino-Roman-437" x="1863.728516"/>
     <use xlink:href="#Palatino-Roman-432" x="1908.015625"/>
     <use xlink:href="#Palatino-Roman-43e" x="1955.183594"/>
     <use xlink:href="#Palatino-Roman-434" x="2011.140625"/>
     <use xlink:href="#Palatino-Roman-438" x="2066.316406"/>
     <use xlink:href="#Palatino-Roman-43c" x="2129.5"/>
     <use xlink:href="#Palatino-Roman-44b" x="2202.888672"/>
     <use xlink:href="#Palatino-Roman-439" x="2275.398438"/>
     <use xlink:href="#Palatino-Roman-20" x="2338.582031"/>
     <use xlink:href="#Palatino-Roman-43e" x="2363.582031"/>
     <use xlink:href="#Palatino-Roman-431" x="2419.539062"/>
     <use xlink:href="#Palatino-Roman-44a" x="2475.496094"/>
     <use xlink:href="#Palatino-Roman-435" x="2533.113281"/>
     <use xlink:href="#Palatino-Roman-43a" x="2581.013672"/>
     <use xlink:href="#Palatino-Roman-442" x="2633.40625"/>
    </g>
   </g>
  </g>
 </g>
 <defs>
  <clipPath id="p81ef94dfa6">
   <rect x="11.52" y="11.52" width="742.79952" height="411.59952"/>
  </clipPath>
 </defs>
</svg>
