<?xml version='1.0' encoding='utf-8'?>
<svg xmlns="http://www.w3.org/2000/svg" xmlns:dc="http://purl.org/dc/elements/1.1/" xmlns:ns2="http://creativecommons.org/ns#" xmlns:rdf="http://www.w3.org/1999/02/22-rdf-syntax-ns#" width="662.4pt" height="377.76pt" viewBox="0 0 662.4 377.76" version="1.1" role="img">
 <title>Матрица style mixing отделяет масштабы</title><desc>Сетка генераций с coarse style по строкам fine style по столбцам. Строки задают $w_A$ на слоях $4$–$32$, столбцы — $w_B$ на $64$–$1024$. Поля фигуры перечисляют наблюдаемые изменения: ракурс и форма следуют строкам, текстура и фон чаще следуют столбцам. Исключения отмечены, а не скрыты.</desc><metadata>
  <rdf:RDF>
   <ns2:Work>
    <dc:type rdf:resource="http://purl.org/dc/dcmitype/StillImage" />
    <dc:date>2026-07-18T10:23:39.096424</dc:date>
    <dc:format>image/svg+xml</dc:format>
    <dc:creator>
     <ns2:Agent>
      <dc:title>Matplotlib v3.9.4, https://matplotlib.org/</dc:title>
     </ns2:Agent>
    </dc:creator>
   </ns2:Work>
  </rdf:RDF>
 </metadata>
 <defs>
  <style type="text/css">*{stroke-linejoin: round; stroke-linecap: butt}</style>
 </defs>
 <g id="figure_1">
  <g id="patch_1">
   <path d="M 0 377.76  L 662.4 377.76  L 662.4 0  L 0 0  z " style="fill: #fffdf7" />
  </g>
  <g id="axes_1">
   <g id="patch_2">
    <path d="M 75.8448 307.798848  L 164.2752 307.798848  L 164.2752 266.094144  L 75.8448 266.094144  z " clip-path="url(#pd774001bd1)" style="fill: #f4f0e8; stroke: #dedbd2; stroke-width: 0.8; stroke-linejoin: miter" />
   </g>
   <g id="patch_3">
    <path d="M 120.06 294.244819  C 125.688484 294.244819 131.087197 293.256108 135.067137 291.496439  C 139.047076 289.736769 141.283296 287.34981 141.283296 284.861261  C 141.283296 282.372712 139.047076 279.985753 135.067137 278.226083  C 131.087197 276.466413 125.688484 275.477702 120.06 275.477702  C 114.431516 275.477702 109.032803 276.466413 105.052863 278.226083  C 101.072924 279.985753 98.836704 282.372712 98.836704 284.861261  C 98.836704 287.34981 101.072924 289.736769 105.052863 291.496439  C 109.032803 293.256108 114.431516 294.244819 120.06 294.244819  z " clip-path="url(#pd774001bd1)" style="fill: #315f8c; opacity: 0.82" />
   </g>
   <g id="patch_4">
    <path d="M 184.90896 307.798848  L 273.33936 307.798848  L 273.33936 266.094144  L 184.90896 266.094144  z " clip-path="url(#pd774001bd1)" style="fill: #f4f0e8; stroke: #dedbd2; stroke-width: 0.8; stroke-linejoin: miter" />
   </g>
   <g id="patch_5">
    <path d="M 199.057824 300.292001  L 259.190496 300.292001  L 233.54568 273.600991  z " clip-path="url(#pd774001bd1)" style="fill: #315f8c; opacity: 0.82" />
   </g>
   <g id="patch_6">
    <path d="M 293.97312 307.798848  L 382.40352 307.798848  L 382.40352 266.094144  L 293.97312 266.094144  z " clip-path="url(#pd774001bd1)" style="fill: #f4f0e8; stroke: #dedbd2; stroke-width: 0.8; stroke-linejoin: miter" />
   </g>
   <g id="patch_7">
    <path d="M 403.03728 307.798848  L 491.46768 307.798848  L 491.46768 266.094144  L 403.03728 266.094144  z " clip-path="url(#pd774001bd1)" style="fill: #f4f0e8; stroke: #dedbd2; stroke-width: 0.8; stroke-linejoin: miter" />
   </g>
   <g id="patch_8">
    <path d="M 427.797792 297.893981  C 430.612034 297.893981 433.311391 297.399625 435.30136 296.51979  C 437.29133 295.639956 438.40944 294.446476 438.40944 293.202202  C 438.40944 291.957927 437.29133 290.764448 435.30136 289.884613  C 433.311391 289.004778 430.612034 288.510422 427.797792 288.510422  C 424.98355 288.510422 422.284193 289.004778 420.294224 289.884613  C 418.304254 290.764448 417.186144 291.957927 417.186144 293.202202  C 417.186144 294.446476 418.304254 295.639956 420.294224 296.51979  C 422.284193 297.399625 424.98355 297.893981 427.797792 297.893981  z " clip-path="url(#pd774001bd1)" style="fill: #315f8c; opacity: 0.78" />
   </g>
   <g id="patch_9">
    <path d="M 447.25248 290.387134  C 450.066722 290.387134 452.766079 289.892779 454.756048 289.012944  C 456.746018 288.133109 457.864128 286.939629 457.864128 285.695355  C 457.864128 284.45108 456.746018 283.257601 454.756048 282.377766  C 452.766079 281.497931 450.066722 281.003576 447.25248 281.003576  C 444.438238 281.003576 441.738881 281.497931 439.748912 282.377766  C 437.758942 283.257601 436.640832 284.45108 436.640832 285.695355  C 436.640832 286.939629 437.758942 288.133109 439.748912 289.012944  C 441.738881 289.892779 444.438238 290.387134 447.25248 290.387134  z " clip-path="url(#pd774001bd1)" style="fill: #315f8c; opacity: 0.78" />
   </g>
   <g id="patch_10">
    <path d="M 466.707168 297.893981  C 469.52141 297.893981 472.220767 297.399625 474.210736 296.51979  C 476.200706 295.639956 477.318816 294.446476 477.318816 293.202202  C 477.318816 291.957927 476.200706 290.764448 474.210736 289.884613  C 472.220767 289.004778 469.52141 288.510422 466.707168 288.510422  C 463.892926 288.510422 461.193569 289.004778 459.2036 289.884613  C 457.21363 290.764448 456.09552 291.957927 456.09552 293.202202  C 456.09552 294.446476 457.21363 295.639956 459.2036 296.51979  C 461.193569 297.399625 463.892926 297.893981 466.707168 297.893981  z " clip-path="url(#pd774001bd1)" style="fill: #315f8c; opacity: 0.78" />
   </g>
   <g id="patch_11">
    <path d="M 512.10144 307.798848  L 600.53184 307.798848  L 600.53184 266.094144  L 512.10144 266.094144  z " clip-path="url(#pd774001bd1)" style="fill: #f4f0e8; stroke: #dedbd2; stroke-width: 0.8; stroke-linejoin: miter" />
   </g>
   <g id="patch_12">
    <path d="M 556.31664 294.244819  C 561.945124 294.244819 567.343837 293.256108 571.323777 291.496439  C 575.303716 289.736769 577.539936 287.34981 577.539936 284.861261  C 577.539936 282.372712 575.303716 279.985753 571.323777 278.226083  C 567.343837 276.466413 561.945124 275.477702 556.31664 275.477702  C 550.688156 275.477702 545.289443 276.466413 541.309503 278.226083  C 537.329564 279.985753 535.093344 282.372712 535.093344 284.861261  C 535.093344 287.34981 537.329564 289.736769 541.309503 291.496439  C 545.289443 293.256108 550.688156 294.244819 556.31664 294.244819  z " clip-path="url(#pd774001bd1)" style="fill: #315f8c; opacity: 0.82" />
   </g>
   <g id="patch_13">
    <path d="M 75.8448 254.364696  L 164.2752 254.364696  L 164.2752 212.659992  L 75.8448 212.659992  z " clip-path="url(#pd774001bd1)" style="fill: #f4f0e8; stroke: #dedbd2; stroke-width: 0.8; stroke-linejoin: miter" />
   </g>
   <g id="patch_14">
    <path d="M 89.993664 246.857849  L 150.126336 246.857849  L 124.48152 220.166839  z " clip-path="url(#pd774001bd1)" style="fill: #b94a3b; opacity: 0.82" />
   </g>
   <g id="patch_15">
    <path d="M 184.90896 254.364696  L 273.33936 254.364696  L 273.33936 212.659992  L 184.90896 212.659992  z " clip-path="url(#pd774001bd1)" style="fill: #f4f0e8; stroke: #dedbd2; stroke-width: 0.8; stroke-linejoin: miter" />
   </g>
   <g id="patch_16">
    <path d="M 293.97312 254.364696  L 382.40352 254.364696  L 382.40352 212.659992  L 293.97312 212.659992  z " clip-path="url(#pd774001bd1)" style="fill: #f4f0e8; stroke: #dedbd2; stroke-width: 0.8; stroke-linejoin: miter" />
   </g>
   <g id="patch_17">
    <path d="M 318.733632 244.459829  C 321.547874 244.459829 324.247231 243.965473 326.2372 243.085638  C 328.22717 242.205804 329.34528 241.012324 329.34528 239.76805  C 329.34528 238.523775 328.22717 237.330296 326.2372 236.450461  C 324.247231 235.570626 321.547874 235.07627 318.733632 235.07627  C 315.91939 235.07627 313.220033 235.570626 311.230064 236.450461  C 309.240094 237.330296 308.121984 238.523775 308.121984 239.76805  C 308.121984 241.012324 309.240094 242.205804 311.230064 243.085638  C 313.220033 243.965473 315.91939 244.459829 318.733632 244.459829  z " clip-path="url(#pd774001bd1)" style="fill: #b94a3b; opacity: 0.78" />
   </g>
   <g id="patch_18">
    <path d="M 338.18832 236.952982  C 341.002562 236.952982 343.701919 236.458627 345.691888 235.578792  C 347.681858 234.698957 348.799968 233.505477 348.799968 232.261203  C 348.799968 231.016928 347.681858 229.823449 345.691888 228.943614  C 343.701919 228.063779 341.002562 227.569424 338.18832 227.569424  C 335.374078 227.569424 332.674721 228.063779 330.684752 228.943614  C 328.694782 229.823449 327.576672 231.016928 327.576672 232.261203  C 327.576672 233.505477 328.694782 234.698957 330.684752 235.578792  C 332.674721 236.458627 335.374078 236.952982 338.18832 236.952982  z " clip-path="url(#pd774001bd1)" style="fill: #b94a3b; opacity: 0.78" />
   </g>
   <g id="patch_19">
    <path d="M 357.643008 244.459829  C 360.45725 244.459829 363.156607 243.965473 365.146576 243.085638  C 367.136546 242.205804 368.254656 241.012324 368.254656 239.76805  C 368.254656 238.523775 367.136546 237.330296 365.146576 236.450461  C 363.156607 235.570626 360.45725 235.07627 357.643008 235.07627  C 354.828766 235.07627 352.129409 235.570626 350.13944 236.450461  C 348.14947 237.330296 347.03136 238.523775 347.03136 239.76805  C 347.03136 241.012324 348.14947 242.205804 350.13944 243.085638  C 352.129409 243.965473 354.828766 244.459829 357.643008 244.459829  z " clip-path="url(#pd774001bd1)" style="fill: #b94a3b; opacity: 0.78" />
   </g>
   <g id="patch_20">
    <path d="M 403.03728 254.364696  L 491.46768 254.364696  L 491.46768 212.659992  L 403.03728 212.659992  z " clip-path="url(#pd774001bd1)" style="fill: #f4f0e8; stroke: #dedbd2; stroke-width: 0.8; stroke-linejoin: miter" />
   </g>
   <g id="patch_21">
    <path d="M 447.25248 240.810667  C 452.880964 240.810667 458.279677 239.821956 462.259617 238.062287  C 466.239556 236.302617 468.475776 233.915658 468.475776 231.427109  C 468.475776 228.93856 466.239556 226.551601 462.259617 224.791931  C 458.279677 223.032261 452.880964 222.04355 447.25248 222.04355  C 441.623996 222.04355 436.225283 223.032261 432.245343 224.791931  C 428.265404 226.551601 426.029184 228.93856 426.029184 231.427109  C 426.029184 233.915658 428.265404 236.302617 432.245343 238.062287  C 436.225283 239.821956 441.623996 240.810667 447.25248 240.810667  z " clip-path="url(#pd774001bd1)" style="fill: #b94a3b; opacity: 0.82" />
   </g>
   <g id="patch_22">
    <path d="M 512.10144 254.364696  L 600.53184 254.364696  L 600.53184 212.659992  L 512.10144 212.659992  z " clip-path="url(#pd774001bd1)" style="fill: #f4f0e8; stroke: #dedbd2; stroke-width: 0.8; stroke-linejoin: miter" />
   </g>
   <g id="patch_23">
    <path d="M 526.250304 246.857849  L 586.382976 246.857849  L 560.73816 220.166839  z " clip-path="url(#pd774001bd1)" style="fill: #b94a3b; opacity: 0.82" />
   </g>
   <g id="patch_24">
    <path d="M 75.8448 200.930544  L 164.2752 200.930544  L 164.2752 159.22584  L 75.8448 159.22584  z " clip-path="url(#pd774001bd1)" style="fill: #f4f0e8; stroke: #dedbd2; stroke-width: 0.8; stroke-linejoin: miter" />
   </g>
   <g id="patch_25">
    <path d="M 184.90896 200.930544  L 273.33936 200.930544  L 273.33936 159.22584  L 184.90896 159.22584  z " clip-path="url(#pd774001bd1)" style="fill: #f4f0e8; stroke: #dedbd2; stroke-width: 0.8; stroke-linejoin: miter" />
   </g>
   <g id="patch_26">
    <path d="M 209.669472 191.025677  C 212.483714 191.025677 215.183071 190.531321 217.17304 189.651486  C 219.16301 188.771652 220.28112 187.578172 220.28112 186.333898  C 220.28112 185.089623 219.16301 183.896144 217.17304 183.016309  C 215.183071 182.136474 212.483714 181.642118 209.669472 181.642118  C 206.85523 181.642118 204.155873 182.136474 202.165904 183.016309  C 200.175934 183.896144 199.057824 185.089623 199.057824 186.333898  C 199.057824 187.578172 200.175934 188.771652 202.165904 189.651486  C 204.155873 190.531321 206.85523 191.025677 209.669472 191.025677  z " clip-path="url(#pd774001bd1)" style="fill: #38735d; opacity: 0.78" />
   </g>
   <g id="patch_27">
    <path d="M 229.12416 183.51883  C 231.938402 183.51883 234.637759 183.024475 236.627728 182.14464  C 238.617698 181.264805 239.735808 180.071325 239.735808 178.827051  C 239.735808 177.582776 238.617698 176.389297 236.627728 175.509462  C 234.637759 174.629627 231.938402 174.135272 229.12416 174.135272  C 226.309918 174.135272 223.610561 174.629627 221.620592 175.509462  C 219.630622 176.389297 218.512512 177.582776 218.512512 178.827051  C 218.512512 180.071325 219.630622 181.264805 221.620592 182.14464  C 223.610561 183.024475 226.309918 183.51883 229.12416 183.51883  z " clip-path="url(#pd774001bd1)" style="fill: #38735d; opacity: 0.78" />
   </g>
   <g id="patch_28">
    <path d="M 248.578848 191.025677  C 251.39309 191.025677 254.092447 190.531321 256.082416 189.651486  C 258.072386 188.771652 259.190496 187.578172 259.190496 186.333898  C 259.190496 185.089623 258.072386 183.896144 256.082416 183.016309  C 254.092447 182.136474 251.39309 181.642118 248.578848 181.642118  C 245.764606 181.642118 243.065249 182.136474 241.07528 183.016309  C 239.08531 183.896144 237.9672 185.089623 237.9672 186.333898  C 237.9672 187.578172 239.08531 188.771652 241.07528 189.651486  C 243.065249 190.531321 245.764606 191.025677 248.578848 191.025677  z " clip-path="url(#pd774001bd1)" style="fill: #38735d; opacity: 0.78" />
   </g>
   <g id="patch_29">
    <path d="M 293.97312 200.930544  L 382.40352 200.930544  L 382.40352 159.22584  L 293.97312 159.22584  z " clip-path="url(#pd774001bd1)" style="fill: #f4f0e8; stroke: #dedbd2; stroke-width: 0.8; stroke-linejoin: miter" />
   </g>
   <g id="patch_30">
    <path d="M 338.18832 187.376515  C 343.816804 187.376515 349.215517 186.387804 353.195457 184.628135  C 357.175396 182.868465 359.411616 180.481506 359.411616 177.992957  C 359.411616 175.504408 357.175396 173.117449 353.195457 171.357779  C 349.215517 169.598109 343.816804 168.609398 338.18832 168.609398  C 332.559836 168.609398 327.161123 169.598109 323.181183 171.357779  C 319.201244 173.117449 316.965024 175.504408 316.965024 177.992957  C 316.965024 180.481506 319.201244 182.868465 323.181183 184.628135  C 327.161123 186.387804 332.559836 187.376515 338.18832 187.376515  z " clip-path="url(#pd774001bd1)" style="fill: #38735d; opacity: 0.82" />
   </g>
   <g id="patch_31">
    <path d="M 403.03728 200.930544  L 491.46768 200.930544  L 491.46768 159.22584  L 403.03728 159.22584  z " clip-path="url(#pd774001bd1)" style="fill: #f4f0e8; stroke: #dedbd2; stroke-width: 0.8; stroke-linejoin: miter" />
   </g>
   <g id="patch_32">
    <path d="M 417.186144 193.423697  L 477.318816 193.423697  L 451.674 166.732687  z " clip-path="url(#pd774001bd1)" style="fill: #38735d; opacity: 0.82" />
   </g>
   <g id="patch_33">
    <path d="M 512.10144 200.930544  L 600.53184 200.930544  L 600.53184 159.22584  L 512.10144 159.22584  z " clip-path="url(#pd774001bd1)" style="fill: #f4f0e8; stroke: #dedbd2; stroke-width: 0.8; stroke-linejoin: miter" />
   </g>
   <g id="patch_34">
    <path d="M 75.8448 147.496392  L 164.2752 147.496392  L 164.2752 105.791688  L 75.8448 105.791688  z " clip-path="url(#pd774001bd1)" style="fill: #f4f0e8; stroke: #dedbd2; stroke-width: 0.8; stroke-linejoin: miter" />
   </g>
   <g id="patch_35">
    <path d="M 100.605312 137.591525  C 103.419554 137.591525 106.118911 137.097169 108.10888 136.217334  C 110.09885 135.3375 111.21696 134.14402 111.21696 132.899746  C 111.21696 131.655471 110.09885 130.461992 108.10888 129.582157  C 106.118911 128.702322 103.419554 128.207966 100.605312 128.207966  C 97.79107 128.207966 95.091713 128.702322 93.101744 129.582157  C 91.111774 130.461992 89.993664 131.655471 89.993664 132.899746  C 89.993664 134.14402 91.111774 135.3375 93.101744 136.217334  C 95.091713 137.097169 97.79107 137.591525 100.605312 137.591525  z " clip-path="url(#pd774001bd1)" style="fill: #a57920; opacity: 0.78" />
   </g>
   <g id="patch_36">
    <path d="M 120.06 130.084678  C 122.874242 130.084678 125.573599 129.590323 127.563568 128.710488  C 129.553538 127.830653 130.671648 126.637173 130.671648 125.392899  C 130.671648 124.148624 129.553538 122.955145 127.563568 122.07531  C 125.573599 121.195475 122.874242 120.70112 120.06 120.70112  C 117.245758 120.70112 114.546401 121.195475 112.556432 122.07531  C 110.566462 122.955145 109.448352 124.148624 109.448352 125.392899  C 109.448352 126.637173 110.566462 127.830653 112.556432 128.710488  C 114.546401 129.590323 117.245758 130.084678 120.06 130.084678  z " clip-path="url(#pd774001bd1)" style="fill: #a57920; opacity: 0.78" />
   </g>
   <g id="patch_37">
    <path d="M 139.514688 137.591525  C 142.32893 137.591525 145.028287 137.097169 147.018256 136.217334  C 149.008226 135.3375 150.126336 134.14402 150.126336 132.899746  C 150.126336 131.655471 149.008226 130.461992 147.018256 129.582157  C 145.028287 128.702322 142.32893 128.207966 139.514688 128.207966  C 136.700446 128.207966 134.001089 128.702322 132.01112 129.582157  C 130.02115 130.461992 128.90304 131.655471 128.90304 132.899746  C 128.90304 134.14402 130.02115 135.3375 132.01112 136.217334  C 134.001089 137.097169 136.700446 137.591525 139.514688 137.591525  z " clip-path="url(#pd774001bd1)" style="fill: #a57920; opacity: 0.78" />
   </g>
   <g id="patch_38">
    <path d="M 184.90896 147.496392  L 273.33936 147.496392  L 273.33936 105.791688  L 184.90896 105.791688  z " clip-path="url(#pd774001bd1)" style="fill: #f4f0e8; stroke: #dedbd2; stroke-width: 0.8; stroke-linejoin: miter" />
   </g>
   <g id="patch_39">
    <path d="M 229.12416 133.942363  C 234.752644 133.942363 240.151357 132.953652 244.131297 131.193983  C 248.111236 129.434313 250.347456 127.047354 250.347456 124.558805  C 250.347456 122.070256 248.111236 119.683297 244.131297 117.923627  C 240.151357 116.163957 234.752644 115.175246 229.12416 115.175246  C 223.495676 115.175246 218.096963 116.163957 214.117023 117.923627  C 210.137084 119.683297 207.900864 122.070256 207.900864 124.558805  C 207.900864 127.047354 210.137084 129.434313 214.117023 131.193983  C 218.096963 132.953652 223.495676 133.942363 229.12416 133.942363  z " clip-path="url(#pd774001bd1)" style="fill: #a57920; opacity: 0.82" />
   </g>
   <g id="patch_40">
    <path d="M 293.97312 147.496392  L 382.40352 147.496392  L 382.40352 105.791688  L 293.97312 105.791688  z " clip-path="url(#pd774001bd1)" style="fill: #f4f0e8; stroke: #dedbd2; stroke-width: 0.8; stroke-linejoin: miter" />
   </g>
   <g id="patch_41">
    <path d="M 308.121984 139.989545  L 368.254656 139.989545  L 342.60984 113.298535  z " clip-path="url(#pd774001bd1)" style="fill: #a57920; opacity: 0.82" />
   </g>
   <g id="patch_42">
    <path d="M 403.03728 147.496392  L 491.46768 147.496392  L 491.46768 105.791688  L 403.03728 105.791688  z " clip-path="url(#pd774001bd1)" style="fill: #f4f0e8; stroke: #dedbd2; stroke-width: 0.8; stroke-linejoin: miter" />
   </g>
   <g id="patch_43">
    <path d="M 512.10144 147.496392  L 600.53184 147.496392  L 600.53184 105.791688  L 512.10144 105.791688  z " clip-path="url(#pd774001bd1)" style="fill: #f4f0e8; stroke: #dedbd2; stroke-width: 0.8; stroke-linejoin: miter" />
   </g>
   <g id="patch_44">
    <path d="M 536.861952 137.591525  C 539.676194 137.591525 542.375551 137.097169 544.36552 136.217334  C 546.35549 135.3375 547.4736 134.14402 547.4736 132.899746  C 547.4736 131.655471 546.35549 130.461992 544.36552 129.582157  C 542.375551 128.702322 539.676194 128.207966 536.861952 128.207966  C 534.04771 128.207966 531.348353 128.702322 529.358384 129.582157  C 527.368414 130.461992 526.250304 131.655471 526.250304 132.899746  C 526.250304 134.14402 527.368414 135.3375 529.358384 136.217334  C 531.348353 137.097169 534.04771 137.591525 536.861952 137.591525  z " clip-path="url(#pd774001bd1)" style="fill: #a57920; opacity: 0.78" />
   </g>
   <g id="patch_45">
    <path d="M 556.31664 130.084678  C 559.130882 130.084678 561.830239 129.590323 563.820208 128.710488  C 565.810178 127.830653 566.928288 126.637173 566.928288 125.392899  C 566.928288 124.148624 565.810178 122.955145 563.820208 122.07531  C 561.830239 121.195475 559.130882 120.70112 556.31664 120.70112  C 553.502398 120.70112 550.803041 121.195475 548.813072 122.07531  C 546.823102 122.955145 545.704992 124.148624 545.704992 125.392899  C 545.704992 126.637173 546.823102 127.830653 548.813072 128.710488  C 550.803041 129.590323 553.502398 130.084678 556.31664 130.084678  z " clip-path="url(#pd774001bd1)" style="fill: #a57920; opacity: 0.78" />
   </g>
   <g id="patch_46">
    <path d="M 575.771328 137.591525  C 578.58557 137.591525 581.284927 137.097169 583.274896 136.217334  C 585.264866 135.3375 586.382976 134.14402 586.382976 132.899746  C 586.382976 131.655471 585.264866 130.461992 583.274896 129.582157  C 581.284927 128.702322 578.58557 128.207966 575.771328 128.207966  C 572.957086 128.207966 570.257729 128.702322 568.26776 129.582157  C 566.27779 130.461992 565.15968 131.655471 565.15968 132.899746  C 565.15968 134.14402 566.27779 135.3375 568.26776 136.217334  C 570.257729 137.097169 572.957086 137.591525 575.771328 137.591525  z " clip-path="url(#pd774001bd1)" style="fill: #a57920; opacity: 0.78" />
   </g>
   <g id="line2d_1">
    <path d="M 304.584768 297.372672  L 371.791872 276.52032  " clip-path="url(#pd774001bd1)" style="fill: none; stroke: #315f8c; stroke-opacity: 0.82; stroke-width: 3; stroke-linecap: square" />
   </g>
   <g id="line2d_2">
    <path d="M 304.584768 277.771461  L 371.791872 295.287437  " clip-path="url(#pd774001bd1)" style="fill: none; stroke: #315f8c; stroke-opacity: 0.65; stroke-width: 1.4; stroke-linecap: square" />
   </g>
   <g id="line2d_3">
    <path d="M 195.520608 243.93852  L 262.727712 223.086168  " clip-path="url(#pd774001bd1)" style="fill: none; stroke: #b94a3b; stroke-opacity: 0.82; stroke-width: 3; stroke-linecap: square" />
   </g>
   <g id="line2d_4">
    <path d="M 195.520608 224.337309  L 262.727712 241.853285  " clip-path="url(#pd774001bd1)" style="fill: none; stroke: #b94a3b; stroke-opacity: 0.65; stroke-width: 1.4; stroke-linecap: square" />
   </g>
   <g id="line2d_5">
    <path d="M 86.456448 190.504368  L 153.663552 169.652016  " clip-path="url(#pd774001bd1)" style="fill: none; stroke: #38735d; stroke-opacity: 0.82; stroke-width: 3; stroke-linecap: square" />
   </g>
   <g id="line2d_6">
    <path d="M 86.456448 170.903157  L 153.663552 188.419133  " clip-path="url(#pd774001bd1)" style="fill: none; stroke: #38735d; stroke-opacity: 0.65; stroke-width: 1.4; stroke-linecap: square" />
   </g>
   <g id="line2d_7">
    <path d="M 522.713088 190.504368  L 589.920192 169.652016  " clip-path="url(#pd774001bd1)" style="fill: none; stroke: #38735d; stroke-opacity: 0.82; stroke-width: 3; stroke-linecap: square" />
   </g>
   <g id="line2d_8">
    <path d="M 522.713088 170.903157  L 589.920192 188.419133  " clip-path="url(#pd774001bd1)" style="fill: none; stroke: #38735d; stroke-opacity: 0.65; stroke-width: 1.4; stroke-linecap: square" />
   </g>
   <g id="line2d_9">
    <path d="M 413.648928 137.070216  L 480.856032 116.217864  " clip-path="url(#pd774001bd1)" style="fill: none; stroke: #a57920; stroke-opacity: 0.82; stroke-width: 3; stroke-linecap: square" />
   </g>
   <g id="line2d_10">
    <path d="M 413.648928 117.469005  L 480.856032 134.984981  " clip-path="url(#pd774001bd1)" style="fill: none; stroke: #a57920; stroke-opacity: 0.65; stroke-width: 1.4; stroke-linecap: square" />
   </g>
   <g id="text_1">
    <text style="fill: #68716b; font: 10.5px 'Palatino'; text-anchor: middle" x="341.136" y="83.636064" transform="rotate(-0 341.136 83.636064)">fine style  &gt;</text>
   </g>
   <g id="text_2">
    <text style="fill: #68716b; font: 10.5px 'Palatino'" transform="translate(48.597219 212.960016) rotate(-90)">coarse</text>
    <text style="fill: #68716b; font: 10.5px 'Palatino'" transform="translate(60.656141 209.225133) rotate(-90)">style</text>
   </g>
  </g>
  <g id="text_3">
   <text style="fill: #20231f; font: 15.5px 'Palatino'; text-anchor: start" x="36.432" y="24.49785" transform="rotate(-0 36.432 24.49785)">Матрица style mixing отделяет масштабы</text>
  </g>
  <g id="text_4">
   <text style="fill: #68716b; font: 8.8px 'Palatino'; text-anchor: start" x="36.432" y="365.81075" transform="rotate(-0 36.432 365.81075)">Урок 83 · рисунок 2</text>
  </g>
 </g>
 <defs>
  <clipPath id="pd774001bd1">
   <rect x="46.368" y="67.9968" width="589.536" height="260.6544" />
  </clipPath>
 </defs>
</svg>