<?xml version="1.0" encoding="utf-8" standalone="no"?>
<!DOCTYPE svg PUBLIC "-//W3C//DTD SVG 1.1//EN"
  "http://www.w3.org/Graphics/SVG/1.1/DTD/svg11.dtd">
<svg xmlns:xlink="http://www.w3.org/1999/xlink" width="765.83952pt" height="405.83952pt" viewBox="0 0 765.83952 405.83952" xmlns="http://www.w3.org/2000/svg" version="1.1">
 <title>Учебник ИИ, урок 60, рисунок 3</title>
 <metadata>
  <rdf:RDF xmlns:dc="http://purl.org/dc/elements/1.1/" xmlns:cc="http://creativecommons.org/ns#" xmlns:rdf="http://www.w3.org/1999/02/22-rdf-syntax-ns#">
   <cc:Work>
    <dc:type rdf:resource="http://purl.org/dc/dcmitype/StillImage"/>
    <dc:title>Учебник ИИ, урок 60, рисунок 3</dc:title>
    <dc:date>2026-07-18T10:13:56.350115</dc:date>
    <dc:format>image/svg+xml</dc:format>
    <dc:creator>
     <cc:Agent>
      <dc:title>Matplotlib v3.9.4, https://matplotlib.org/</dc:title>
     </cc:Agent>
    </dc:creator>
   </cc:Work>
  </rdf:RDF>
 </metadata>
 <defs>
  <style type="text/css">*{stroke-linejoin: round; stroke-linecap: butt}</style>
 </defs>
 <g id="figure_1">
  <g id="patch_1">
   <path d="M 0 405.83952 
L 765.83952 405.83952 
L 765.83952 0 
L 0 0 
z
" style="fill: #fffef9"/>
  </g>
  <g id="axes_1">
   <g id="patch_2">
    <path d="M 40.356219 359.347082 
L 374.60076 359.347082 
L 374.60076 11.52 
L 40.356219 11.52 
z
" style="fill: #fffef9"/>
   </g>
   <g id="matplotlib.axis_1">
    <g id="xtick_1">
     <g id="line2d_1">
      <defs>
       <path id="md3cf54fff4" d="M 0 0 
L 0 3 
" style="stroke: #696d65; stroke-width: 0.7"/>
      </defs>
      <g>
       <use xlink:href="#md3cf54fff4" x="51.240859" y="359.347082" style="fill: #696d65; stroke: #696d65; stroke-width: 0.7"/>
      </g>
     </g>
     <g id="text_1">
      <!-- 0.0 -->
      <g style="fill: #696d65" transform="translate(43.615859 374.722582) scale(0.122 -0.122)">
       <defs>
        <path id="Palatino-Roman-30" d="M 194 1934 
Q 194 2825 322 3309 
Q 450 3794 787 4109 
Q 1125 4425 1644 4425 
Q 1906 4425 2129 4336 
Q 2353 4247 2495 4111 
Q 2638 3975 2736 3776 
Q 2834 3578 2875 3378 
Q 2969 2922 2969 2384 
Q 2969 1684 2859 1184 
Q 2797 900 2681 664 
Q 2566 428 2406 262 
Q 2247 97 2022 -1 
Q 1797 -100 1516 -100 
Q 1175 -100 931 44 
Q 688 188 544 413 
Q 344 734 269 1148 
Q 194 1563 194 1934 
z
M 731 2116 
Q 731 1666 790 1233 
Q 850 800 978 531 
Q 1066 350 1234 234 
Q 1403 119 1613 119 
Q 1969 119 2159 416 
Q 2434 841 2434 2106 
Q 2434 2650 2376 3083 
Q 2319 3516 2184 3794 
Q 2097 3972 1939 4086 
Q 1781 4200 1559 4200 
Q 1316 4200 1123 4044 
Q 931 3888 831 3477 
Q 731 3066 731 2116 
z
" transform="scale(0.015625)"/>
        <path id="Palatino-Roman-2e" d="M 800 716 
Q 956 716 1064 606 
Q 1172 497 1172 341 
Q 1172 188 1062 78 
Q 953 -31 800 -31 
Q 644 -31 534 78 
Q 425 188 425 341 
Q 425 497 534 606 
Q 644 716 800 716 
z
" transform="scale(0.015625)"/>
       </defs>
       <use xlink:href="#Palatino-Roman-30"/>
       <use xlink:href="#Palatino-Roman-2e" x="50"/>
       <use xlink:href="#Palatino-Roman-30" x="75"/>
      </g>
     </g>
    </g>
    <g id="xtick_2">
     <g id="line2d_2">
      <g>
       <use xlink:href="#md3cf54fff4" x="99.491626" y="359.347082" style="fill: #696d65; stroke: #696d65; stroke-width: 0.7"/>
      </g>
     </g>
     <g id="text_2">
      <!-- 0.5 -->
      <g style="fill: #696d65" transform="translate(91.866626 374.722582) scale(0.122 -0.122)">
       <defs>
        <path id="Palatino-Roman-35" d="M 413 69 
Q 341 281 297 394 
L 91 903 
L 244 994 
Q 525 481 590 420 
Q 656 359 884 278 
Q 1113 197 1350 197 
Q 1663 197 1898 328 
Q 2134 459 2264 720 
Q 2394 981 2394 1350 
Q 2394 1894 2098 2156 
Q 1803 2419 1400 2419 
Q 1163 2419 969 2328 
Q 822 2256 619 2034 
L 491 2072 
L 528 2844 
Q 534 3019 534 3128 
L 534 3684 
Q 534 3934 519 4184 
Q 513 4281 509 4341 
L 550 4372 
Q 1059 4334 1619 4334 
Q 2094 4334 2756 4372 
L 2772 4341 
Q 2750 4181 2750 4053 
Q 2750 3991 2756 3838 
L 2725 3819 
Q 2291 3847 1425 3847 
Q 1106 3847 822 3838 
Q 775 3406 759 2538 
Q 1009 2719 1209 2789 
Q 1409 2859 1653 2859 
Q 2016 2859 2317 2704 
Q 2619 2550 2781 2259 
Q 2944 1969 2944 1622 
Q 2944 1081 2575 616 
Q 2019 -91 1081 -91 
Q 875 -91 729 -55 
Q 584 -19 413 69 
z
" transform="scale(0.015625)"/>
       </defs>
       <use xlink:href="#Palatino-Roman-30"/>
       <use xlink:href="#Palatino-Roman-2e" x="50"/>
       <use xlink:href="#Palatino-Roman-35" x="75"/>
      </g>
     </g>
    </g>
    <g id="xtick_3">
     <g id="line2d_3">
      <g>
       <use xlink:href="#md3cf54fff4" x="147.742393" y="359.347082" style="fill: #696d65; stroke: #696d65; stroke-width: 0.7"/>
      </g>
     </g>
     <g id="text_3">
      <!-- 1.0 -->
      <g style="fill: #696d65" transform="translate(140.117393 374.722582) scale(0.122 -0.122)">
       <defs>
        <path id="Palatino-Roman-31" d="M 478 3559 
L 422 3575 
L 391 3831 
L 422 3863 
Q 756 3959 1150 4128 
Q 1731 4375 1897 4459 
L 1978 4428 
Q 1928 2997 1928 2784 
L 1928 1625 
Q 1928 931 1944 575 
Q 1953 366 1995 311 
Q 2038 256 2120 232 
Q 2203 209 2663 191 
L 2663 0 
Q 1872 25 1672 25 
Q 1522 25 613 0 
L 613 191 
Q 1088 219 1161 236 
Q 1234 253 1270 287 
Q 1306 322 1322 384 
Q 1347 481 1365 942 
Q 1384 1403 1384 1641 
L 1384 2872 
Q 1384 3625 1381 3816 
Q 1381 3900 1359 3922 
Q 1347 3934 1325 3934 
Q 1297 3934 1181 3884 
Q 650 3647 478 3559 
z
" transform="scale(0.015625)"/>
       </defs>
       <use xlink:href="#Palatino-Roman-31"/>
       <use xlink:href="#Palatino-Roman-2e" x="50"/>
       <use xlink:href="#Palatino-Roman-30" x="75"/>
      </g>
     </g>
    </g>
    <g id="xtick_4">
     <g id="line2d_4">
      <g>
       <use xlink:href="#md3cf54fff4" x="195.993161" y="359.347082" style="fill: #696d65; stroke: #696d65; stroke-width: 0.7"/>
      </g>
     </g>
     <g id="text_4">
      <!-- 1.5 -->
      <g style="fill: #696d65" transform="translate(188.368161 374.722582) scale(0.122 -0.122)">
       <use xlink:href="#Palatino-Roman-31"/>
       <use xlink:href="#Palatino-Roman-2e" x="50"/>
       <use xlink:href="#Palatino-Roman-35" x="75"/>
      </g>
     </g>
    </g>
    <g id="xtick_5">
     <g id="line2d_5">
      <g>
       <use xlink:href="#md3cf54fff4" x="244.243928" y="359.347082" style="fill: #696d65; stroke: #696d65; stroke-width: 0.7"/>
      </g>
     </g>
     <g id="text_5">
      <!-- 2.0 -->
      <g style="fill: #696d65" transform="translate(236.618928 374.722582) scale(0.122 -0.122)">
       <defs>
        <path id="Palatino-Roman-32" d="M 106 0 
L 106 175 
Q 203 297 456 556 
L 1153 1281 
Q 1234 1366 1550 1722 
Q 1788 1994 1922 2217 
Q 2056 2441 2118 2652 
Q 2181 2863 2181 3053 
Q 2181 3378 2000 3616 
Q 1766 3931 1319 3931 
Q 1069 3931 881 3850 
Q 694 3769 630 3670 
Q 566 3572 441 3106 
L 253 3106 
Q 328 3525 359 3969 
Q 556 4156 689 4237 
Q 822 4319 1015 4367 
Q 1209 4416 1438 4416 
Q 1847 4416 2128 4277 
Q 2409 4138 2578 3863 
Q 2747 3588 2747 3241 
Q 2747 2866 2555 2502 
Q 2363 2138 1756 1534 
L 1222 1003 
Q 931 713 781 541 
L 2153 541 
Q 2566 541 2963 581 
L 2984 556 
Q 2966 438 2966 278 
Q 2966 134 2984 34 
L 2963 0 
Q 2741 13 2456 19 
Q 1819 31 1603 31 
Q 1331 31 688 19 
Q 334 13 106 0 
z
" transform="scale(0.015625)"/>
       </defs>
       <use xlink:href="#Palatino-Roman-32"/>
       <use xlink:href="#Palatino-Roman-2e" x="50"/>
       <use xlink:href="#Palatino-Roman-30" x="75"/>
      </g>
     </g>
    </g>
    <g id="xtick_6">
     <g id="line2d_6">
      <g>
       <use xlink:href="#md3cf54fff4" x="292.494695" y="359.347082" style="fill: #696d65; stroke: #696d65; stroke-width: 0.7"/>
      </g>
     </g>
     <g id="text_6">
      <!-- 2.5 -->
      <g style="fill: #696d65" transform="translate(284.869695 374.722582) scale(0.122 -0.122)">
       <use xlink:href="#Palatino-Roman-32"/>
       <use xlink:href="#Palatino-Roman-2e" x="50"/>
       <use xlink:href="#Palatino-Roman-35" x="75"/>
      </g>
     </g>
    </g>
    <g id="xtick_7">
     <g id="line2d_7">
      <g>
       <use xlink:href="#md3cf54fff4" x="340.745462" y="359.347082" style="fill: #696d65; stroke: #696d65; stroke-width: 0.7"/>
      </g>
     </g>
     <g id="text_7">
      <!-- 3.0 -->
      <g style="fill: #696d65" transform="translate(333.120462 374.722582) scale(0.122 -0.122)">
       <defs>
        <path id="Palatino-Roman-33" d="M 325 97 
Q 281 363 247 506 
Q 225 597 106 1022 
L 278 1088 
Q 475 563 729 377 
Q 984 191 1394 191 
Q 1694 191 1898 309 
Q 2103 428 2231 687 
Q 2359 947 2359 1272 
Q 2359 1706 2137 1939 
Q 1916 2172 1541 2172 
Q 1416 2172 1308 2147 
Q 1200 2122 988 2034 
L 950 2066 
L 1019 2406 
Q 1269 2391 1353 2391 
Q 1734 2391 1942 2658 
Q 2150 2925 2150 3263 
Q 2150 3566 1929 3778 
Q 1709 3991 1372 3991 
Q 1169 3991 981 3909 
Q 794 3828 650 3691 
Q 594 3572 472 3244 
L 278 3244 
L 472 3994 
Q 681 4213 866 4300 
Q 1169 4438 1528 4438 
Q 2056 4438 2364 4159 
Q 2672 3881 2672 3484 
Q 2672 3216 2512 2955 
Q 2353 2694 1972 2422 
Q 2325 2375 2529 2261 
Q 2734 2147 2843 1939 
Q 2953 1731 2953 1475 
Q 2953 1103 2718 743 
Q 2484 384 2059 150 
Q 1634 -84 1138 -84 
Q 919 -84 737 -43 
Q 556 -3 325 97 
z
" transform="scale(0.015625)"/>
       </defs>
       <use xlink:href="#Palatino-Roman-33"/>
       <use xlink:href="#Palatino-Roman-2e" x="50"/>
       <use xlink:href="#Palatino-Roman-30" x="75"/>
      </g>
     </g>
    </g>
    <g id="text_8">
     <!-- нормированное расстояние -->
     <g style="fill: #696d65" transform="translate(128.484443 390.88827) scale(0.122 -0.122)">
      <defs>
       <path id="Palatino-Roman-43d" d="M 1078 1628 
Q 1653 1616 1872 1616 
Q 2125 1616 2656 1628 
L 2656 1713 
Q 2656 1944 2650 2250 
Q 2644 2556 2611 2617 
Q 2578 2678 2526 2698 
Q 2475 2719 2244 2738 
L 2219 2763 
L 2219 2894 
L 2244 2916 
Q 2556 2891 2903 2891 
Q 3266 2891 3563 2916 
L 3588 2894 
L 3588 2763 
L 3563 2738 
Q 3328 2716 3276 2695 
Q 3225 2675 3194 2614 
Q 3163 2553 3156 2311 
Q 3150 2069 3150 1713 
L 3150 1181 
L 3156 634 
Q 3163 331 3195 272 
Q 3228 213 3281 194 
Q 3334 175 3563 153 
L 3588 131 
L 3588 0 
L 3563 -25 
Q 3250 0 2903 0 
Q 2541 0 2244 -25 
L 2219 0 
L 2219 131 
L 2244 153 
Q 2478 175 2529 195 
Q 2581 216 2612 275 
Q 2644 334 2650 564 
Q 2656 794 2656 1181 
L 2656 1431 
Q 2309 1441 1872 1441 
Q 1475 1441 1078 1431 
L 1078 1181 
Q 1078 934 1084 632 
Q 1091 331 1123 272 
Q 1156 213 1209 194 
Q 1263 175 1491 153 
L 1516 131 
L 1516 0 
L 1491 -25 
Q 1178 0 831 0 
Q 466 0 172 -25 
L 147 0 
L 147 131 
L 172 153 
Q 406 175 456 195 
Q 506 216 539 275 
Q 572 334 578 562 
Q 584 791 584 1181 
L 584 1713 
Q 584 1956 578 2257 
Q 572 2559 537 2618 
Q 503 2678 451 2698 
Q 400 2719 172 2738 
L 147 2763 
L 147 2894 
L 172 2916 
Q 481 2891 831 2891 
Q 1194 2891 1491 2916 
L 1516 2894 
L 1516 2763 
L 1491 2738 
Q 1256 2716 1204 2697 
Q 1153 2678 1122 2617 
Q 1091 2556 1084 2329 
Q 1078 2103 1078 1713 
L 1078 1628 
z
" transform="scale(0.015625)"/>
       <path id="Palatino-Roman-43e" d="M 3369 1575 
Q 3369 1181 3242 865 
Q 3116 550 2877 323 
Q 2638 97 2383 4 
Q 2128 -88 1784 -88 
Q 1016 -88 614 353 
Q 213 794 213 1453 
Q 213 1906 406 2259 
Q 600 2613 967 2800 
Q 1334 2988 1828 2988 
Q 2309 2988 2650 2808 
Q 2991 2628 3180 2301 
Q 3369 1975 3369 1575 
z
M 2766 1391 
Q 2766 2016 2508 2394 
Q 2250 2772 1753 2772 
Q 1338 2772 1075 2480 
Q 813 2188 813 1597 
Q 813 991 1077 552 
Q 1341 113 1838 113 
Q 2272 113 2519 461 
Q 2766 809 2766 1391 
z
" transform="scale(0.015625)"/>
       <path id="Palatino-Roman-440" d="M 1163 3016 
L 1219 2978 
Q 1188 2609 1184 2347 
Q 1378 2528 1565 2689 
Q 1753 2850 1820 2889 
Q 1888 2928 2022 2956 
Q 2156 2984 2353 2984 
Q 2925 2984 3256 2629 
Q 3588 2275 3588 1719 
Q 3588 1488 3513 1250 
Q 3438 1013 3317 816 
Q 3197 619 3131 564 
Q 3066 509 2766 328 
Q 2644 256 2519 166 
Q 2341 41 2286 8 
Q 2231 -25 2104 -54 
Q 1978 -84 1831 -84 
Q 1506 -84 1184 81 
L 1184 -503 
Q 1184 -741 1198 -1103 
Q 1213 -1466 1239 -1514 
Q 1266 -1563 1314 -1578 
Q 1363 -1594 1616 -1616 
L 1644 -1641 
L 1644 -1772 
L 1616 -1800 
Q 1241 -1775 922 -1775 
Q 603 -1775 228 -1800 
L 203 -1772 
L 203 -1641 
L 228 -1616 
Q 466 -1597 514 -1584 
Q 563 -1572 586 -1545 
Q 609 -1519 623 -1458 
Q 638 -1397 650 -1023 
Q 663 -650 663 -503 
L 663 1894 
Q 663 2034 652 2254 
Q 641 2475 631 2509 
Q 622 2544 586 2567 
Q 550 2591 431 2591 
Q 413 2591 231 2597 
L 203 2622 
L 203 2756 
L 228 2784 
Q 788 2866 1163 3016 
z
M 1184 619 
Q 1544 256 2009 256 
Q 2488 256 2761 615 
Q 3034 975 3034 1494 
Q 3034 1813 2914 2064 
Q 2794 2316 2555 2453 
Q 2316 2591 2059 2591 
Q 1888 2591 1730 2530 
Q 1572 2469 1437 2356 
Q 1303 2244 1250 2150 
Q 1197 2056 1190 2006 
Q 1184 1956 1184 1831 
L 1184 619 
z
" transform="scale(0.015625)"/>
       <path id="Palatino-Roman-43c" d="M 3372 2916 
Q 3628 2897 3822 2897 
Q 4056 2897 4309 2916 
L 4334 2894 
L 4334 2763 
L 4309 2738 
Q 4075 2716 4023 2695 
Q 3972 2675 3940 2614 
Q 3909 2553 3903 2309 
Q 3897 2066 3897 1713 
L 3897 1181 
Q 3897 950 3903 642 
Q 3909 334 3942 275 
Q 3975 216 4026 195 
Q 4078 175 4309 153 
L 4334 131 
L 4334 0 
L 4309 -25 
Q 4000 0 3634 0 
Q 3256 0 2963 -25 
L 2938 0 
L 2938 131 
L 2963 153 
Q 3197 175 3248 195 
Q 3300 216 3331 277 
Q 3363 338 3367 580 
Q 3372 822 3372 1181 
L 3372 2372 
L 3338 2372 
L 2184 0 
L 2081 0 
L 969 2372 
L 934 2372 
L 963 747 
Q 966 566 966 522 
Q 966 331 991 273 
Q 1016 216 1080 194 
Q 1144 172 1375 153 
L 1400 131 
L 1400 0 
L 1375 -25 
Q 1094 0 822 0 
Q 584 0 294 -25 
L 269 0 
L 269 131 
L 294 153 
Q 559 172 621 197 
Q 684 222 706 292 
Q 728 363 728 747 
L 741 2144 
Q 741 2503 722 2579 
Q 703 2656 645 2686 
Q 588 2716 294 2738 
L 269 2763 
L 269 2894 
L 294 2916 
Q 613 2897 797 2897 
Q 991 2897 1278 2916 
L 2272 747 
L 2319 747 
L 3372 2916 
z
" transform="scale(0.015625)"/>
       <path id="Palatino-Roman-438" d="M 247 0 
L 247 131 
L 272 153 
Q 459 181 550 215 
Q 641 250 670 295 
Q 700 341 708 406 
Q 716 472 723 745 
Q 731 1019 731 1163 
L 731 1728 
Q 731 2466 682 2578 
Q 634 2691 272 2738 
L 247 2763 
L 247 2894 
L 272 2916 
Q 706 2891 994 2891 
Q 1272 2891 1716 2916 
L 1738 2894 
L 1738 2763 
L 1716 2738 
Q 1516 2709 1436 2676 
Q 1356 2644 1325 2608 
Q 1294 2572 1284 2519 
Q 1275 2466 1264 2180 
Q 1253 1894 1253 1728 
L 1253 438 
L 1303 419 
Q 1600 863 2069 1661 
Q 2538 2459 2784 2916 
Q 3078 2891 3275 2891 
Q 3478 2891 3775 2916 
L 3800 2894 
L 3800 2763 
L 3775 2738 
Q 3409 2691 3362 2573 
Q 3316 2456 3316 1728 
L 3316 1163 
Q 3316 428 3364 315 
Q 3413 203 3775 153 
L 3800 131 
L 3800 0 
L 3775 -25 
Q 3341 0 3053 0 
Q 2775 0 2331 -25 
L 2306 0 
L 2306 131 
L 2331 153 
Q 2697 203 2745 318 
Q 2794 434 2794 1163 
L 2794 2434 
L 2744 2453 
Q 2516 2116 2014 1247 
Q 1513 378 1309 -25 
Q 1016 0 828 0 
Q 625 0 272 -25 
L 247 0 
z
" transform="scale(0.015625)"/>
       <path id="Palatino-Roman-432" d="M 191 0 
L 191 131 
L 216 153 
Q 450 175 500 195 
Q 550 216 583 275 
Q 616 334 622 562 
Q 628 791 628 1181 
L 628 1713 
Q 628 1956 622 2257 
Q 616 2559 581 2618 
Q 547 2678 495 2698 
Q 444 2719 216 2738 
L 191 2763 
L 191 2894 
L 216 2916 
Q 644 2891 866 2891 
Q 972 2891 1163 2897 
Q 1709 2913 1913 2913 
Q 2272 2913 2440 2753 
Q 2609 2594 2609 2353 
Q 2609 1841 1913 1653 
Q 2344 1628 2550 1439 
Q 2756 1250 2756 947 
Q 2756 575 2473 278 
Q 2191 -19 1566 -19 
Q 1522 -19 1381 -13 
Q 1122 0 969 0 
Q 591 -13 216 -25 
L 191 0 
z
M 1122 1691 
Q 1247 1684 1322 1684 
Q 1756 1684 1929 1826 
Q 2103 1969 2103 2219 
Q 2103 2438 1964 2580 
Q 1825 2722 1472 2722 
Q 1316 2722 1144 2706 
L 1122 1691 
z
M 1122 1503 
L 1144 200 
Q 1300 178 1488 178 
Q 1759 178 1920 284 
Q 2081 391 2150 544 
Q 2219 697 2219 875 
Q 2219 1081 2125 1237 
Q 2031 1394 1851 1453 
Q 1672 1513 1356 1513 
Q 1275 1513 1122 1503 
z
" transform="scale(0.015625)"/>
       <path id="Palatino-Roman-430" d="M 663 2119 
L 541 2150 
L 516 2181 
Q 519 2231 519 2309 
L 516 2569 
Q 853 2788 1087 2884 
Q 1322 2981 1597 2981 
Q 2081 2981 2362 2728 
Q 2644 2475 2644 2041 
L 2628 1413 
L 2628 481 
Q 2628 313 2656 259 
Q 2684 206 2732 187 
Q 2781 169 2934 156 
L 2959 128 
L 2959 3 
L 2934 -22 
Q 2691 0 2553 0 
Q 2422 0 2147 -22 
L 2100 22 
L 2113 525 
L 1713 213 
Q 1503 47 1431 -6 
Q 1259 -78 1056 -78 
Q 684 -78 470 120 
Q 256 319 256 659 
Q 256 1013 440 1236 
Q 625 1459 998 1586 
Q 1372 1713 2113 1816 
Q 2113 2009 2086 2146 
Q 2059 2284 1957 2407 
Q 1856 2531 1701 2593 
Q 1547 2656 1353 2656 
Q 1250 2656 1153 2639 
Q 1056 2622 972 2584 
Q 888 2547 869 2531 
Q 850 2516 834 2475 
Q 825 2456 766 2325 
Q 719 2225 688 2134 
L 663 2119 
z
M 2113 1634 
Q 1391 1519 1098 1348 
Q 806 1178 806 800 
Q 806 556 936 428 
Q 1066 300 1291 300 
Q 1706 300 2113 781 
L 2113 1634 
z
" transform="scale(0.015625)"/>
       <path id="Palatino-Roman-435" d="M 2763 459 
L 2663 234 
Q 2338 25 2083 -37 
Q 1828 -100 1628 -100 
Q 1253 -100 917 47 
Q 581 194 370 544 
Q 159 894 159 1388 
Q 159 1716 240 1980 
Q 322 2244 411 2372 
Q 500 2500 712 2656 
Q 925 2813 1162 2906 
Q 1400 3000 1675 3000 
Q 2050 3000 2336 2823 
Q 2622 2647 2737 2372 
Q 2853 2097 2853 1788 
Q 2853 1691 2844 1600 
L 2809 1566 
Q 2597 1519 2237 1503 
Q 1878 1488 1763 1488 
L 759 1488 
Q 766 841 1084 534 
Q 1403 228 1866 228 
Q 2084 228 2286 303 
Q 2488 378 2713 513 
L 2763 459 
z
M 759 1738 
Q 816 1728 1192 1715 
Q 1569 1703 1750 1703 
Q 2184 1703 2278 1719 
Q 2281 1794 2281 1834 
Q 2281 2319 2084 2555 
Q 1888 2791 1547 2791 
Q 1175 2791 967 2525 
Q 759 2259 759 1738 
z
" transform="scale(0.015625)"/>
       <path id="Palatino-Roman-20" transform="scale(0.015625)"/>
       <path id="Palatino-Roman-441" d="M 2713 334 
L 2588 125 
Q 2184 -97 1688 -97 
Q 1000 -97 625 312 
Q 250 722 250 1369 
Q 250 1663 314 1892 
Q 378 2122 476 2272 
Q 575 2422 694 2509 
Q 813 2597 1095 2753 
Q 1378 2909 1522 2957 
Q 1666 3006 1919 3006 
Q 2403 3006 2713 2822 
Q 2653 2469 2622 2034 
L 2594 2009 
L 2466 2009 
L 2438 2038 
Q 2425 2300 2403 2390 
Q 2381 2481 2154 2584 
Q 1928 2688 1672 2688 
Q 1416 2688 1216 2580 
Q 1016 2472 914 2226 
Q 813 1981 813 1641 
Q 813 1353 894 1079 
Q 975 806 1108 626 
Q 1241 447 1459 337 
Q 1678 228 1947 228 
Q 2116 228 2277 272 
Q 2438 316 2647 416 
L 2713 334 
z
" transform="scale(0.015625)"/>
       <path id="Palatino-Roman-442" d="M 119 2894 
L 144 2916 
Q 753 2884 1509 2884 
Q 2278 2884 2875 2916 
L 2897 2894 
Q 2878 2481 2878 2197 
L 2859 2178 
L 2734 2178 
L 2716 2197 
Q 2675 2534 2650 2595 
Q 2625 2656 2579 2675 
Q 2534 2694 2403 2694 
L 1769 2694 
L 1756 1894 
L 1756 1181 
Q 1756 950 1762 642 
Q 1769 334 1800 275 
Q 1831 216 1884 195 
Q 1938 175 2169 153 
L 2194 131 
L 2194 0 
L 2169 -25 
Q 1856 0 1509 0 
Q 1147 0 850 -25 
L 825 0 
L 825 131 
L 850 153 
Q 1084 175 1136 195 
Q 1188 216 1219 277 
Q 1250 338 1256 580 
Q 1263 822 1263 1181 
L 1263 1884 
Q 1253 2291 1247 2694 
L 613 2694 
Q 478 2694 433 2673 
Q 388 2653 364 2586 
Q 341 2519 300 2197 
L 281 2178 
L 159 2178 
L 138 2197 
Q 138 2322 119 2894 
z
" transform="scale(0.015625)"/>
       <path id="Palatino-Roman-44f" d="M 1759 0 
L 1759 131 
L 1784 153 
Q 2119 191 2153 344 
Q 2188 497 2188 1163 
L 2188 1678 
Q 2188 2209 2169 2672 
L 2128 2713 
Q 2016 2725 1888 2725 
Q 1644 2725 1494 2667 
Q 1344 2609 1258 2471 
Q 1172 2334 1172 2163 
Q 1172 2000 1253 1859 
Q 1334 1719 1517 1631 
Q 1700 1544 2028 1541 
L 2028 1456 
Q 1416 797 856 -25 
Q 613 0 438 0 
Q 275 0 25 -25 
L 0 0 
L 0 131 
L 25 153 
Q 222 169 298 209 
Q 375 250 581 494 
L 1388 1441 
L 1388 1491 
Q 594 1638 594 2216 
Q 594 2528 856 2722 
Q 1119 2916 1594 2916 
Q 1706 2916 2000 2903 
Q 2303 2891 2450 2891 
Q 2741 2891 3172 2916 
L 3194 2894 
L 3194 2763 
L 3172 2738 
Q 2803 2691 2756 2573 
Q 2709 2456 2709 1728 
L 2709 1163 
Q 2709 428 2757 315 
Q 2806 203 3172 153 
L 3194 131 
L 3194 0 
L 3172 -25 
Q 2734 0 2450 0 
Q 2231 0 1784 -25 
L 1759 0 
z
" transform="scale(0.015625)"/>
      </defs>
      <use xlink:href="#Palatino-Roman-43d"/>
      <use xlink:href="#Palatino-Roman-43e" x="58.349609"/>
      <use xlink:href="#Palatino-Roman-440" x="114.306641"/>
      <use xlink:href="#Palatino-Roman-43c" x="174.414062"/>
      <use xlink:href="#Palatino-Roman-438" x="247.802734"/>
      <use xlink:href="#Palatino-Roman-440" x="310.986328"/>
      <use xlink:href="#Palatino-Roman-43e" x="371.09375"/>
      <use xlink:href="#Palatino-Roman-432" x="427.050781"/>
      <use xlink:href="#Palatino-Roman-430" x="474.21875"/>
      <use xlink:href="#Palatino-Roman-43d" x="524.21875"/>
      <use xlink:href="#Palatino-Roman-43d" x="582.568359"/>
      <use xlink:href="#Palatino-Roman-43e" x="640.917969"/>
      <use xlink:href="#Palatino-Roman-435" x="696.875"/>
      <use xlink:href="#Palatino-Roman-20" x="744.775391"/>
      <use xlink:href="#Palatino-Roman-440" x="769.775391"/>
      <use xlink:href="#Palatino-Roman-430" x="829.882812"/>
      <use xlink:href="#Palatino-Roman-441" x="879.882812"/>
      <use xlink:href="#Palatino-Roman-441" x="924.267578"/>
      <use xlink:href="#Palatino-Roman-442" x="968.652344"/>
      <use xlink:href="#Palatino-Roman-43e" x="1015.820312"/>
      <use xlink:href="#Palatino-Roman-44f" x="1071.777344"/>
      <use xlink:href="#Palatino-Roman-43d" x="1125.537109"/>
      <use xlink:href="#Palatino-Roman-438" x="1183.886719"/>
      <use xlink:href="#Palatino-Roman-435" x="1247.070312"/>
     </g>
    </g>
   </g>
   <g id="matplotlib.axis_2">
    <g id="ytick_1">
     <g id="line2d_8">
      <path d="M 40.356219 359.347082 
L 374.60076 359.347082 
" clip-path="url(#p1793a0a2b5)" style="fill: none; stroke: #deddd4; stroke-width: 0.7; stroke-linecap: square"/>
     </g>
     <g id="line2d_9">
      <defs>
       <path id="m93693212af" d="M 0 0 
L -3 0 
" style="stroke: #696d65; stroke-width: 0.7"/>
      </defs>
      <g>
       <use xlink:href="#m93693212af" x="40.356219" y="359.347082" style="fill: #696d65; stroke: #696d65; stroke-width: 0.7"/>
      </g>
     </g>
     <g id="text_9">
      <!-- 0 -->
      <g style="fill: #696d65" transform="translate(27.756219 363.784832) scale(0.122 -0.122)">
       <use xlink:href="#Palatino-Roman-30"/>
      </g>
     </g>
    </g>
    <g id="ytick_2">
     <g id="line2d_10">
      <path d="M 40.356219 315.02401 
L 374.60076 315.02401 
" clip-path="url(#p1793a0a2b5)" style="fill: none; stroke: #deddd4; stroke-width: 0.7; stroke-linecap: square"/>
     </g>
     <g id="line2d_11">
      <g>
       <use xlink:href="#m93693212af" x="40.356219" y="315.02401" style="fill: #696d65; stroke: #696d65; stroke-width: 0.7"/>
      </g>
     </g>
     <g id="text_10">
      <!-- 1 -->
      <g style="fill: #696d65" transform="translate(27.756219 319.46176) scale(0.122 -0.122)">
       <use xlink:href="#Palatino-Roman-31"/>
      </g>
     </g>
    </g>
    <g id="ytick_3">
     <g id="line2d_12">
      <path d="M 40.356219 270.700938 
L 374.60076 270.700938 
" clip-path="url(#p1793a0a2b5)" style="fill: none; stroke: #deddd4; stroke-width: 0.7; stroke-linecap: square"/>
     </g>
     <g id="line2d_13">
      <g>
       <use xlink:href="#m93693212af" x="40.356219" y="270.700938" style="fill: #696d65; stroke: #696d65; stroke-width: 0.7"/>
      </g>
     </g>
     <g id="text_11">
      <!-- 2 -->
      <g style="fill: #696d65" transform="translate(27.756219 275.138688) scale(0.122 -0.122)">
       <use xlink:href="#Palatino-Roman-32"/>
      </g>
     </g>
    </g>
    <g id="ytick_4">
     <g id="line2d_14">
      <path d="M 40.356219 226.377866 
L 374.60076 226.377866 
" clip-path="url(#p1793a0a2b5)" style="fill: none; stroke: #deddd4; stroke-width: 0.7; stroke-linecap: square"/>
     </g>
     <g id="line2d_15">
      <g>
       <use xlink:href="#m93693212af" x="40.356219" y="226.377866" style="fill: #696d65; stroke: #696d65; stroke-width: 0.7"/>
      </g>
     </g>
     <g id="text_12">
      <!-- 3 -->
      <g style="fill: #696d65" transform="translate(27.756219 230.815616) scale(0.122 -0.122)">
       <use xlink:href="#Palatino-Roman-33"/>
      </g>
     </g>
    </g>
    <g id="ytick_5">
     <g id="line2d_16">
      <path d="M 40.356219 182.054793 
L 374.60076 182.054793 
" clip-path="url(#p1793a0a2b5)" style="fill: none; stroke: #deddd4; stroke-width: 0.7; stroke-linecap: square"/>
     </g>
     <g id="line2d_17">
      <g>
       <use xlink:href="#m93693212af" x="40.356219" y="182.054793" style="fill: #696d65; stroke: #696d65; stroke-width: 0.7"/>
      </g>
     </g>
     <g id="text_13">
      <!-- 4 -->
      <g style="fill: #696d65" transform="translate(27.756219 186.492543) scale(0.122 -0.122)">
       <defs>
        <path id="Palatino-Roman-34" d="M 1003 0 
L 1003 184 
Q 1491 194 1575 211 
Q 1659 228 1694 266 
Q 1738 319 1756 456 
Q 1784 688 1784 934 
L 1784 1166 
L 1100 1166 
Q 534 1166 91 1147 
L 38 1316 
Q 278 1769 681 2425 
Q 1269 3381 1853 4266 
Q 1888 4281 2022 4338 
Q 2259 4431 2294 4444 
L 2372 4406 
Q 2350 4031 2344 3481 
Q 2328 2322 2328 2209 
L 2328 1563 
Q 2753 1566 3025 1584 
Q 3016 1428 3016 1378 
L 3025 1147 
Q 2706 1166 2488 1166 
L 2328 1166 
L 2328 956 
Q 2328 431 2375 316 
Q 2394 269 2450 241 
Q 2569 188 3025 184 
L 3025 0 
Q 2350 25 1988 25 
Q 1597 25 1003 0 
z
M 450 1563 
L 1784 1563 
L 1813 3784 
Q 1472 3294 1042 2584 
Q 613 1875 450 1563 
z
" transform="scale(0.015625)"/>
       </defs>
       <use xlink:href="#Palatino-Roman-34"/>
      </g>
     </g>
    </g>
    <g id="ytick_6">
     <g id="line2d_18">
      <path d="M 40.356219 137.731721 
L 374.60076 137.731721 
" clip-path="url(#p1793a0a2b5)" style="fill: none; stroke: #deddd4; stroke-width: 0.7; stroke-linecap: square"/>
     </g>
     <g id="line2d_19">
      <g>
       <use xlink:href="#m93693212af" x="40.356219" y="137.731721" style="fill: #696d65; stroke: #696d65; stroke-width: 0.7"/>
      </g>
     </g>
     <g id="text_14">
      <!-- 5 -->
      <g style="fill: #696d65" transform="translate(27.756219 142.169471) scale(0.122 -0.122)">
       <use xlink:href="#Palatino-Roman-35"/>
      </g>
     </g>
    </g>
    <g id="ytick_7">
     <g id="line2d_20">
      <path d="M 40.356219 93.408649 
L 374.60076 93.408649 
" clip-path="url(#p1793a0a2b5)" style="fill: none; stroke: #deddd4; stroke-width: 0.7; stroke-linecap: square"/>
     </g>
     <g id="line2d_21">
      <g>
       <use xlink:href="#m93693212af" x="40.356219" y="93.408649" style="fill: #696d65; stroke: #696d65; stroke-width: 0.7"/>
      </g>
     </g>
     <g id="text_15">
      <!-- 6 -->
      <g style="fill: #696d65" transform="translate(27.756219 97.846399) scale(0.122 -0.122)">
       <defs>
        <path id="Palatino-Roman-36" d="M 2700 4347 
L 2700 4309 
Q 2353 4231 1975 4000 
Q 1597 3769 1356 3473 
Q 1116 3178 998 2867 
Q 881 2556 847 2153 
Q 1028 2281 1116 2347 
Q 1341 2522 1405 2556 
Q 1469 2591 1580 2617 
Q 1691 2644 1847 2644 
Q 2391 2644 2687 2334 
Q 2984 2025 2984 1438 
Q 2984 1038 2838 741 
Q 2688 438 2511 281 
Q 2334 125 2104 17 
Q 1875 -91 1541 -91 
Q 969 -91 594 342 
Q 219 775 219 1603 
Q 219 2172 395 2653 
Q 572 3134 878 3481 
Q 1184 3828 1607 4089 
Q 2031 4350 2472 4456 
L 2700 4347 
z
M 788 1366 
Q 788 1119 844 875 
Q 878 731 939 593 
Q 1000 456 1098 347 
Q 1197 238 1333 178 
Q 1469 119 1628 119 
Q 1844 119 2030 236 
Q 2216 353 2330 617 
Q 2444 881 2444 1222 
Q 2444 1550 2333 1795 
Q 2222 2041 2026 2156 
Q 1831 2272 1613 2272 
Q 1338 2272 1075 2088 
Q 888 1956 838 1811 
Q 788 1666 788 1366 
z
" transform="scale(0.015625)"/>
       </defs>
       <use xlink:href="#Palatino-Roman-36"/>
      </g>
     </g>
    </g>
    <g id="ytick_8">
     <g id="line2d_22">
      <path d="M 40.356219 49.085576 
L 374.60076 49.085576 
" clip-path="url(#p1793a0a2b5)" style="fill: none; stroke: #deddd4; stroke-width: 0.7; stroke-linecap: square"/>
     </g>
     <g id="line2d_23">
      <g>
       <use xlink:href="#m93693212af" x="40.356219" y="49.085576" style="fill: #696d65; stroke: #696d65; stroke-width: 0.7"/>
      </g>
     </g>
     <g id="text_16">
      <!-- 7 -->
      <g style="fill: #696d65" transform="translate(27.756219 53.523326) scale(0.122 -0.122)">
       <defs>
        <path id="Palatino-Roman-37" d="M 422 0 
L 356 66 
Q 466 228 975 1031 
Q 1141 1297 1800 2369 
Q 2069 2806 2525 3606 
Q 2566 3675 2638 3813 
L 2606 3844 
L 1638 3844 
Q 1347 3844 1034 3833 
Q 722 3822 653 3794 
Q 613 3778 594 3753 
L 569 3716 
L 478 3034 
L 294 3034 
L 309 3856 
Q 309 4059 294 4369 
L 356 4400 
Q 606 4378 1041 4359 
Q 1603 4338 1778 4338 
Q 2169 4338 3169 4381 
L 3169 4194 
L 2719 3397 
Q 2575 3138 2025 2122 
Q 1641 1409 1353 797 
Q 1134 334 1009 0 
Q 831 16 709 16 
Q 578 16 422 0 
z
" transform="scale(0.015625)"/>
       </defs>
       <use xlink:href="#Palatino-Roman-37"/>
      </g>
     </g>
    </g>
    <g id="text_17">
     <!-- плотность -->
     <g style="fill: #696d65" transform="translate(20.3955 214.569619) rotate(-90) scale(0.122 -0.122)">
      <defs>
       <path id="Palatino-Roman-43f" d="M 247 0 
L 247 131 
L 272 153 
Q 459 181 550 215 
Q 641 250 670 295 
Q 700 341 708 406 
Q 716 472 723 745 
Q 731 1019 731 1163 
L 731 1728 
Q 731 2466 682 2578 
Q 634 2691 272 2738 
L 247 2763 
L 247 2894 
L 272 2916 
Q 1213 2891 2034 2891 
Q 2803 2891 3800 2916 
L 3822 2894 
L 3822 2763 
L 3800 2738 
Q 3600 2709 3519 2676 
Q 3438 2644 3408 2608 
Q 3378 2572 3368 2519 
Q 3359 2466 3348 2183 
Q 3338 1900 3338 1728 
L 3338 1163 
Q 3338 425 3388 314 
Q 3438 203 3800 153 
L 3822 131 
L 3822 0 
L 3800 -25 
Q 3363 0 3075 0 
Q 2797 0 2353 -25 
L 2331 0 
L 2331 131 
L 2353 153 
Q 2722 203 2769 318 
Q 2816 434 2816 1163 
L 2816 2672 
L 2791 2694 
L 1278 2694 
L 1253 2672 
L 1253 1163 
Q 1253 428 1303 315 
Q 1353 203 1716 153 
L 1738 131 
L 1738 0 
L 1716 -25 
Q 1278 0 994 0 
Q 703 0 272 -25 
L 247 0 
z
" transform="scale(0.015625)"/>
       <path id="Palatino-Roman-43b" d="M 0 131 
L 25 153 
Q 188 166 286 220 
Q 384 275 559 487 
Q 734 700 1091 1172 
L 1738 2038 
Q 2028 2428 2064 2492 
Q 2100 2556 2100 2591 
Q 2100 2663 2031 2683 
Q 1963 2703 1563 2738 
L 1541 2763 
L 1541 2894 
L 1563 2916 
Q 1863 2891 2272 2891 
Q 2638 2891 2938 2916 
L 2963 2894 
Q 2941 2363 2941 1769 
L 2941 1163 
Q 2941 428 2989 315 
Q 3038 203 3400 153 
L 3425 131 
L 3425 0 
L 3400 -25 
Q 2966 0 2678 0 
Q 2391 0 1956 -25 
L 1934 0 
L 1934 131 
L 1956 153 
Q 2147 181 2236 215 
Q 2325 250 2356 295 
Q 2388 341 2394 406 
Q 2400 472 2409 742 
Q 2419 1013 2419 1163 
L 2419 2584 
L 2372 2584 
L 1647 1553 
L 1084 747 
Q 869 434 853 389 
Q 838 344 838 316 
Q 838 244 911 211 
Q 984 178 1241 153 
L 1266 131 
L 1266 0 
L 1241 -25 
Q 869 0 631 0 
Q 416 0 25 -25 
L 0 0 
L 0 131 
z
" transform="scale(0.015625)"/>
       <path id="Palatino-Roman-44c" d="M 247 0 
L 247 131 
L 272 153 
Q 459 181 550 215 
Q 641 250 670 295 
Q 700 341 708 406 
Q 716 472 723 745 
Q 731 1019 731 1163 
L 731 1728 
Q 731 2466 682 2578 
Q 634 2691 272 2738 
L 247 2763 
L 247 2894 
L 272 2916 
Q 706 2891 994 2891 
Q 1272 2891 1716 2916 
L 1738 2894 
L 1738 2763 
L 1716 2738 
Q 1516 2709 1436 2676 
Q 1356 2644 1325 2608 
Q 1294 2572 1284 2519 
Q 1275 2466 1264 2180 
Q 1253 1894 1253 1728 
L 1253 1675 
Q 1525 1691 1756 1691 
Q 2163 1691 2377 1614 
Q 2591 1538 2716 1344 
Q 2841 1150 2841 894 
Q 2841 600 2684 381 
Q 2528 163 2304 69 
Q 2081 -25 1713 -25 
Q 1616 -25 1344 -13 
Q 1113 0 994 0 
Q 703 0 272 -25 
L 247 0 
z
M 1253 1528 
L 1253 959 
Q 1259 494 1267 362 
Q 1275 231 1320 184 
Q 1366 138 1519 138 
Q 1894 138 2086 359 
Q 2278 581 2278 934 
Q 2278 1128 2211 1262 
Q 2144 1397 2005 1465 
Q 1866 1534 1600 1534 
Q 1475 1534 1253 1528 
z
" transform="scale(0.015625)"/>
      </defs>
      <use xlink:href="#Palatino-Roman-43f"/>
      <use xlink:href="#Palatino-Roman-43b" x="63.574219"/>
      <use xlink:href="#Palatino-Roman-43e" x="120.947266"/>
      <use xlink:href="#Palatino-Roman-442" x="176.904297"/>
      <use xlink:href="#Palatino-Roman-43d" x="224.072266"/>
      <use xlink:href="#Palatino-Roman-43e" x="282.421875"/>
      <use xlink:href="#Palatino-Roman-441" x="338.378906"/>
      <use xlink:href="#Palatino-Roman-442" x="382.763672"/>
      <use xlink:href="#Palatino-Roman-44c" x="429.931641"/>
     </g>
    </g>
   </g>
   <g id="patch_3">
    <path d="M 55.549152 359.347082 
L 55.549152 357.411574 
L 61.073856 357.411574 
L 61.073856 354.185726 
L 66.598559 354.185726 
L 66.598559 349.024369 
L 72.123262 349.024369 
L 72.123262 347.088861 
L 77.647965 347.088861 
L 77.647965 341.927504 
L 83.172668 341.927504 
L 83.172668 343.217843 
L 88.697371 343.217843 
L 88.697371 345.153352 
L 94.222075 345.153352 
L 94.222075 343.217843 
L 99.746778 343.217843 
L 99.746778 341.927504 
L 105.271481 341.927504 
L 105.271481 329.024112 
L 110.796184 329.024112 
L 110.796184 338.701656 
L 116.320887 338.701656 
L 116.320887 330.959621 
L 121.84559 330.959621 
L 121.84559 339.346826 
L 127.370294 339.346826 
L 127.370294 326.443434 
L 132.894997 326.443434 
L 132.894997 332.89513 
L 138.4197 332.89513 
L 138.4197 332.89513 
L 143.944403 332.89513 
L 143.944403 327.088604 
L 149.469106 327.088604 
L 149.469106 324.507925 
L 154.993809 324.507925 
L 154.993809 335.475808 
L 160.518513 335.475808 
L 160.518513 327.733773 
L 166.043216 327.733773 
L 166.043216 339.346826 
L 171.567919 339.346826 
L 171.567919 336.766147 
L 177.092622 336.766147 
L 177.092622 326.443434 
L 182.617325 326.443434 
L 182.617325 332.89513 
L 188.142028 332.89513 
L 188.142028 334.830639 
L 193.666731 334.830639 
L 193.666731 340.637165 
L 199.191435 340.637165 
L 199.191435 340.637165 
L 204.716138 340.637165 
L 204.716138 339.346826 
L 210.240841 339.346826 
L 210.240841 340.637165 
L 215.765544 340.637165 
L 215.765544 340.637165 
L 221.290247 340.637165 
L 221.290247 339.991995 
L 226.81495 339.991995 
L 226.81495 342.572673 
L 232.339654 342.572673 
L 232.339654 346.443691 
L 237.864357 346.443691 
L 237.864357 345.798521 
L 243.38906 345.798521 
L 243.38906 352.250217 
L 248.913763 352.250217 
L 248.913763 349.024369 
L 254.438466 349.024369 
L 254.438466 353.540556 
L 259.963169 353.540556 
L 259.963169 350.959878 
L 265.487873 350.959878 
L 265.487873 352.250217 
L 271.012576 352.250217 
L 271.012576 350.314708 
L 276.537279 350.314708 
L 276.537279 354.830895 
L 282.061982 354.830895 
L 282.061982 355.476065 
L 287.586685 355.476065 
L 287.586685 356.766404 
L 293.111388 356.766404 
L 293.111388 355.476065 
L 298.636092 355.476065 
L 298.636092 359.347082 
L 304.160795 359.347082 
L 304.160795 358.056743 
L 309.685498 358.056743 
L 309.685498 356.766404 
L 315.210201 356.766404 
L 315.210201 358.056743 
L 320.734904 358.056743 
L 320.734904 357.411574 
L 326.259607 357.411574 
L 326.259607 359.347082 
L 331.784311 359.347082 
L 331.784311 359.347082 
L 337.309014 359.347082 
L 337.309014 359.347082 
L 342.833717 359.347082 
L 342.833717 358.701913 
L 348.35842 358.701913 
L 348.35842 358.701913 
L 353.883123 358.701913 
L 353.883123 358.701913 
L 359.407826 358.701913 
L 359.407826 359.347082 
" clip-path="url(#p1793a0a2b5)" style="fill: none; stroke: #a57920; stroke-width: 2; stroke-linejoin: miter"/>
   </g>
   <g id="patch_4">
    <path d="M 126.950542 359.347082 
L 126.950542 357.773123 
L 129.21513 357.773123 
L 129.21513 359.347082 
L 131.479718 359.347082 
L 131.479718 359.347082 
L 133.744305 359.347082 
L 133.744305 357.773123 
L 136.008893 357.773123 
L 136.008893 356.199163 
L 138.273481 356.199163 
L 138.273481 357.773123 
L 140.538069 357.773123 
L 140.538069 357.773123 
L 142.802657 357.773123 
L 142.802657 353.051243 
L 145.067245 353.051243 
L 145.067245 356.199163 
L 147.331833 356.199163 
L 147.331833 348.329363 
L 149.59642 348.329363 
L 149.59642 337.311644 
L 151.861008 337.311644 
L 151.861008 348.329363 
L 154.125596 348.329363 
L 154.125596 342.033524 
L 156.390184 342.033524 
L 156.390184 337.311644 
L 158.654772 337.311644 
L 158.654772 335.737685 
L 160.91936 335.737685 
L 160.91936 318.424126 
L 163.183948 318.424126 
L 163.183948 302.684528 
L 165.448536 302.684528 
L 165.448536 324.719966 
L 167.713123 324.719966 
L 167.713123 294.814728 
L 169.977711 294.814728 
L 169.977711 307.406407 
L 172.242299 307.406407 
L 172.242299 291.666808 
L 174.506887 291.666808 
L 174.506887 286.944929 
L 176.771475 286.944929 
L 176.771475 283.797009 
L 179.036063 283.797009 
L 179.036063 253.891772 
L 181.300651 253.891772 
L 181.300651 252.317812 
L 183.565239 252.317812 
L 183.565239 266.483451 
L 185.829826 266.483451 
L 185.829826 268.057411 
L 188.094414 268.057411 
L 188.094414 286.944929 
L 190.359002 286.944929 
L 190.359002 283.797009 
L 192.62359 283.797009 
L 192.62359 275.92721 
L 194.888178 275.92721 
L 194.888178 288.518889 
L 197.152766 288.518889 
L 197.152766 277.50117 
L 199.417354 277.50117 
L 199.417354 288.518889 
L 201.681941 288.518889 
L 201.681941 294.814728 
L 203.946529 294.814728 
L 203.946529 296.388688 
L 206.211117 296.388688 
L 206.211117 315.276206 
L 208.475705 315.276206 
L 208.475705 307.406407 
L 210.740293 307.406407 
L 210.740293 324.719966 
L 213.004881 324.719966 
L 213.004881 321.572046 
L 215.269469 321.572046 
L 215.269469 327.867885 
L 217.534057 327.867885 
L 217.534057 337.311644 
L 219.798644 337.311644 
L 219.798644 324.719966 
L 222.063232 324.719966 
L 222.063232 342.033524 
L 224.32782 342.033524 
L 224.32782 345.181444 
L 226.592408 345.181444 
L 226.592408 348.329363 
L 228.856996 348.329363 
L 228.856996 349.903323 
L 231.121584 349.903323 
L 231.121584 357.773123 
L 233.386172 357.773123 
L 233.386172 359.347082 
L 235.650759 359.347082 
L 235.650759 354.625203 
L 237.915347 354.625203 
L 237.915347 359.347082 
L 240.179935 359.347082 
L 240.179935 359.347082 
L 242.444523 359.347082 
L 242.444523 357.773123 
L 244.709111 357.773123 
L 244.709111 359.347082 
L 246.973699 359.347082 
L 246.973699 357.773123 
L 249.238287 357.773123 
L 249.238287 357.773123 
L 251.502875 357.773123 
L 251.502875 359.347082 
" clip-path="url(#p1793a0a2b5)" style="fill: none; stroke: #315f8c; stroke-width: 2; stroke-linejoin: miter"/>
   </g>
   <g id="patch_5">
    <path d="M 169.150798 359.347082 
L 169.150798 349.308783 
L 169.860952 349.308783 
L 169.860952 359.347082 
L 170.571106 359.347082 
L 170.571106 359.347082 
L 171.28126 359.347082 
L 171.28126 359.347082 
L 171.991414 359.347082 
L 171.991414 354.327933 
L 172.701569 354.327933 
L 172.701569 354.327933 
L 173.411723 354.327933 
L 173.411723 354.327933 
L 174.121877 354.327933 
L 174.121877 349.308783 
L 174.832031 349.308783 
L 174.832031 354.327933 
L 175.542186 354.327933 
L 175.542186 344.289633 
L 176.25234 344.289633 
L 176.25234 314.174734 
L 176.962494 314.174734 
L 176.962494 329.232184 
L 177.672648 329.232184 
L 177.672648 329.232184 
L 178.382802 329.232184 
L 178.382802 309.155584 
L 179.092957 309.155584 
L 179.092957 299.117285 
L 179.803111 299.117285 
L 179.803111 248.925786 
L 180.513265 248.925786 
L 180.513265 248.925786 
L 181.223419 248.925786 
L 181.223419 258.964086 
L 181.933573 258.964086 
L 181.933573 198.734288 
L 182.643728 198.734288 
L 182.643728 274.021536 
L 183.353882 274.021536 
L 183.353882 203.753438 
L 184.064036 203.753438 
L 184.064036 168.619389 
L 184.77419 168.619389 
L 184.77419 178.657689 
L 185.484345 178.657689 
L 185.484345 163.60024 
L 186.194499 163.60024 
L 186.194499 103.370442 
L 186.904653 103.370442 
L 186.904653 83.293842 
L 187.614807 83.293842 
L 187.614807 68.236393 
L 188.324961 68.236393 
L 188.324961 68.236393 
L 189.035116 68.236393 
L 189.035116 103.370442 
L 189.74527 103.370442 
L 189.74527 43.140644 
L 190.455424 43.140644 
L 190.455424 103.370442 
L 191.165578 103.370442 
L 191.165578 53.178944 
L 191.875732 53.178944 
L 191.875732 108.389592 
L 192.585887 108.389592 
L 192.585887 28.083194 
L 193.296041 28.083194 
L 193.296041 148.54279 
L 194.006195 148.54279 
L 194.006195 138.50449 
L 194.716349 138.50449 
L 194.716349 163.60024 
L 195.426504 163.60024 
L 195.426504 173.638539 
L 196.136658 173.638539 
L 196.136658 238.887487 
L 196.846812 238.887487 
L 196.846812 243.906637 
L 197.556966 243.906637 
L 197.556966 238.887487 
L 198.26712 238.887487 
L 198.26712 269.002386 
L 198.977275 269.002386 
L 198.977275 284.059835 
L 199.687429 284.059835 
L 199.687429 299.117285 
L 200.397583 299.117285 
L 200.397583 294.098135 
L 201.107737 294.098135 
L 201.107737 309.155584 
L 201.817892 309.155584 
L 201.817892 339.270483 
L 202.528046 339.270483 
L 202.528046 329.232184 
L 203.2382 329.232184 
L 203.2382 324.213034 
L 203.948354 324.213034 
L 203.948354 354.327933 
L 204.658508 354.327933 
L 204.658508 359.347082 
L 205.368663 359.347082 
L 205.368663 344.289633 
L 206.078817 344.289633 
L 206.078817 354.327933 
L 206.788971 354.327933 
L 206.788971 359.347082 
L 207.499125 359.347082 
L 207.499125 349.308783 
L 208.209279 349.308783 
L 208.209279 359.347082 
" clip-path="url(#p1793a0a2b5)" style="fill: none; stroke: #b94a3b; stroke-width: 2; stroke-linejoin: miter"/>
   </g>
   <g id="patch_6">
    <path d="M 40.356219 359.347082 
L 40.356219 11.52 
" style="fill: none; stroke: #969990; stroke-width: 0.8; stroke-linejoin: miter; stroke-linecap: square"/>
   </g>
   <g id="patch_7">
    <path d="M 40.356219 359.347082 
L 374.60076 359.347082 
" style="fill: none; stroke: #969990; stroke-width: 0.8; stroke-linejoin: miter; stroke-linecap: square"/>
   </g>
   <g id="text_18">
    <g id="patch_8">
     <path d="M 209.194313 339.681152 
L 232.282313 339.681152 
L 232.282313 326.754277 
L 209.194313 326.754277 
z
" style="fill: #fffef9; opacity: 0.92"/>
    </g>
    <!-- $d=2$ -->
    <g style="fill: #a57920" transform="translate(210.442313 335.568277) scale(0.104 -0.104)">
     <defs>
      <path id="STIXGeneral-Italic-64" d="M 3334 4371 
L 3373 4333 
L 3123 3360 
L 2739 1958 
Q 2323 429 2323 384 
Q 2323 256 2438 256 
Q 2522 256 2614 336 
Q 2707 416 2963 710 
L 3040 646 
Q 2547 -83 2099 -83 
Q 1978 -83 1907 -6 
Q 1837 70 1837 205 
Q 1837 397 1920 774 
Q 1645 307 1379 118 
Q 1114 -70 781 -70 
Q 461 -70 278 125 
Q 96 320 96 678 
Q 96 1440 713 2131 
Q 1331 2822 1965 2822 
Q 2163 2822 2256 2732 
Q 2349 2643 2381 2451 
L 2387 2451 
L 2675 3494 
Q 2765 3808 2765 3949 
Q 2765 4051 2694 4076 
Q 2624 4102 2355 4115 
L 2355 4224 
Q 2848 4269 3334 4371 
z
M 2278 2310 
Q 2278 2477 2185 2576 
Q 2093 2675 1978 2675 
Q 1677 2675 1395 2381 
Q 1075 2042 864 1571 
Q 653 1101 653 704 
Q 653 486 752 361 
Q 851 237 1024 237 
Q 1312 237 1606 550 
Q 1901 864 2089 1350 
Q 2278 1837 2278 2310 
z
" transform="scale(0.015625)"/>
      <path id="STIXGeneral-Regular-3d" d="M 4077 2048 
L 307 2048 
L 307 2470 
L 4077 2470 
L 4077 2048 
z
M 4077 768 
L 307 768 
L 307 1190 
L 4077 1190 
L 4077 768 
z
" transform="scale(0.015625)"/>
      <path id="STIXGeneral-Regular-32" d="M 3034 877 
L 2688 0 
L 186 0 
L 186 77 
L 1325 1286 
Q 1773 1754 1965 2144 
Q 2157 2534 2157 2950 
Q 2157 3379 1920 3616 
Q 1683 3853 1267 3853 
Q 922 3853 720 3673 
Q 518 3494 326 3021 
L 192 3053 
Q 301 3648 630 3987 
Q 960 4326 1523 4326 
Q 2054 4326 2380 4006 
Q 2707 3686 2707 3200 
Q 2707 2477 1888 1613 
L 832 486 
L 2330 486 
Q 2541 486 2665 569 
Q 2790 653 2944 915 
L 3034 877 
z
" transform="scale(0.015625)"/>
     </defs>
     <use xlink:href="#STIXGeneral-Italic-64" transform="translate(0 0.703125)"/>
     <use xlink:href="#STIXGeneral-Regular-3d" transform="translate(64.439981 0.703125)"/>
     <use xlink:href="#STIXGeneral-Regular-32" transform="translate(147.379962 0.703125)"/>
    </g>
   </g>
   <g id="text_19">
    <g id="patch_9">
     <path d="M 201.465538 285.538567 
L 229.753538 285.538567 
L 229.753538 272.611692 
L 201.465538 272.611692 
z
" style="fill: #fffef9; opacity: 0.92"/>
    </g>
    <!-- $d=20$ -->
    <g style="fill: #315f8c" transform="translate(202.713538 281.425692) scale(0.104 -0.104)">
     <defs>
      <path id="STIXGeneral-Regular-30" d="M 3046 2112 
Q 3046 1683 2963 1302 
Q 2880 922 2717 602 
Q 2554 282 2266 96 
Q 1978 -90 1600 -90 
Q 1210 -90 915 108 
Q 621 307 461 640 
Q 301 973 227 1350 
Q 154 1728 154 2150 
Q 154 2746 301 3222 
Q 448 3699 790 4012 
Q 1133 4326 1626 4326 
Q 2253 4326 2649 3712 
Q 3046 3098 3046 2112 
z
M 2432 2080 
Q 2432 3091 2217 3625 
Q 2003 4160 1587 4160 
Q 1190 4160 979 3622 
Q 768 3085 768 2106 
Q 768 1120 979 598 
Q 1190 77 1600 77 
Q 2003 77 2217 598 
Q 2432 1120 2432 2080 
z
" transform="scale(0.015625)"/>
     </defs>
     <use xlink:href="#STIXGeneral-Italic-64" transform="translate(0 0.703125)"/>
     <use xlink:href="#STIXGeneral-Regular-3d" transform="translate(64.439981 0.703125)"/>
     <use xlink:href="#STIXGeneral-Regular-32" transform="translate(147.379962 0.703125)"/>
     <use xlink:href="#STIXGeneral-Regular-30" transform="translate(197.379947 0.703125)"/>
    </g>
   </g>
   <g id="text_20">
    <g id="patch_10">
     <path d="M 193.052625 117.362604 
L 226.540625 117.362604 
L 226.540625 104.435729 
L 193.052625 104.435729 
z
" style="fill: #fffef9; opacity: 0.92"/>
    </g>
    <!-- $d=200$ -->
    <g style="fill: #b94a3b" transform="translate(194.300625 113.249729) scale(0.104 -0.104)">
     <use xlink:href="#STIXGeneral-Italic-64" transform="translate(0 0.703125)"/>
     <use xlink:href="#STIXGeneral-Regular-3d" transform="translate(64.439981 0.703125)"/>
     <use xlink:href="#STIXGeneral-Regular-32" transform="translate(147.379962 0.703125)"/>
     <use xlink:href="#STIXGeneral-Regular-30" transform="translate(197.379947 0.703125)"/>
     <use xlink:href="#STIXGeneral-Regular-30" transform="translate(247.379932 0.703125)"/>
    </g>
   </g>
  </g>
  <g id="axes_2">
   <g id="patch_11">
    <path d="M 420.074979 359.347082 
L 754.31952 359.347082 
L 754.31952 11.52 
L 420.074979 11.52 
z
" style="fill: #fffef9"/>
   </g>
   <g id="matplotlib.axis_3">
    <g id="xtick_8">
     <g id="line2d_24">
      <g>
       <use xlink:href="#md3cf54fff4" x="541.461962" y="359.347082" style="fill: #696d65; stroke: #696d65; stroke-width: 0.7"/>
      </g>
     </g>
     <g id="text_21">
      <!-- $\mathdefault{10^{1}}$ -->
      <g style="fill: #696d65" transform="translate(532.982962 374.722582) scale(0.122 -0.122)">
       <use xlink:href="#Palatino-Roman-31" transform="translate(0 0.242188)"/>
       <use xlink:href="#Palatino-Roman-30" transform="translate(50 0.242188)"/>
       <use xlink:href="#Palatino-Roman-31" transform="translate(100.824687 33.229687) scale(0.7)"/>
      </g>
     </g>
    </g>
    <g id="xtick_9">
     <g id="line2d_25">
      <g>
       <use xlink:href="#md3cf54fff4" x="693.391299" y="359.347082" style="fill: #696d65; stroke: #696d65; stroke-width: 0.7"/>
      </g>
     </g>
     <g id="text_22">
      <!-- $\mathdefault{10^{2}}$ -->
      <g style="fill: #696d65" transform="translate(684.912299 374.722582) scale(0.122 -0.122)">
       <use xlink:href="#Palatino-Roman-31" transform="translate(0 0.7125)"/>
       <use xlink:href="#Palatino-Roman-30" transform="translate(50 0.7125)"/>
       <use xlink:href="#Palatino-Roman-32" transform="translate(100.824687 33.7) scale(0.7)"/>
      </g>
     </g>
    </g>
    <g id="xtick_10">
     <g id="line2d_26">
      <defs>
       <path id="m6c8b029bcc" d="M 0 0 
L 0 2 
" style="stroke: #696d65; stroke-width: 0.6"/>
      </defs>
      <g>
       <use xlink:href="#m6c8b029bcc" x="435.267912" y="359.347082" style="fill: #696d65; stroke: #696d65; stroke-width: 0.6"/>
      </g>
     </g>
    </g>
    <g id="xtick_11">
     <g id="line2d_27">
      <g>
       <use xlink:href="#m6c8b029bcc" x="462.021341" y="359.347082" style="fill: #696d65; stroke: #696d65; stroke-width: 0.6"/>
      </g>
     </g>
    </g>
    <g id="xtick_12">
     <g id="line2d_28">
      <g>
       <use xlink:href="#m6c8b029bcc" x="481.0032" y="359.347082" style="fill: #696d65; stroke: #696d65; stroke-width: 0.6"/>
      </g>
     </g>
    </g>
    <g id="xtick_13">
     <g id="line2d_29">
      <g>
       <use xlink:href="#m6c8b029bcc" x="495.726674" y="359.347082" style="fill: #696d65; stroke: #696d65; stroke-width: 0.6"/>
      </g>
     </g>
    </g>
    <g id="xtick_14">
     <g id="line2d_30">
      <g>
       <use xlink:href="#m6c8b029bcc" x="507.756628" y="359.347082" style="fill: #696d65; stroke: #696d65; stroke-width: 0.6"/>
      </g>
     </g>
    </g>
    <g id="xtick_15">
     <g id="line2d_31">
      <g>
       <use xlink:href="#m6c8b029bcc" x="517.92781" y="359.347082" style="fill: #696d65; stroke: #696d65; stroke-width: 0.6"/>
      </g>
     </g>
    </g>
    <g id="xtick_16">
     <g id="line2d_32">
      <g>
       <use xlink:href="#m6c8b029bcc" x="526.738488" y="359.347082" style="fill: #696d65; stroke: #696d65; stroke-width: 0.6"/>
      </g>
     </g>
    </g>
    <g id="xtick_17">
     <g id="line2d_33">
      <g>
       <use xlink:href="#m6c8b029bcc" x="534.510057" y="359.347082" style="fill: #696d65; stroke: #696d65; stroke-width: 0.6"/>
      </g>
     </g>
    </g>
    <g id="xtick_18">
     <g id="line2d_34">
      <g>
       <use xlink:href="#m6c8b029bcc" x="587.197249" y="359.347082" style="fill: #696d65; stroke: #696d65; stroke-width: 0.6"/>
      </g>
     </g>
    </g>
    <g id="xtick_19">
     <g id="line2d_35">
      <g>
       <use xlink:href="#m6c8b029bcc" x="613.950678" y="359.347082" style="fill: #696d65; stroke: #696d65; stroke-width: 0.6"/>
      </g>
     </g>
    </g>
    <g id="xtick_20">
     <g id="line2d_36">
      <g>
       <use xlink:href="#m6c8b029bcc" x="632.932537" y="359.347082" style="fill: #696d65; stroke: #696d65; stroke-width: 0.6"/>
      </g>
     </g>
    </g>
    <g id="xtick_21">
     <g id="line2d_37">
      <g>
       <use xlink:href="#m6c8b029bcc" x="647.656011" y="359.347082" style="fill: #696d65; stroke: #696d65; stroke-width: 0.6"/>
      </g>
     </g>
    </g>
    <g id="xtick_22">
     <g id="line2d_38">
      <g>
       <use xlink:href="#m6c8b029bcc" x="659.685965" y="359.347082" style="fill: #696d65; stroke: #696d65; stroke-width: 0.6"/>
      </g>
     </g>
    </g>
    <g id="xtick_23">
     <g id="line2d_39">
      <g>
       <use xlink:href="#m6c8b029bcc" x="669.857147" y="359.347082" style="fill: #696d65; stroke: #696d65; stroke-width: 0.6"/>
      </g>
     </g>
    </g>
    <g id="xtick_24">
     <g id="line2d_40">
      <g>
       <use xlink:href="#m6c8b029bcc" x="678.667825" y="359.347082" style="fill: #696d65; stroke: #696d65; stroke-width: 0.6"/>
      </g>
     </g>
    </g>
    <g id="xtick_25">
     <g id="line2d_41">
      <g>
       <use xlink:href="#m6c8b029bcc" x="686.439393" y="359.347082" style="fill: #696d65; stroke: #696d65; stroke-width: 0.6"/>
      </g>
     </g>
    </g>
    <g id="xtick_26">
     <g id="line2d_42">
      <g>
       <use xlink:href="#m6c8b029bcc" x="739.126586" y="359.347082" style="fill: #696d65; stroke: #696d65; stroke-width: 0.6"/>
      </g>
     </g>
    </g>
    <g id="text_23">
     <!-- размерность -->
     <g style="fill: #696d65" transform="translate(551.246328 390.88827) scale(0.122 -0.122)">
      <defs>
       <path id="Palatino-Roman-437" d="M 303 900 
L 434 928 
Q 478 631 543 479 
Q 609 328 798 214 
Q 988 100 1253 100 
Q 1625 100 1819 340 
Q 2013 581 2013 900 
Q 2013 1203 1820 1373 
Q 1628 1544 1278 1544 
Q 1147 1544 1006 1519 
L 966 1559 
L 966 1678 
L 1006 1719 
Q 1094 1713 1141 1713 
Q 1456 1713 1625 1886 
Q 1794 2059 1794 2328 
Q 1794 2566 1641 2705 
Q 1488 2844 1219 2844 
Q 997 2844 842 2759 
Q 688 2675 608 2547 
Q 528 2419 497 2244 
L 378 2244 
Q 397 2563 397 2834 
Q 859 2997 1359 2997 
Q 2328 2997 2328 2416 
Q 2328 2156 2153 1968 
Q 1978 1781 1684 1725 
L 1684 1663 
Q 1838 1663 2081 1597 
Q 2325 1531 2473 1357 
Q 2622 1184 2622 916 
Q 2622 644 2464 405 
Q 2306 166 1993 41 
Q 1681 -84 1309 -84 
Q 797 -84 291 131 
Q 309 447 309 609 
Q 309 709 303 900 
z
" transform="scale(0.015625)"/>
      </defs>
      <use xlink:href="#Palatino-Roman-440"/>
      <use xlink:href="#Palatino-Roman-430" x="60.107422"/>
      <use xlink:href="#Palatino-Roman-437" x="110.107422"/>
      <use xlink:href="#Palatino-Roman-43c" x="154.394531"/>
      <use xlink:href="#Palatino-Roman-435" x="227.783203"/>
      <use xlink:href="#Palatino-Roman-440" x="275.683594"/>
      <use xlink:href="#Palatino-Roman-43d" x="335.791016"/>
      <use xlink:href="#Palatino-Roman-43e" x="394.140625"/>
      <use xlink:href="#Palatino-Roman-441" x="450.097656"/>
      <use xlink:href="#Palatino-Roman-442" x="494.482422"/>
      <use xlink:href="#Palatino-Roman-44c" x="541.650391"/>
     </g>
    </g>
   </g>
   <g id="matplotlib.axis_4">
    <g id="ytick_9">
     <g id="line2d_43">
      <path d="M 420.074979 348.490838 
L 754.31952 348.490838 
" clip-path="url(#p18ad5f0db4)" style="fill: none; stroke: #deddd4; stroke-width: 0.7; stroke-linecap: square"/>
     </g>
     <g id="line2d_44">
      <g>
       <use xlink:href="#m93693212af" x="420.074979" y="348.490838" style="fill: #696d65; stroke: #696d65; stroke-width: 0.7"/>
      </g>
     </g>
     <g id="text_24">
      <!-- 0.0 -->
      <g style="fill: #696d65" transform="translate(398.324979 352.928588) scale(0.122 -0.122)">
       <use xlink:href="#Palatino-Roman-30"/>
       <use xlink:href="#Palatino-Roman-2e" x="50"/>
       <use xlink:href="#Palatino-Roman-30" x="75"/>
      </g>
     </g>
    </g>
    <g id="ytick_10">
     <g id="line2d_45">
      <path d="M 420.074979 304.417668 
L 754.31952 304.417668 
" clip-path="url(#p18ad5f0db4)" style="fill: none; stroke: #deddd4; stroke-width: 0.7; stroke-linecap: square"/>
     </g>
     <g id="line2d_46">
      <g>
       <use xlink:href="#m93693212af" x="420.074979" y="304.417668" style="fill: #696d65; stroke: #696d65; stroke-width: 0.7"/>
      </g>
     </g>
     <g id="text_25">
      <!-- 0.1 -->
      <g style="fill: #696d65" transform="translate(398.324979 308.855418) scale(0.122 -0.122)">
       <use xlink:href="#Palatino-Roman-30"/>
       <use xlink:href="#Palatino-Roman-2e" x="50"/>
       <use xlink:href="#Palatino-Roman-31" x="75"/>
      </g>
     </g>
    </g>
    <g id="ytick_11">
     <g id="line2d_47">
      <path d="M 420.074979 260.344498 
L 754.31952 260.344498 
" clip-path="url(#p18ad5f0db4)" style="fill: none; stroke: #deddd4; stroke-width: 0.7; stroke-linecap: square"/>
     </g>
     <g id="line2d_48">
      <g>
       <use xlink:href="#m93693212af" x="420.074979" y="260.344498" style="fill: #696d65; stroke: #696d65; stroke-width: 0.7"/>
      </g>
     </g>
     <g id="text_26">
      <!-- 0.2 -->
      <g style="fill: #696d65" transform="translate(398.324979 264.782248) scale(0.122 -0.122)">
       <use xlink:href="#Palatino-Roman-30"/>
       <use xlink:href="#Palatino-Roman-2e" x="50"/>
       <use xlink:href="#Palatino-Roman-32" x="75"/>
      </g>
     </g>
    </g>
    <g id="ytick_12">
     <g id="line2d_49">
      <path d="M 420.074979 216.271327 
L 754.31952 216.271327 
" clip-path="url(#p18ad5f0db4)" style="fill: none; stroke: #deddd4; stroke-width: 0.7; stroke-linecap: square"/>
     </g>
     <g id="line2d_50">
      <g>
       <use xlink:href="#m93693212af" x="420.074979" y="216.271327" style="fill: #696d65; stroke: #696d65; stroke-width: 0.7"/>
      </g>
     </g>
     <g id="text_27">
      <!-- 0.3 -->
      <g style="fill: #696d65" transform="translate(398.324979 220.709077) scale(0.122 -0.122)">
       <use xlink:href="#Palatino-Roman-30"/>
       <use xlink:href="#Palatino-Roman-2e" x="50"/>
       <use xlink:href="#Palatino-Roman-33" x="75"/>
      </g>
     </g>
    </g>
    <g id="ytick_13">
     <g id="line2d_51">
      <path d="M 420.074979 172.198157 
L 754.31952 172.198157 
" clip-path="url(#p18ad5f0db4)" style="fill: none; stroke: #deddd4; stroke-width: 0.7; stroke-linecap: square"/>
     </g>
     <g id="line2d_52">
      <g>
       <use xlink:href="#m93693212af" x="420.074979" y="172.198157" style="fill: #696d65; stroke: #696d65; stroke-width: 0.7"/>
      </g>
     </g>
     <g id="text_28">
      <!-- 0.4 -->
      <g style="fill: #696d65" transform="translate(398.324979 176.635907) scale(0.122 -0.122)">
       <use xlink:href="#Palatino-Roman-30"/>
       <use xlink:href="#Palatino-Roman-2e" x="50"/>
       <use xlink:href="#Palatino-Roman-34" x="75"/>
      </g>
     </g>
    </g>
    <g id="ytick_14">
     <g id="line2d_53">
      <path d="M 420.074979 128.124987 
L 754.31952 128.124987 
" clip-path="url(#p18ad5f0db4)" style="fill: none; stroke: #deddd4; stroke-width: 0.7; stroke-linecap: square"/>
     </g>
     <g id="line2d_54">
      <g>
       <use xlink:href="#m93693212af" x="420.074979" y="128.124987" style="fill: #696d65; stroke: #696d65; stroke-width: 0.7"/>
      </g>
     </g>
     <g id="text_29">
      <!-- 0.5 -->
      <g style="fill: #696d65" transform="translate(398.324979 132.562737) scale(0.122 -0.122)">
       <use xlink:href="#Palatino-Roman-30"/>
       <use xlink:href="#Palatino-Roman-2e" x="50"/>
       <use xlink:href="#Palatino-Roman-35" x="75"/>
      </g>
     </g>
    </g>
    <g id="ytick_15">
     <g id="line2d_55">
      <path d="M 420.074979 84.051817 
L 754.31952 84.051817 
" clip-path="url(#p18ad5f0db4)" style="fill: none; stroke: #deddd4; stroke-width: 0.7; stroke-linecap: square"/>
     </g>
     <g id="line2d_56">
      <g>
       <use xlink:href="#m93693212af" x="420.074979" y="84.051817" style="fill: #696d65; stroke: #696d65; stroke-width: 0.7"/>
      </g>
     </g>
     <g id="text_30">
      <!-- 0.6 -->
      <g style="fill: #696d65" transform="translate(398.324979 88.489567) scale(0.122 -0.122)">
       <use xlink:href="#Palatino-Roman-30"/>
       <use xlink:href="#Palatino-Roman-2e" x="50"/>
       <use xlink:href="#Palatino-Roman-36" x="75"/>
      </g>
     </g>
    </g>
    <g id="ytick_16">
     <g id="line2d_57">
      <path d="M 420.074979 39.978646 
L 754.31952 39.978646 
" clip-path="url(#p18ad5f0db4)" style="fill: none; stroke: #deddd4; stroke-width: 0.7; stroke-linecap: square"/>
     </g>
     <g id="line2d_58">
      <g>
       <use xlink:href="#m93693212af" x="420.074979" y="39.978646" style="fill: #696d65; stroke: #696d65; stroke-width: 0.7"/>
      </g>
     </g>
     <g id="text_31">
      <!-- 0.7 -->
      <g style="fill: #696d65" transform="translate(398.324979 44.416396) scale(0.122 -0.122)">
       <use xlink:href="#Palatino-Roman-30"/>
       <use xlink:href="#Palatino-Roman-2e" x="50"/>
       <use xlink:href="#Palatino-Roman-37" x="75"/>
      </g>
     </g>
    </g>
    <g id="text_32">
     <!-- $d_{min}/d_{max}$ -->
     <g style="fill: #696d65" transform="translate(390.96426 207.332541) rotate(-90) scale(0.122 -0.122)">
      <defs>
       <path id="STIXGeneral-Italic-6d" d="M 4506 672 
L 4474 627 
Q 3981 -58 3552 -58 
Q 3296 -58 3296 237 
Q 3296 333 3379 659 
L 3750 2112 
Q 3795 2291 3795 2355 
Q 3795 2413 3756 2451 
Q 3718 2490 3667 2490 
Q 3366 2490 2829 1741 
Q 2592 1408 2457 1072 
Q 2323 736 2138 0 
L 1658 0 
L 1830 595 
Q 2266 2099 2266 2330 
Q 2266 2490 2125 2490 
Q 1965 2490 1702 2237 
Q 1440 1984 1171 1574 
Q 1011 1325 899 1043 
Q 787 762 557 0 
L 77 0 
L 352 922 
Q 704 2093 704 2381 
Q 704 2522 442 2522 
L 282 2522 
L 282 2624 
L 1318 2822 
L 1338 2810 
L 966 1472 
Q 1798 2822 2374 2822 
Q 2560 2822 2659 2720 
Q 2758 2618 2758 2438 
Q 2758 2195 2502 1466 
Q 2842 2003 3069 2275 
Q 3296 2547 3526 2694 
Q 3731 2822 3930 2822 
Q 4102 2822 4201 2710 
Q 4301 2598 4301 2419 
Q 4301 2336 4282 2240 
L 3846 634 
Q 3782 390 3782 346 
Q 3782 243 3859 243 
Q 4000 243 4275 582 
L 4410 749 
L 4506 672 
z
" transform="scale(0.015625)"/>
       <path id="STIXGeneral-Italic-69" d="M 1690 3834 
Q 1690 3699 1597 3603 
Q 1504 3507 1376 3507 
Q 1235 3507 1152 3600 
Q 1069 3693 1069 3846 
Q 1069 3994 1155 4090 
Q 1242 4186 1370 4186 
Q 1498 4186 1594 4080 
Q 1690 3974 1690 3834 
z
M 1421 730 
L 1504 659 
Q 1235 243 1049 86 
Q 864 -70 627 -70 
Q 314 -70 314 282 
Q 314 467 454 992 
L 762 2125 
Q 819 2330 819 2406 
Q 819 2502 745 2528 
Q 672 2554 410 2560 
L 410 2662 
Q 704 2688 1434 2822 
L 1459 2803 
L 858 608 
Q 794 390 794 326 
Q 794 230 883 230 
Q 1043 230 1421 730 
z
" transform="scale(0.015625)"/>
       <path id="STIXGeneral-Italic-6e" d="M 2944 749 
L 3034 666 
Q 2707 218 2534 80 
Q 2362 -58 2138 -58 
Q 2010 -58 1923 28 
Q 1837 115 1837 288 
Q 1837 390 1939 768 
L 2221 1805 
Q 2310 2150 2310 2310 
Q 2310 2496 2157 2496 
Q 1971 2496 1750 2275 
Q 1530 2054 1210 1587 
Q 998 1274 899 1024 
Q 800 774 570 0 
L 90 0 
L 704 2240 
Q 717 2304 717 2349 
Q 717 2445 630 2480 
Q 544 2515 301 2522 
L 301 2624 
Q 550 2675 857 2729 
Q 1165 2784 1338 2822 
L 1363 2810 
L 934 1414 
Q 1408 2170 1753 2496 
Q 2099 2822 2413 2822 
Q 2611 2822 2720 2716 
Q 2829 2611 2829 2432 
Q 2829 2272 2765 2048 
L 2406 749 
Q 2317 429 2317 358 
Q 2317 243 2419 243 
Q 2541 243 2810 582 
Q 2854 634 2944 749 
z
" transform="scale(0.015625)"/>
       <path id="STIXGeneral-Regular-2f" d="M 1837 4326 
L 378 -90 
L -58 -90 
L 1408 4326 
L 1837 4326 
z
" transform="scale(0.015625)"/>
       <path id="STIXGeneral-Italic-61" d="M 2963 710 
L 3046 640 
Q 2688 205 2518 70 
Q 2349 -64 2157 -64 
Q 1901 -64 1901 198 
Q 1901 358 2048 934 
Q 1690 397 1389 163 
Q 1088 -70 749 -70 
Q 467 -70 288 125 
Q 109 320 109 672 
Q 109 1158 387 1664 
Q 666 2170 1094 2496 
Q 1523 2822 1939 2822 
Q 2368 2822 2451 2451 
L 2522 2758 
L 2541 2778 
L 2931 2822 
L 2976 2803 
Q 2970 2778 2938 2669 
Q 2368 595 2368 346 
Q 2368 262 2458 262 
Q 2554 262 2790 525 
L 2963 710 
z
M 2336 2310 
Q 2336 2477 2240 2579 
Q 2144 2682 1978 2682 
Q 1542 2682 1139 2093 
Q 928 1779 787 1395 
Q 646 1011 646 717 
Q 646 243 1030 243 
Q 1408 243 1843 870 
Q 2336 1581 2336 2310 
z
" transform="scale(0.015625)"/>
       <path id="STIXGeneral-Italic-78" d="M 1555 2272 
L 1632 1907 
Q 1971 2426 2179 2624 
Q 2387 2822 2598 2822 
Q 2714 2822 2787 2755 
Q 2861 2688 2861 2585 
Q 2861 2483 2800 2419 
Q 2739 2355 2643 2355 
Q 2586 2355 2490 2409 
Q 2394 2464 2310 2464 
Q 2125 2464 1683 1690 
Q 1683 1606 1734 1402 
L 1939 544 
Q 2003 282 2131 282 
Q 2234 282 2432 538 
Q 2451 563 2476 598 
Q 2502 634 2521 662 
Q 2541 691 2566 717 
L 2662 659 
Q 2387 230 2227 80 
Q 2067 -70 1882 -70 
Q 1728 -70 1645 26 
Q 1562 122 1504 365 
L 1318 1126 
L 755 365 
Q 557 96 432 13 
Q 307 -70 147 -70 
Q 0 -70 -86 0 
Q -173 70 -173 198 
Q -173 294 -112 361 
Q -51 429 45 429 
Q 122 429 250 358 
Q 346 301 416 301 
Q 525 301 742 614 
L 1267 1357 
L 1088 2150 
Q 1024 2432 969 2509 
Q 915 2586 794 2586 
Q 717 2586 544 2541 
L 429 2509 
L 410 2611 
L 480 2637 
Q 992 2822 1229 2822 
Q 1350 2822 1420 2707 
Q 1491 2592 1555 2272 
z
" transform="scale(0.015625)"/>
      </defs>
      <use xlink:href="#STIXGeneral-Italic-64" transform="translate(0 0.703125)"/>
      <use xlink:href="#STIXGeneral-Italic-6d" transform="translate(49.999985 -12.525) scale(0.7)"/>
      <use xlink:href="#STIXGeneral-Italic-69" transform="translate(100.539972 -12.525) scale(0.7)"/>
      <use xlink:href="#STIXGeneral-Italic-6e" transform="translate(119.999963 -12.525) scale(0.7)"/>
      <use xlink:href="#STIXGeneral-Regular-2f" transform="translate(159.409328 0.703125)"/>
      <use xlink:href="#STIXGeneral-Italic-64" transform="translate(187.209315 0.703125)"/>
      <use xlink:href="#STIXGeneral-Italic-6d" transform="translate(237.2093 -12.525) scale(0.7)"/>
      <use xlink:href="#STIXGeneral-Italic-61" transform="translate(287.749287 -12.525) scale(0.7)"/>
      <use xlink:href="#STIXGeneral-Italic-78" transform="translate(322.819281 -12.525) scale(0.7)"/>
     </g>
    </g>
   </g>
   <g id="line2d_59">
    <path d="M 435.267912 343.536761 
L 495.726674 294.745355 
L 541.461962 219.514424 
L 587.197249 188.943568 
L 647.656011 95.989494 
L 693.391299 55.59934 
L 739.126586 27.330322 
" clip-path="url(#p18ad5f0db4)" style="fill: none; stroke: #b94a3b; stroke-width: 2; stroke-linecap: square"/>
    <defs>
     <path id="m124b9586b0" d="M 0 3 
C 0.795609 3 1.55874 2.683901 2.12132 2.12132 
C 2.683901 1.55874 3 0.795609 3 0 
C 3 -0.795609 2.683901 -1.55874 2.12132 -2.12132 
C 1.55874 -2.683901 0.795609 -3 0 -3 
C -0.795609 -3 -1.55874 -2.683901 -2.12132 -2.12132 
C -2.683901 -1.55874 -3 -0.795609 -3 0 
C -3 0.795609 -2.683901 1.55874 -2.12132 2.12132 
C -1.55874 2.683901 -0.795609 3 0 3 
z
" style="stroke: #b94a3b"/>
    </defs>
    <g clip-path="url(#p18ad5f0db4)">
     <use xlink:href="#m124b9586b0" x="435.267912" y="343.536761" style="fill: #b94a3b; stroke: #b94a3b"/>
     <use xlink:href="#m124b9586b0" x="495.726674" y="294.745355" style="fill: #b94a3b; stroke: #b94a3b"/>
     <use xlink:href="#m124b9586b0" x="541.461962" y="219.514424" style="fill: #b94a3b; stroke: #b94a3b"/>
     <use xlink:href="#m124b9586b0" x="587.197249" y="188.943568" style="fill: #b94a3b; stroke: #b94a3b"/>
     <use xlink:href="#m124b9586b0" x="647.656011" y="95.989494" style="fill: #b94a3b; stroke: #b94a3b"/>
     <use xlink:href="#m124b9586b0" x="693.391299" y="55.59934" style="fill: #b94a3b; stroke: #b94a3b"/>
     <use xlink:href="#m124b9586b0" x="739.126586" y="27.330322" style="fill: #b94a3b; stroke: #b94a3b"/>
    </g>
   </g>
   <g id="patch_12">
    <path d="M 420.074979 359.347082 
L 420.074979 11.52 
" style="fill: none; stroke: #969990; stroke-width: 0.8; stroke-linejoin: miter; stroke-linecap: square"/>
   </g>
   <g id="patch_13">
    <path d="M 420.074979 359.347082 
L 754.31952 359.347082 
" style="fill: none; stroke: #969990; stroke-width: 0.8; stroke-linejoin: miter; stroke-linecap: square"/>
   </g>
  </g>
 </g>
 <defs>
  <clipPath id="p1793a0a2b5">
   <rect x="40.356219" y="11.52" width="334.244541" height="347.827082"/>
  </clipPath>
  <clipPath id="p18ad5f0db4">
   <rect x="420.074979" y="11.52" width="334.244541" height="347.827082"/>
  </clipPath>
 </defs>
</svg>
