<?xml version="1.0" encoding="utf-8" standalone="no"?>
<!DOCTYPE svg PUBLIC "-//W3C//DTD SVG 1.1//EN"
  "http://www.w3.org/Graphics/SVG/1.1/DTD/svg11.dtd">
<svg xmlns:xlink="http://www.w3.org/1999/xlink" width="676.8pt" height="374.4pt" viewBox="0 0 676.8 374.4" xmlns="http://www.w3.org/2000/svg" version="1.1">
 <title>Три способа собирать батч временного ряда</title>
 <metadata>
  <rdf:RDF xmlns:dc="http://purl.org/dc/elements/1.1/" xmlns:cc="http://creativecommons.org/ns#" xmlns:rdf="http://www.w3.org/1999/02/22-rdf-syntax-ns#">
   <cc:Work>
    <dc:type rdf:resource="http://purl.org/dc/dcmitype/StillImage"/>
    <dc:title>Три способа собирать батч временного ряда</dc:title>
    <dc:date>2026-07-18T11:02:57.040468</dc:date>
    <dc:description>Недельный ряд нагрузки с выделенными случайными часами, непрерывным окном и целыми днями; ниже распределения оценок градиента. Цвет связывает выбранные строки с распределением батчевых оценок. Случайные точки, последовательные окна и батчи по дням дают одинаковое среднее, но разный разброс из-за временной зависимости.</dc:description>
    <dc:format>image/svg+xml</dc:format>
    <dc:creator>
     <cc:Agent>
      <dc:title>Matplotlib v3.9.4, https://matplotlib.org/</dc:title>
     </cc:Agent>
    </dc:creator>
   </cc:Work>
  </rdf:RDF>
 </metadata>
 <defs>
  <style type="text/css">*{stroke-linejoin: round; stroke-linecap: butt}</style>
 </defs>
 <g id="figure_1">
  <g id="patch_1">
   <path d="M 0 374.4 
L 676.8 374.4 
L 676.8 0 
L 0 0 
z
" style="fill: #fffef9"/>
  </g>
  <g id="axes_1">
   <g id="patch_2">
    <path d="M 50.76 164.859769 
L 656.496 164.859769 
L 656.496 67.392 
L 50.76 67.392 
z
" style="fill: #fffef9"/>
   </g>
   <g id="matplotlib.axis_1">
    <g id="xtick_1">
     <g id="line2d_1">
      <path d="M 78.293455 164.859769 
L 78.293455 67.392 
" clip-path="url(#p8a3e266299)" style="fill: none; stroke: #d9d8d0; stroke-width: 0.5; stroke-linecap: square"/>
     </g>
     <g id="line2d_2">
      <defs>
       <path id="m161473e361" d="M 0 0 
L 0 3.5 
" style="stroke: #171915; stroke-width: 0.8"/>
      </defs>
      <g>
       <use xlink:href="#m161473e361" x="78.293455" y="164.859769" style="fill: #171915; stroke: #171915; stroke-width: 0.8"/>
      </g>
     </g>
     <g id="text_1">
      <text style="fill: #171915; font: 9px 'Palatino'; text-anchor: middle" x="78.293455" y="178.407269" transform="rotate(-0 78.293455 178.407269)">0</text>
     </g>
    </g>
    <g id="xtick_2">
     <g id="line2d_3">
      <path d="M 160.728947 164.859769 
L 160.728947 67.392 
" clip-path="url(#p8a3e266299)" style="fill: none; stroke: #d9d8d0; stroke-width: 0.5; stroke-linecap: square"/>
     </g>
     <g id="line2d_4">
      <g>
       <use xlink:href="#m161473e361" x="160.728947" y="164.859769" style="fill: #171915; stroke: #171915; stroke-width: 0.8"/>
      </g>
     </g>
     <g id="text_2">
      <text style="fill: #171915; font: 9px 'Palatino'; text-anchor: middle" x="160.728947" y="178.407269" transform="rotate(-0 160.728947 178.407269)">25</text>
     </g>
    </g>
    <g id="xtick_3">
     <g id="line2d_5">
      <path d="M 243.16444 164.859769 
L 243.16444 67.392 
" clip-path="url(#p8a3e266299)" style="fill: none; stroke: #d9d8d0; stroke-width: 0.5; stroke-linecap: square"/>
     </g>
     <g id="line2d_6">
      <g>
       <use xlink:href="#m161473e361" x="243.16444" y="164.859769" style="fill: #171915; stroke: #171915; stroke-width: 0.8"/>
      </g>
     </g>
     <g id="text_3">
      <text style="fill: #171915; font: 9px 'Palatino'; text-anchor: middle" x="243.16444" y="178.407269" transform="rotate(-0 243.16444 178.407269)">50</text>
     </g>
    </g>
    <g id="xtick_4">
     <g id="line2d_7">
      <path d="M 325.599932 164.859769 
L 325.599932 67.392 
" clip-path="url(#p8a3e266299)" style="fill: none; stroke: #d9d8d0; stroke-width: 0.5; stroke-linecap: square"/>
     </g>
     <g id="line2d_8">
      <g>
       <use xlink:href="#m161473e361" x="325.599932" y="164.859769" style="fill: #171915; stroke: #171915; stroke-width: 0.8"/>
      </g>
     </g>
     <g id="text_4">
      <text style="fill: #171915; font: 9px 'Palatino'; text-anchor: middle" x="325.599932" y="178.407269" transform="rotate(-0 325.599932 178.407269)">75</text>
     </g>
    </g>
    <g id="xtick_5">
     <g id="line2d_9">
      <path d="M 408.035425 164.859769 
L 408.035425 67.392 
" clip-path="url(#p8a3e266299)" style="fill: none; stroke: #d9d8d0; stroke-width: 0.5; stroke-linecap: square"/>
     </g>
     <g id="line2d_10">
      <g>
       <use xlink:href="#m161473e361" x="408.035425" y="164.859769" style="fill: #171915; stroke: #171915; stroke-width: 0.8"/>
      </g>
     </g>
     <g id="text_5">
      <text style="fill: #171915; font: 9px 'Palatino'; text-anchor: middle" x="408.035425" y="178.407269" transform="rotate(-0 408.035425 178.407269)">100</text>
     </g>
    </g>
    <g id="xtick_6">
     <g id="line2d_11">
      <path d="M 490.470918 164.859769 
L 490.470918 67.392 
" clip-path="url(#p8a3e266299)" style="fill: none; stroke: #d9d8d0; stroke-width: 0.5; stroke-linecap: square"/>
     </g>
     <g id="line2d_12">
      <g>
       <use xlink:href="#m161473e361" x="490.470918" y="164.859769" style="fill: #171915; stroke: #171915; stroke-width: 0.8"/>
      </g>
     </g>
     <g id="text_6">
      <text style="fill: #171915; font: 9px 'Palatino'; text-anchor: middle" x="490.470918" y="178.407269" transform="rotate(-0 490.470918 178.407269)">125</text>
     </g>
    </g>
    <g id="xtick_7">
     <g id="line2d_13">
      <path d="M 572.90641 164.859769 
L 572.90641 67.392 
" clip-path="url(#p8a3e266299)" style="fill: none; stroke: #d9d8d0; stroke-width: 0.5; stroke-linecap: square"/>
     </g>
     <g id="line2d_14">
      <g>
       <use xlink:href="#m161473e361" x="572.90641" y="164.859769" style="fill: #171915; stroke: #171915; stroke-width: 0.8"/>
      </g>
     </g>
     <g id="text_7">
      <text style="fill: #171915; font: 9px 'Palatino'; text-anchor: middle" x="572.90641" y="178.407269" transform="rotate(-0 572.90641 178.407269)">150</text>
     </g>
    </g>
    <g id="xtick_8">
     <g id="line2d_15">
      <path d="M 655.341903 164.859769 
L 655.341903 67.392 
" clip-path="url(#p8a3e266299)" style="fill: none; stroke: #d9d8d0; stroke-width: 0.5; stroke-linecap: square"/>
     </g>
     <g id="line2d_16">
      <g>
       <use xlink:href="#m161473e361" x="655.341903" y="164.859769" style="fill: #171915; stroke: #171915; stroke-width: 0.8"/>
      </g>
     </g>
     <g id="text_8">
      <text style="fill: #171915; font: 9px 'Palatino'; text-anchor: middle" x="655.341903" y="178.407269" transform="rotate(-0 655.341903 178.407269)">175</text>
     </g>
    </g>
    <g id="text_9">
     <text style="fill: #171915; font: 11px 'Palatino'; text-anchor: middle" x="353.628" y="192.888987" transform="rotate(-0 353.628 192.888987)">час недели</text>
    </g>
   </g>
   <g id="matplotlib.axis_2">
    <g id="ytick_1">
     <g id="line2d_17">
      <path d="M 50.76 154.308969 
L 656.496 154.308969 
" clip-path="url(#p8a3e266299)" style="fill: none; stroke: #d9d8d0; stroke-width: 0.5; stroke-linecap: square"/>
     </g>
     <g id="line2d_18">
      <defs>
       <path id="mf5c037202d" d="M 0 0 
L -3.5 0 
" style="stroke: #171915; stroke-width: 0.8"/>
      </defs>
      <g>
       <use xlink:href="#mf5c037202d" x="50.76" y="154.308969" style="fill: #171915; stroke: #171915; stroke-width: 0.8"/>
      </g>
     </g>
     <g id="text_10">
      <text style="fill: #171915; font: 9px 'Palatino'; text-anchor: end" x="43.76" y="157.582719" transform="rotate(-0 43.76 157.582719)">0.5</text>
     </g>
    </g>
    <g id="ytick_2">
     <g id="line2d_19">
      <path d="M 50.76 132.202969 
L 656.496 132.202969 
" clip-path="url(#p8a3e266299)" style="fill: none; stroke: #d9d8d0; stroke-width: 0.5; stroke-linecap: square"/>
     </g>
     <g id="line2d_20">
      <g>
       <use xlink:href="#mf5c037202d" x="50.76" y="132.202969" style="fill: #171915; stroke: #171915; stroke-width: 0.8"/>
      </g>
     </g>
     <g id="text_11">
      <text style="fill: #171915; font: 9px 'Palatino'; text-anchor: end" x="43.76" y="135.476719" transform="rotate(-0 43.76 135.476719)">1.0</text>
     </g>
    </g>
    <g id="ytick_3">
     <g id="line2d_21">
      <path d="M 50.76 110.096969 
L 656.496 110.096969 
" clip-path="url(#p8a3e266299)" style="fill: none; stroke: #d9d8d0; stroke-width: 0.5; stroke-linecap: square"/>
     </g>
     <g id="line2d_22">
      <g>
       <use xlink:href="#mf5c037202d" x="50.76" y="110.096969" style="fill: #171915; stroke: #171915; stroke-width: 0.8"/>
      </g>
     </g>
     <g id="text_12">
      <text style="fill: #171915; font: 9px 'Palatino'; text-anchor: end" x="43.76" y="113.370719" transform="rotate(-0 43.76 113.370719)">1.5</text>
     </g>
    </g>
    <g id="ytick_4">
     <g id="line2d_23">
      <path d="M 50.76 87.990968 
L 656.496 87.990968 
" clip-path="url(#p8a3e266299)" style="fill: none; stroke: #d9d8d0; stroke-width: 0.5; stroke-linecap: square"/>
     </g>
     <g id="line2d_24">
      <g>
       <use xlink:href="#mf5c037202d" x="50.76" y="87.990968" style="fill: #171915; stroke: #171915; stroke-width: 0.8"/>
      </g>
     </g>
     <g id="text_13">
      <text style="fill: #171915; font: 9px 'Palatino'; text-anchor: end" x="43.76" y="91.264718" transform="rotate(-0 43.76 91.264718)">2.0</text>
     </g>
    </g>
    <g id="text_14">
     <text style="fill: #171915; font: 11px 'Palatino'; text-anchor: middle" x="25.378438" y="116.125884" transform="rotate(-90 25.378438 116.125884)">нагрузка</text>
    </g>
   </g>
   <g id="line2d_25">
    <path d="M 78.293455 159.581366 
L 81.590874 157.362633 
L 84.888294 150.363456 
L 88.185714 143.895362 
L 91.483133 139.704207 
L 94.780553 144.901183 
L 98.077973 142.415655 
L 101.375392 139.677808 
L 104.672812 130.816195 
L 107.970232 130.988524 
L 111.267652 120.721699 
L 114.565071 119.402785 
L 117.862491 107.964339 
L 121.159911 98.05312 
L 124.45733 96.08765 
L 127.75475 90.079956 
L 131.05217 100.447481 
L 134.34959 116.575614 
L 140.944429 139.756254 
L 144.241849 149.049757 
L 147.539268 156.442612 
L 150.836688 160.429415 
L 154.134108 160.42754 
L 157.431527 149.792877 
L 160.728947 153.790906 
L 164.026367 144.855729 
L 167.323787 140.649208 
L 170.621206 134.462306 
L 173.918626 139.008966 
L 177.216046 134.162237 
L 180.513465 131.799944 
L 183.810885 128.256167 
L 187.108305 126.272891 
L 190.405725 111.182767 
L 193.703144 114.918112 
L 197.000564 96.21007 
L 200.297984 97.517028 
L 203.595403 91.810255 
L 206.892823 95.201071 
L 210.190243 95.725411 
L 213.487662 108.992637 
L 216.785082 120.282686 
L 220.082502 132.579965 
L 223.379922 145.665311 
L 226.677341 155.997468 
L 229.974761 155.828273 
L 233.272181 159.56785 
L 236.5696 154.410378 
L 239.86702 147.876108 
L 243.16444 146.359649 
L 246.46186 138.038941 
L 249.759279 140.746667 
L 253.056699 128.941129 
L 256.354119 137.822217 
L 259.651538 128.143408 
L 262.948958 125.286808 
L 266.246378 121.135432 
L 269.543797 117.966992 
L 272.841217 106.747311 
L 276.138637 96.068526 
L 279.436057 94.658348 
L 282.733476 86.252673 
L 286.030896 94.642064 
L 289.328316 90.899955 
L 292.625735 103.230715 
L 295.923155 116.454484 
L 299.220575 130.510868 
L 302.517995 137.894363 
L 305.815414 155.735486 
L 309.112834 156.104483 
L 312.410254 155.591375 
L 315.707673 150.301642 
L 319.005093 144.523979 
L 322.302513 136.485683 
L 325.599932 137.832384 
L 328.897352 132.482096 
L 332.194772 133.263263 
L 335.492192 129.797869 
L 338.789611 129.190961 
L 342.087031 126.151788 
L 345.384451 115.062752 
L 348.68187 110.070891 
L 351.97929 112.121975 
L 355.27671 87.367662 
L 358.57413 90.156206 
L 361.871549 82.283918 
L 365.168969 82.342511 
L 368.466389 97.230633 
L 371.763808 100.76068 
L 375.061228 115.50526 
L 378.358648 128.428907 
L 381.656068 137.946445 
L 384.953487 145.12964 
L 388.250907 151.96244 
L 391.548327 150.75009 
L 394.845746 142.313433 
L 398.143166 146.709868 
L 401.440586 136.047151 
L 404.738005 130.816923 
L 411.332845 124.73546 
L 414.630265 127.566714 
L 417.927684 129.235625 
L 421.225104 121.076501 
L 424.522524 115.475255 
L 427.819943 108.43596 
L 434.414783 85.884287 
L 437.712203 85.755963 
L 441.009622 79.142088 
L 444.307042 85.133071 
L 447.604462 79.386417 
L 450.901881 98.066876 
L 454.199301 112.996947 
L 457.496721 136.604254 
L 460.79414 135.469753 
L 464.09156 143.514706 
L 467.38898 151.949509 
L 470.6864 139.650779 
L 473.983819 141.081125 
L 477.281239 138.37806 
L 480.578659 130.718221 
L 483.876078 128.453274 
L 487.173498 120.293171 
L 490.470918 125.0572 
L 493.768338 123.604562 
L 497.065757 121.362057 
L 500.363177 119.795105 
L 503.660597 108.879103 
L 506.958016 100.54506 
L 510.255436 95.421617 
L 513.552856 84.174639 
L 516.850275 80.190455 
L 520.147695 79.114785 
L 523.445115 79.804778 
L 526.742535 83.993225 
L 530.039954 98.211658 
L 533.337374 107.070659 
L 536.634794 114.410947 
L 539.932213 126.666092 
L 543.229633 133.697662 
L 546.527053 140.410168 
L 549.824473 148.48888 
L 553.121892 143.030689 
L 556.419312 129.615977 
L 559.716732 128.767607 
L 563.014151 125.553858 
L 566.311571 122.501085 
L 569.608991 119.777929 
L 572.90641 116.395587 
L 576.20383 116.251798 
L 579.50125 114.645721 
L 582.79867 106.888005 
L 586.096089 99.746837 
L 589.393509 90.014238 
L 592.690929 82.320886 
L 595.988348 78.588741 
L 599.285768 71.822353 
L 602.583188 75.361544 
L 605.880608 80.55388 
L 612.475447 99.420548 
L 615.772867 116.455548 
L 619.070286 126.807265 
L 622.367706 133.777347 
L 625.665126 142.240905 
L 628.962545 142.975046 
L 628.962545 142.975046 
" clip-path="url(#p8a3e266299)" style="fill: none; stroke: #171915; stroke-opacity: 0.75; stroke-width: 1.1; stroke-linecap: square"/>
   </g>
   <g id="line2d_26">
    <path d="M 259.651538 128.143408 
L 262.948958 125.286808 
L 266.246378 121.135432 
L 269.543797 117.966992 
L 272.841217 106.747311 
L 276.138637 96.068526 
L 279.436057 94.658348 
L 282.733476 86.252673 
L 286.030896 94.642064 
L 289.328316 90.899955 
L 292.625735 103.230715 
L 295.923155 116.454484 
L 299.220575 130.510868 
L 302.517995 137.894363 
L 305.815414 155.735486 
L 309.112834 156.104483 
L 312.410254 155.591375 
L 315.707673 150.301642 
L 319.005093 144.523979 
L 322.302513 136.485683 
L 325.599932 137.832384 
L 328.897352 132.482096 
L 332.194772 133.263263 
L 335.492192 129.797869 
" clip-path="url(#p8a3e266299)" style="fill: none; stroke: #b94a3b; stroke-opacity: 0.72; stroke-width: 3.2; stroke-linecap: square"/>
   </g>
   <g id="line2d_27">
    <path d="M 78.293455 159.581366 
L 81.590874 157.362633 
L 84.888294 150.363456 
L 88.185714 143.895362 
L 91.483133 139.704207 
L 94.780553 144.901183 
L 98.077973 142.415655 
L 101.375392 139.677808 
L 104.672812 130.816195 
L 107.970232 130.988524 
L 111.267652 120.721699 
L 114.565071 119.402785 
L 117.862491 107.964339 
L 121.159911 98.05312 
L 124.45733 96.08765 
L 127.75475 90.079956 
L 131.05217 100.447481 
L 134.34959 116.575614 
L 137.647009 127.97475 
L 140.944429 139.756254 
L 144.241849 149.049757 
L 147.539268 156.442612 
L 150.836688 160.429415 
L 154.134108 160.42754 
" clip-path="url(#p8a3e266299)" style="fill: none; stroke: #38735d; stroke-width: 2.4; stroke-linecap: square"/>
   </g>
   <g id="line2d_28">
    <path d="M 473.983819 141.081125 
L 477.281239 138.37806 
L 480.578659 130.718221 
L 483.876078 128.453274 
L 487.173498 120.293171 
L 490.470918 125.0572 
L 493.768338 123.604562 
L 497.065757 121.362057 
L 500.363177 119.795105 
L 503.660597 108.879103 
L 506.958016 100.54506 
L 510.255436 95.421617 
L 513.552856 84.174639 
L 516.850275 80.190455 
L 520.147695 79.114785 
L 523.445115 79.804778 
L 526.742535 83.993225 
L 530.039954 98.211658 
L 533.337374 107.070659 
L 536.634794 114.410947 
L 539.932213 126.666092 
L 543.229633 133.697662 
L 546.527053 140.410168 
L 549.824473 148.48888 
" clip-path="url(#p8a3e266299)" style="fill: none; stroke: #38735d; stroke-width: 2.4; stroke-linecap: square"/>
   </g>
   <g id="patch_3">
    <path d="M 50.76 164.859769 
L 50.76 67.392 
" style="fill: none; stroke: #171915; stroke-width: 0.8; stroke-linejoin: miter; stroke-linecap: square"/>
   </g>
   <g id="patch_4">
    <path d="M 50.76 164.859769 
L 656.496 164.859769 
" style="fill: none; stroke: #171915; stroke-width: 0.8; stroke-linejoin: miter; stroke-linecap: square"/>
   </g>
   <g id="text_15">
    <text style="fill: #171915; font: 10px 'Palatino'; text-anchor: middle" x="353.628" y="61.392" transform="rotate(-0 353.628 61.392)">Какие строки попали в один батч</text>
   </g>
   <g id="PathCollection_1">
    <defs>
     <path id="me2328ca4c3" d="M 0 2.345208 
C 0.621956 2.345208 1.218523 2.098102 1.658312 1.658312 
C 2.098102 1.218523 2.345208 0.621956 2.345208 0 
C 2.345208 -0.621956 2.098102 -1.218523 1.658312 -1.658312 
C 1.218523 -2.098102 0.621956 -2.345208 0 -2.345208 
C -0.621956 -2.345208 -1.218523 -2.098102 -1.658312 -1.658312 
C -2.098102 -1.218523 -2.345208 -0.621956 -2.345208 0 
C -2.345208 0.621956 -2.098102 1.218523 -1.658312 1.658312 
C -1.218523 2.098102 -0.621956 2.345208 0 2.345208 
z
" style="stroke: #315f8c"/>
    </defs>
    <g clip-path="url(#p8a3e266299)">
     <use xlink:href="#me2328ca4c3" x="78.293455" y="159.581366" style="fill: #315f8c; stroke: #315f8c"/>
     <use xlink:href="#me2328ca4c3" x="180.513465" y="131.799944" style="fill: #315f8c; stroke: #315f8c"/>
     <use xlink:href="#me2328ca4c3" x="190.405725" y="111.182767" style="fill: #315f8c; stroke: #315f8c"/>
     <use xlink:href="#me2328ca4c3" x="246.46186" y="138.038941" style="fill: #315f8c; stroke: #315f8c"/>
     <use xlink:href="#me2328ca4c3" x="289.328316" y="90.899955" style="fill: #315f8c; stroke: #315f8c"/>
     <use xlink:href="#me2328ca4c3" x="292.625735" y="103.230715" style="fill: #315f8c; stroke: #315f8c"/>
     <use xlink:href="#me2328ca4c3" x="322.302513" y="136.485683" style="fill: #315f8c; stroke: #315f8c"/>
     <use xlink:href="#me2328ca4c3" x="365.168969" y="82.342511" style="fill: #315f8c; stroke: #315f8c"/>
     <use xlink:href="#me2328ca4c3" x="417.927684" y="129.235625" style="fill: #315f8c; stroke: #315f8c"/>
     <use xlink:href="#me2328ca4c3" x="493.768338" y="123.604562" style="fill: #315f8c; stroke: #315f8c"/>
     <use xlink:href="#me2328ca4c3" x="506.958016" y="100.54506" style="fill: #315f8c; stroke: #315f8c"/>
     <use xlink:href="#me2328ca4c3" x="563.014151" y="125.553858" style="fill: #315f8c; stroke: #315f8c"/>
     <use xlink:href="#me2328ca4c3" x="579.50125" y="114.645721" style="fill: #315f8c; stroke: #315f8c"/>
    </g>
   </g>
   <g id="legend_1">
    <g id="PathCollection_2">
     <g>
      <use xlink:href="#me2328ca4c3" x="65.96" y="78.312" style="fill: #315f8c; stroke: #315f8c"/>
     </g>
    </g>
    <g id="text_16">
     <text style="fill: #171915; font: 8px 'Palatino'; text-anchor: start" x="80.36" y="80.412" transform="rotate(-0 80.36 80.412)">случайные часы</text>
    </g>
    <g id="line2d_29">
     <path d="M 155.9875 77.612 
L 163.9875 77.612 
L 171.9875 77.612 
" style="fill: none; stroke: #b94a3b; stroke-opacity: 0.72; stroke-width: 3.2; stroke-linecap: square"/>
    </g>
    <g id="text_17">
     <text style="fill: #171915; font: 8px 'Palatino'; text-anchor: start" x="178.3875" y="80.412" transform="rotate(-0 178.3875 80.412)">окно 24 часа</text>
    </g>
    <g id="line2d_30">
     <path d="M 240.035 77.612 
L 248.035 77.612 
L 256.035 77.612 
" style="fill: none; stroke: #38735d; stroke-width: 2.4; stroke-linecap: square"/>
    </g>
    <g id="text_18">
     <text style="fill: #171915; font: 8px 'Palatino'; text-anchor: start" x="262.435" y="80.412" transform="rotate(-0 262.435 80.412)">целые дни</text>
    </g>
   </g>
  </g>
  <g id="axes_2">
   <g id="patch_5">
    <path d="M 50.76 303.264 
L 656.496 303.264 
L 656.496 205.796231 
L 50.76 205.796231 
z
" style="fill: #fffef9"/>
   </g>
   <g id="PathCollection_3">
    <defs>
     <path id="m8f629cf2ea" d="M 0 2.179449 
C 0.577997 2.179449 1.132398 1.949809 1.541104 1.541104 
C 1.949809 1.132398 2.179449 0.577997 2.179449 0 
C 2.179449 -0.577997 1.949809 -1.132398 1.541104 -1.541104 
C 1.132398 -1.949809 0.577997 -2.179449 0 -2.179449 
C -0.577997 -2.179449 -1.132398 -1.949809 -1.541104 -1.541104 
C -1.949809 -1.132398 -2.179449 -0.577997 -2.179449 0 
C -2.179449 0.577997 -1.949809 1.132398 -1.541104 1.541104 
C -1.132398 1.949809 -0.577997 2.179449 0 2.179449 
z
" style="stroke: #315f8c; stroke-opacity: 0.72"/>
    </defs>
    <g clip-path="url(#p6cf5b64ac0)">
     <use xlink:href="#m8f629cf2ea" x="116.880536" y="238.608549" style="fill: #315f8c; fill-opacity: 0.72; stroke: #315f8c; stroke-opacity: 0.72"/>
     <use xlink:href="#m8f629cf2ea" x="90.761552" y="254.730986" style="fill: #315f8c; fill-opacity: 0.72; stroke: #315f8c; stroke-opacity: 0.72"/>
     <use xlink:href="#m8f629cf2ea" x="98.916717" y="266.156965" style="fill: #315f8c; fill-opacity: 0.72; stroke: #315f8c; stroke-opacity: 0.72"/>
     <use xlink:href="#m8f629cf2ea" x="116.952117" y="253.970857" style="fill: #315f8c; fill-opacity: 0.72; stroke: #315f8c; stroke-opacity: 0.72"/>
     <use xlink:href="#m8f629cf2ea" x="95.381057" y="257.48307" style="fill: #315f8c; fill-opacity: 0.72; stroke: #315f8c; stroke-opacity: 0.72"/>
     <use xlink:href="#m8f629cf2ea" x="100.408014" y="281.290389" style="fill: #315f8c; fill-opacity: 0.72; stroke: #315f8c; stroke-opacity: 0.72"/>
     <use xlink:href="#m8f629cf2ea" x="109.404483" y="258.59899" style="fill: #315f8c; fill-opacity: 0.72; stroke: #315f8c; stroke-opacity: 0.72"/>
     <use xlink:href="#m8f629cf2ea" x="78.987998" y="253.655749" style="fill: #315f8c; fill-opacity: 0.72; stroke: #315f8c; stroke-opacity: 0.72"/>
     <use xlink:href="#m8f629cf2ea" x="96.500623" y="276.814232" style="fill: #315f8c; fill-opacity: 0.72; stroke: #315f8c; stroke-opacity: 0.72"/>
     <use xlink:href="#m8f629cf2ea" x="117.504086" y="271.529738" style="fill: #315f8c; fill-opacity: 0.72; stroke: #315f8c; stroke-opacity: 0.72"/>
     <use xlink:href="#m8f629cf2ea" x="104.693246" y="262.078842" style="fill: #315f8c; fill-opacity: 0.72; stroke: #315f8c; stroke-opacity: 0.72"/>
     <use xlink:href="#m8f629cf2ea" x="118.328848" y="275.359208" style="fill: #315f8c; fill-opacity: 0.72; stroke: #315f8c; stroke-opacity: 0.72"/>
     <use xlink:href="#m8f629cf2ea" x="118.81495" y="270.761642" style="fill: #315f8c; fill-opacity: 0.72; stroke: #315f8c; stroke-opacity: 0.72"/>
     <use xlink:href="#m8f629cf2ea" x="78.293455" y="270.932912" style="fill: #315f8c; fill-opacity: 0.72; stroke: #315f8c; stroke-opacity: 0.72"/>
     <use xlink:href="#m8f629cf2ea" x="85.704598" y="262.145798" style="fill: #315f8c; fill-opacity: 0.72; stroke: #315f8c; stroke-opacity: 0.72"/>
     <use xlink:href="#m8f629cf2ea" x="111.189883" y="265.945005" style="fill: #315f8c; fill-opacity: 0.72; stroke: #315f8c; stroke-opacity: 0.72"/>
     <use xlink:href="#m8f629cf2ea" x="86.726711" y="259.288607" style="fill: #315f8c; fill-opacity: 0.72; stroke: #315f8c; stroke-opacity: 0.72"/>
     <use xlink:href="#m8f629cf2ea" x="90.466474" y="260.638803" style="fill: #315f8c; fill-opacity: 0.72; stroke: #315f8c; stroke-opacity: 0.72"/>
    </g>
   </g>
   <g id="PathCollection_4">
    <defs>
     <path id="m9a396b5cf8" d="M 0 2.179449 
C 0.577997 2.179449 1.132398 1.949809 1.541104 1.541104 
C 1.949809 1.132398 2.179449 0.577997 2.179449 0 
C 2.179449 -0.577997 1.949809 -1.132398 1.541104 -1.541104 
C 1.132398 -1.949809 0.577997 -2.179449 0 -2.179449 
C -0.577997 -2.179449 -1.132398 -1.949809 -1.541104 -1.541104 
C -1.949809 -1.132398 -2.179449 -0.577997 -2.179449 0 
C -2.179449 0.577997 -1.949809 1.132398 -1.541104 1.541104 
C -1.132398 1.949809 -0.577997 2.179449 0 2.179449 
z
" style="stroke: #b94a3b; stroke-opacity: 0.72"/>
    </defs>
    <g clip-path="url(#p6cf5b64ac0)">
     <use xlink:href="#m9a396b5cf8" x="326.76341" y="253.440045" style="fill: #b94a3b; fill-opacity: 0.72; stroke: #b94a3b; stroke-opacity: 0.72"/>
     <use xlink:href="#m9a396b5cf8" x="326.602771" y="281.284917" style="fill: #b94a3b; fill-opacity: 0.72; stroke: #b94a3b; stroke-opacity: 0.72"/>
     <use xlink:href="#m9a396b5cf8" x="354.221213" y="268.569628" style="fill: #b94a3b; fill-opacity: 0.72; stroke: #b94a3b; stroke-opacity: 0.72"/>
     <use xlink:href="#m9a396b5cf8" x="342.994498" y="284.486134" style="fill: #b94a3b; fill-opacity: 0.72; stroke: #b94a3b; stroke-opacity: 0.72"/>
     <use xlink:href="#m9a396b5cf8" x="368.669865" y="210.226585" style="fill: #b94a3b; fill-opacity: 0.72; stroke: #b94a3b; stroke-opacity: 0.72"/>
     <use xlink:href="#m9a396b5cf8" x="325.399899" y="256.847392" style="fill: #b94a3b; fill-opacity: 0.72; stroke: #b94a3b; stroke-opacity: 0.72"/>
     <use xlink:href="#m9a396b5cf8" x="348.247623" y="257.239801" style="fill: #b94a3b; fill-opacity: 0.72; stroke: #b94a3b; stroke-opacity: 0.72"/>
     <use xlink:href="#m9a396b5cf8" x="366.756523" y="247.237221" style="fill: #b94a3b; fill-opacity: 0.72; stroke: #b94a3b; stroke-opacity: 0.72"/>
     <use xlink:href="#m9a396b5cf8" x="373.863288" y="270.936035" style="fill: #b94a3b; fill-opacity: 0.72; stroke: #b94a3b; stroke-opacity: 0.72"/>
     <use xlink:href="#m9a396b5cf8" x="351.738659" y="273.41174" style="fill: #b94a3b; fill-opacity: 0.72; stroke: #b94a3b; stroke-opacity: 0.72"/>
     <use xlink:href="#m9a396b5cf8" x="354.340252" y="255.418264" style="fill: #b94a3b; fill-opacity: 0.72; stroke: #b94a3b; stroke-opacity: 0.72"/>
     <use xlink:href="#m9a396b5cf8" x="333.853426" y="242.140702" style="fill: #b94a3b; fill-opacity: 0.72; stroke: #b94a3b; stroke-opacity: 0.72"/>
     <use xlink:href="#m9a396b5cf8" x="340.210237" y="267.885324" style="fill: #b94a3b; fill-opacity: 0.72; stroke: #b94a3b; stroke-opacity: 0.72"/>
     <use xlink:href="#m9a396b5cf8" x="348.122699" y="251.392287" style="fill: #b94a3b; fill-opacity: 0.72; stroke: #b94a3b; stroke-opacity: 0.72"/>
     <use xlink:href="#m9a396b5cf8" x="366.035178" y="298.833647" style="fill: #b94a3b; fill-opacity: 0.72; stroke: #b94a3b; stroke-opacity: 0.72"/>
     <use xlink:href="#m9a396b5cf8" x="360.300564" y="263.161282" style="fill: #b94a3b; fill-opacity: 0.72; stroke: #b94a3b; stroke-opacity: 0.72"/>
     <use xlink:href="#m9a396b5cf8" x="357.999544" y="276.457122" style="fill: #b94a3b; fill-opacity: 0.72; stroke: #b94a3b; stroke-opacity: 0.72"/>
     <use xlink:href="#m9a396b5cf8" x="329.337703" y="268.678849" style="fill: #b94a3b; fill-opacity: 0.72; stroke: #b94a3b; stroke-opacity: 0.72"/>
    </g>
   </g>
   <g id="PathCollection_5">
    <defs>
     <path id="mca78ec9ba3" d="M 0 2.179449 
C 0.577997 2.179449 1.132398 1.949809 1.541104 1.541104 
C 1.949809 1.132398 2.179449 0.577997 2.179449 0 
C 2.179449 -0.577997 1.949809 -1.132398 1.541104 -1.541104 
C 1.132398 -1.949809 0.577997 -2.179449 0 -2.179449 
C -0.577997 -2.179449 -1.132398 -1.949809 -1.541104 -1.541104 
C -1.949809 -1.132398 -2.179449 -0.577997 -2.179449 0 
C -2.179449 0.577997 -1.949809 1.132398 -1.541104 1.541104 
C -1.132398 1.949809 -0.577997 2.179449 0 2.179449 
z
" style="stroke: #38735d; stroke-opacity: 0.72"/>
    </defs>
    <g clip-path="url(#p6cf5b64ac0)">
     <use xlink:href="#mca78ec9ba3" x="581.102211" y="260.442711" style="fill: #38735d; fill-opacity: 0.72; stroke: #38735d; stroke-opacity: 0.72"/>
     <use xlink:href="#mca78ec9ba3" x="621.184015" y="250.324629" style="fill: #38735d; fill-opacity: 0.72; stroke: #38735d; stroke-opacity: 0.72"/>
     <use xlink:href="#mca78ec9ba3" x="628.962545" y="262.001308" style="fill: #38735d; fill-opacity: 0.72; stroke: #38735d; stroke-opacity: 0.72"/>
     <use xlink:href="#mca78ec9ba3" x="606.750635" y="272.123838" style="fill: #38735d; fill-opacity: 0.72; stroke: #38735d; stroke-opacity: 0.72"/>
     <use xlink:href="#mca78ec9ba3" x="606.246639" y="264.472677" style="fill: #38735d; fill-opacity: 0.72; stroke: #38735d; stroke-opacity: 0.72"/>
     <use xlink:href="#mca78ec9ba3" x="616.218206" y="255.552756" style="fill: #38735d; fill-opacity: 0.72; stroke: #38735d; stroke-opacity: 0.72"/>
     <use xlink:href="#mca78ec9ba3" x="597.292904" y="251.767598" style="fill: #38735d; fill-opacity: 0.72; stroke: #38735d; stroke-opacity: 0.72"/>
     <use xlink:href="#mca78ec9ba3" x="591.009503" y="260.796209" style="fill: #38735d; fill-opacity: 0.72; stroke: #38735d; stroke-opacity: 0.72"/>
     <use xlink:href="#mca78ec9ba3" x="620.38978" y="251.769212" style="fill: #38735d; fill-opacity: 0.72; stroke: #38735d; stroke-opacity: 0.72"/>
     <use xlink:href="#mca78ec9ba3" x="610.128157" y="265.829292" style="fill: #38735d; fill-opacity: 0.72; stroke: #38735d; stroke-opacity: 0.72"/>
     <use xlink:href="#mca78ec9ba3" x="619.672946" y="286.543521" style="fill: #38735d; fill-opacity: 0.72; stroke: #38735d; stroke-opacity: 0.72"/>
     <use xlink:href="#mca78ec9ba3" x="603.033415" y="260.997699" style="fill: #38735d; fill-opacity: 0.72; stroke: #38735d; stroke-opacity: 0.72"/>
     <use xlink:href="#mca78ec9ba3" x="587.505862" y="246.324221" style="fill: #38735d; fill-opacity: 0.72; stroke: #38735d; stroke-opacity: 0.72"/>
     <use xlink:href="#mca78ec9ba3" x="608.686176" y="270.695094" style="fill: #38735d; fill-opacity: 0.72; stroke: #38735d; stroke-opacity: 0.72"/>
     <use xlink:href="#mca78ec9ba3" x="627.012201" y="258.563804" style="fill: #38735d; fill-opacity: 0.72; stroke: #38735d; stroke-opacity: 0.72"/>
     <use xlink:href="#mca78ec9ba3" x="591.360031" y="258.097255" style="fill: #38735d; fill-opacity: 0.72; stroke: #38735d; stroke-opacity: 0.72"/>
     <use xlink:href="#mca78ec9ba3" x="616.317161" y="270.619454" style="fill: #38735d; fill-opacity: 0.72; stroke: #38735d; stroke-opacity: 0.72"/>
     <use xlink:href="#mca78ec9ba3" x="625.688839" y="258.217044" style="fill: #38735d; fill-opacity: 0.72; stroke: #38735d; stroke-opacity: 0.72"/>
    </g>
   </g>
   <g id="matplotlib.axis_3">
    <g id="xtick_9">
     <g id="line2d_31">
      <g>
       <use xlink:href="#m161473e361" x="94.268314" y="303.264" style="fill: #171915; stroke: #171915; stroke-width: 0.8"/>
      </g>
     </g>
     <g id="text_19">
      <text style="fill: #171915; font: 9px 'Palatino'" transform="translate(71.773939 316.728531)">случайные</text>
      <text style="fill: #171915; font: 9px 'Palatino'" transform="translate(84.34722 327.147719)">часы</text>
     </g>
    </g>
    <g id="xtick_10">
     <g id="line2d_32">
      <g>
       <use xlink:href="#m161473e361" x="350.2023" y="303.264" style="fill: #171915; stroke: #171915; stroke-width: 0.8"/>
      </g>
     </g>
     <g id="text_20">
      <text style="fill: #171915; font: 9px 'Palatino'" transform="translate(340.451362 316.8115)">окна</text>
      <text style="fill: #171915; font: 9px 'Palatino'" transform="translate(342.166987 327.147719)">24 ч</text>
     </g>
    </g>
    <g id="xtick_11">
     <g id="line2d_33">
      <g>
       <use xlink:href="#m161473e361" x="606.136285" y="303.264" style="fill: #171915; stroke: #171915; stroke-width: 0.8"/>
      </g>
     </g>
     <g id="text_21">
      <text style="fill: #171915; font: 9px 'Palatino'" transform="translate(593.118629 316.8115)">целые</text>
      <text style="fill: #171915; font: 9px 'Palatino'" transform="translate(598.184645 327.147719)">дни</text>
     </g>
    </g>
   </g>
   <g id="matplotlib.axis_4">
    <g id="ytick_5">
     <g id="line2d_34">
      <path d="M 50.76 276.79716 
L 656.496 276.79716 
" clip-path="url(#p6cf5b64ac0)" style="fill: none; stroke: #d9d8d0; stroke-width: 0.5; stroke-linecap: square"/>
     </g>
     <g id="line2d_35">
      <g>
       <use xlink:href="#mf5c037202d" x="50.76" y="276.79716" style="fill: #171915; stroke: #171915; stroke-width: 0.8"/>
      </g>
     </g>
     <g id="text_22">
      <text style="fill: #171915; font: 9px 'Palatino'; text-anchor: end" x="43.76" y="280.07091" transform="rotate(-0 43.76 280.07091)">0.5</text>
     </g>
    </g>
    <g id="ytick_6">
     <g id="line2d_36">
      <path d="M 50.76 241.939139 
L 656.496 241.939139 
" clip-path="url(#p6cf5b64ac0)" style="fill: none; stroke: #d9d8d0; stroke-width: 0.5; stroke-linecap: square"/>
     </g>
     <g id="line2d_37">
      <g>
       <use xlink:href="#mf5c037202d" x="50.76" y="241.939139" style="fill: #171915; stroke: #171915; stroke-width: 0.8"/>
      </g>
     </g>
     <g id="text_23">
      <text style="fill: #171915; font: 9px 'Palatino'; text-anchor: end" x="43.76" y="245.212889" transform="rotate(-0 43.76 245.212889)">1.0</text>
     </g>
    </g>
    <g id="ytick_7">
     <g id="line2d_38">
      <path d="M 50.76 207.081119 
L 656.496 207.081119 
" clip-path="url(#p6cf5b64ac0)" style="fill: none; stroke: #d9d8d0; stroke-width: 0.5; stroke-linecap: square"/>
     </g>
     <g id="line2d_39">
      <g>
       <use xlink:href="#mf5c037202d" x="50.76" y="207.081119" style="fill: #171915; stroke: #171915; stroke-width: 0.8"/>
      </g>
     </g>
     <g id="text_24">
      <text style="fill: #171915; font: 9px 'Palatino'; text-anchor: end" x="43.76" y="210.354869" transform="rotate(-0 43.76 210.354869)">1.5</text>
     </g>
    </g>
    <g id="text_25">
     <text style="fill: #171915; font: 11px 'Palatino'; text-anchor: middle" x="25.41625" y="254.530116" transform="rotate(-90 25.41625 254.530116)">оценка градиента</text>
    </g>
   </g>
   <g id="LineCollection_1">
    <path d="M 94.268314 273.314978 
L 94.268314 253.350615 
" clip-path="url(#p6cf5b64ac0)" style="fill: none; stroke: #171915; stroke-width: 2"/>
   </g>
   <g id="line2d_40">
    <defs>
     <path id="m443cdcea2c" d="M 4 0 
L -4 -0 
" style="stroke: #171915"/>
    </defs>
    <g clip-path="url(#p6cf5b64ac0)">
     <use xlink:href="#m443cdcea2c" x="94.268314" y="273.314978" style="fill: #171915; stroke: #171915"/>
    </g>
   </g>
   <g id="line2d_41">
    <g clip-path="url(#p6cf5b64ac0)">
     <use xlink:href="#m443cdcea2c" x="94.268314" y="253.350615" style="fill: #171915; stroke: #171915"/>
    </g>
   </g>
   <g id="LineCollection_2">
    <path d="M 350.2023 281.415674 
L 350.2023 243.878435 
" clip-path="url(#p6cf5b64ac0)" style="fill: none; stroke: #171915; stroke-width: 2"/>
   </g>
   <g id="line2d_42">
    <g clip-path="url(#p6cf5b64ac0)">
     <use xlink:href="#m443cdcea2c" x="350.2023" y="281.415674" style="fill: #171915; stroke: #171915"/>
    </g>
   </g>
   <g id="line2d_43">
    <g clip-path="url(#p6cf5b64ac0)">
     <use xlink:href="#m443cdcea2c" x="350.2023" y="243.878435" style="fill: #171915; stroke: #171915"/>
    </g>
   </g>
   <g id="LineCollection_3">
    <path d="M 606.136285 270.670822 
L 606.136285 252.122325 
" clip-path="url(#p6cf5b64ac0)" style="fill: none; stroke: #171915; stroke-width: 2"/>
   </g>
   <g id="line2d_44">
    <g clip-path="url(#p6cf5b64ac0)">
     <use xlink:href="#m443cdcea2c" x="606.136285" y="270.670822" style="fill: #171915; stroke: #171915"/>
    </g>
   </g>
   <g id="line2d_45">
    <g clip-path="url(#p6cf5b64ac0)">
     <use xlink:href="#m443cdcea2c" x="606.136285" y="252.122325" style="fill: #171915; stroke: #171915"/>
    </g>
   </g>
   <g id="line2d_46">
    <path d="M 50.76 261.459631 
L 656.496 261.459631 
" clip-path="url(#p6cf5b64ac0)" style="fill: none; stroke-dasharray: 4.44,1.92; stroke-dashoffset: 0; stroke: #a57920; stroke-width: 1.2"/>
   </g>
   <g id="line2d_47">
    <defs>
     <path id="mb8a0cea79d" d="M 0 2 
C 0.530406 2 1.03916 1.789267 1.414214 1.414214 
C 1.789267 1.03916 2 0.530406 2 0 
C 2 -0.530406 1.789267 -1.03916 1.414214 -1.414214 
C 1.03916 -1.789267 0.530406 -2 0 -2 
C -0.530406 -2 -1.03916 -1.789267 -1.414214 -1.414214 
C -1.789267 -1.03916 -2 -0.530406 -2 0 
C -2 0.530406 -1.789267 1.03916 -1.414214 1.414214 
C -1.03916 1.789267 -0.530406 2 0 2 
z
" style="stroke: #171915"/>
    </defs>
    <g clip-path="url(#p6cf5b64ac0)">
     <use xlink:href="#mb8a0cea79d" x="94.268314" y="263.332797" style="fill: #171915; stroke: #171915"/>
    </g>
   </g>
   <g id="line2d_48">
    <g clip-path="url(#p6cf5b64ac0)">
     <use xlink:href="#mb8a0cea79d" x="350.2023" y="262.647054" style="fill: #171915; stroke: #171915"/>
    </g>
   </g>
   <g id="line2d_49">
    <g clip-path="url(#p6cf5b64ac0)">
     <use xlink:href="#mb8a0cea79d" x="606.136285" y="261.396573" style="fill: #171915; stroke: #171915"/>
    </g>
   </g>
   <g id="patch_6">
    <path d="M 50.76 303.264 
L 50.76 205.796231 
" style="fill: none; stroke: #171915; stroke-width: 0.8; stroke-linejoin: miter; stroke-linecap: square"/>
   </g>
   <g id="patch_7">
    <path d="M 50.76 303.264 
L 656.496 303.264 
" style="fill: none; stroke: #171915; stroke-width: 0.8; stroke-linejoin: miter; stroke-linecap: square"/>
   </g>
   <g id="text_26">
    <g id="patch_8">
     <path d="M 608.02128 221.871661 
L 644.38128 221.871661 
Q 647.53128 221.871661 647.53128 218.721661 
L 647.53128 209.694942 
Q 647.53128 206.544942 644.38128 206.544942 
L 608.02128 206.544942 
Q 604.87128 206.544942 604.87128 209.694942 
L 604.87128 218.721661 
Q 604.87128 221.871661 608.02128 221.871661 
z
" style="fill: #fffef9; stroke: #d9d8d0; stroke-width: 0.8; stroke-linejoin: miter"/>
    </g>
    <!-- $E[\hat g]=\nabla L$ -->
    <g style="fill: #171915" transform="translate(608.02128 216.242442)">
     <text>
      <tspan style="font: italic 9px 'STIXGeneral'" x="0 8.495987 31.336169" y="-0.40625">EgL</tspan>
      <tspan style="font: 9px 'STIXGeneral'" x="5.498993 12.995987 13.003799 17.292581 24.757175" y="-0.40625 -0.40625 -0.9375 -0.40625 -0.40625">[]̂=∇</tspan>
     </text>
    </g>
   </g>
   <g id="text_27">
    <text style="fill: #171915; font: 9.5px 'Palatino'; text-anchor: middle" x="353.628" y="199.796231" transform="rotate(-0 353.628 199.796231)">Разброс батч-оценок при одинаковом среднем</text>
   </g>
   <g id="legend_2">
    <g id="line2d_50">
     <path d="M 57.96 216.016231 
L 65.96 216.016231 
L 73.96 216.016231 
" style="fill: none; stroke-dasharray: 4.44,1.92; stroke-dashoffset: 0; stroke: #a57920; stroke-width: 1.2"/>
    </g>
    <g id="text_28">
     <text style="fill: #171915; font: 8px 'Palatino'; text-anchor: start" x="80.36" y="218.816231" transform="rotate(-0 80.36 218.816231)">полный градиент</text>
    </g>
   </g>
  </g>
  <g id="text_29">
   <text style="fill: #171915; font: 700 17px 'Palatino'; text-anchor: start" x="37.224" y="25.373219" transform="rotate(-0 37.224 25.373219)">Три способа собирать батч временного ряда</text>
  </g>
  <g id="text_30">
   <text style="fill: #6f746d; font: 8.6px 'Palatino'" transform="translate(37.224 350.544858)">Рис. 24.3. Цвет связывает выбранные строки с распределением батчевых оценок. Случайные точки, последовательные окна и батчи</text>
   <text style="fill: #6f746d; font: 8.6px 'Palatino'" transform="translate(37.224 360.00045)">по дням дают одинаковое среднее, но разный разброс из-за временной зависимости.</text>
  </g>
 </g>
 <defs>
  <clipPath id="p8a3e266299">
   <rect x="50.76" y="67.392" width="605.736" height="97.467769"/>
  </clipPath>
  <clipPath id="p6cf5b64ac0">
   <rect x="50.76" y="205.796231" width="605.736" height="97.467769"/>
  </clipPath>
 </defs>
</svg>
